<?xml version="1.0" encoding="UTF-8" standalone="no"?>
<!DOCTYPE svg PUBLIC "-//W3C//DTD SVG 1.1//EN"
 "http://www.w3.org/Graphics/SVG/1.1/DTD/svg11.dtd">
<!-- Generated by graphviz version 2.49.3 (20211104.1129)
 -->
<!-- Title: snakemake_dag Pages: 1 -->
<svg width="1081pt" height="548pt"
 viewBox="0.00 0.00 1080.50 548.00" xmlns="http://www.w3.org/2000/svg" xmlns:xlink="http://www.w3.org/1999/xlink">
<g id="graph0" class="graph" transform="scale(1 1) rotate(0) translate(4 544)">
<title>snakemake_dag</title>
<polygon fill="white" stroke="transparent" points="-4,4 -4,-544 1076.5,-544 1076.5,4 -4,4"/>
<!-- 0 -->
<g id="node1" class="node">
<title>0</title>
<path fill="none" stroke="#d85656" stroke-width="2" d="M518.5,-36C518.5,-36 488.5,-36 488.5,-36 482.5,-36 476.5,-30 476.5,-24 476.5,-24 476.5,-12 476.5,-12 476.5,-6 482.5,0 488.5,0 488.5,0 518.5,0 518.5,0 524.5,0 530.5,-6 530.5,-12 530.5,-12 530.5,-24 530.5,-24 530.5,-30 524.5,-36 518.5,-36"/>
<text text-anchor="middle" x="503.5" y="-15.5" font-family="sans" font-size="10.00">all</text>
</g>
<!-- 1 -->
<g id="node2" class="node">
<title>1</title>
<path fill="none" stroke="#d8ac56" stroke-width="2" d="M543.5,-108C543.5,-108 463.5,-108 463.5,-108 457.5,-108 451.5,-102 451.5,-96 451.5,-96 451.5,-84 451.5,-84 451.5,-78 457.5,-72 463.5,-72 463.5,-72 543.5,-72 543.5,-72 549.5,-72 555.5,-78 555.5,-84 555.5,-84 555.5,-96 555.5,-96 555.5,-102 549.5,-108 543.5,-108"/>
<text text-anchor="middle" x="503.5" y="-87.5" font-family="sans" font-size="10.00">sample_complete</text>
</g>
<!-- 1&#45;&gt;0 -->
<g id="edge1" class="edge">
<title>1&#45;&gt;0</title>
<path fill="none" stroke="grey" stroke-width="2" d="M503.5,-71.7C503.5,-63.98 503.5,-54.71 503.5,-46.11"/>
<polygon fill="grey" stroke="grey" stroke-width="2" points="507,-46.1 503.5,-36.1 500,-46.1 507,-46.1"/>
</g>
<!-- 2 -->
<g id="node3" class="node">
<title>2</title>
<path fill="none" stroke="#56a9d8" stroke-width="2" d="M529.5,-180C529.5,-180 477.5,-180 477.5,-180 471.5,-180 465.5,-174 465.5,-168 465.5,-168 465.5,-156 465.5,-156 465.5,-150 471.5,-144 477.5,-144 477.5,-144 529.5,-144 529.5,-144 535.5,-144 541.5,-150 541.5,-156 541.5,-156 541.5,-168 541.5,-168 541.5,-174 535.5,-180 529.5,-180"/>
<text text-anchor="middle" x="503.5" y="-159.5" font-family="sans" font-size="10.00">stellarscope</text>
</g>
<!-- 2&#45;&gt;1 -->
<g id="edge4" class="edge">
<title>2&#45;&gt;1</title>
<path fill="none" stroke="grey" stroke-width="2" d="M503.5,-143.7C503.5,-135.98 503.5,-126.71 503.5,-118.11"/>
<polygon fill="grey" stroke="grey" stroke-width="2" points="507,-118.1 503.5,-108.1 500,-118.1 507,-118.1"/>
</g>
<!-- 3 -->
<g id="node4" class="node">
<title>3</title>
<path fill="none" stroke="#d88556" stroke-width="2" d="M611.5,-252C611.5,-252 535.5,-252 535.5,-252 529.5,-252 523.5,-246 523.5,-240 523.5,-240 523.5,-228 523.5,-228 523.5,-222 529.5,-216 535.5,-216 535.5,-216 611.5,-216 611.5,-216 617.5,-216 623.5,-222 623.5,-228 623.5,-228 623.5,-240 623.5,-240 623.5,-246 617.5,-252 611.5,-252"/>
<text text-anchor="middle" x="573.5" y="-231.5" font-family="sans" font-size="10.00">samtools_collate</text>
</g>
<!-- 3&#45;&gt;2 -->
<g id="edge5" class="edge">
<title>3&#45;&gt;2</title>
<path fill="none" stroke="grey" stroke-width="2" d="M556.2,-215.7C547.64,-207.14 537.16,-196.66 527.8,-187.3"/>
<polygon fill="grey" stroke="grey" stroke-width="2" points="530.15,-184.7 520.6,-180.1 525.2,-189.65 530.15,-184.7"/>
</g>
<!-- 4 -->
<g id="node5" class="node">
<title>4</title>
<path fill="none" stroke="#80d856" stroke-width="2" d="M618.5,-324C618.5,-324 532.5,-324 532.5,-324 526.5,-324 520.5,-318 520.5,-312 520.5,-312 520.5,-300 520.5,-300 520.5,-294 526.5,-288 532.5,-288 532.5,-288 618.5,-288 618.5,-288 624.5,-288 630.5,-294 630.5,-300 630.5,-300 630.5,-312 630.5,-312 630.5,-318 624.5,-324 618.5,-324"/>
<text text-anchor="middle" x="575.5" y="-303.5" font-family="sans" font-size="10.00">starsolo_alignment</text>
</g>
<!-- 4&#45;&gt;3 -->
<g id="edge7" class="edge">
<title>4&#45;&gt;3</title>
<path fill="none" stroke="grey" stroke-width="2" d="M575.01,-287.7C574.79,-279.98 574.52,-270.71 574.27,-262.11"/>
<polygon fill="grey" stroke="grey" stroke-width="2" points="577.77,-262 573.99,-252.1 570.78,-262.2 577.77,-262"/>
</g>
<!-- 5 -->
<g id="node6" class="node">
<title>5</title>
<path fill="none" stroke="#afd856" stroke-width="2" d="M594,-396C594,-396 541,-396 541,-396 535,-396 529,-390 529,-384 529,-384 529,-372 529,-372 529,-366 535,-360 541,-360 541,-360 594,-360 594,-360 600,-360 606,-366 606,-372 606,-372 606,-384 606,-384 606,-390 600,-396 594,-396"/>
<text text-anchor="middle" x="567.5" y="-375.5" font-family="sans" font-size="10.00">untar_fastqs</text>
</g>
<!-- 5&#45;&gt;4 -->
<g id="edge8" class="edge">
<title>5&#45;&gt;4</title>
<path fill="none" stroke="grey" stroke-width="2" d="M569.48,-359.7C570.36,-351.98 571.42,-342.71 572.4,-334.11"/>
<polygon fill="grey" stroke="grey" stroke-width="2" points="575.89,-334.44 573.55,-324.1 568.93,-333.64 575.89,-334.44"/>
</g>
<!-- 6 -->
<g id="node7" class="node">
<title>6</title>
<path fill="none" stroke="#d6d856" stroke-width="2" d="M664,-468C664,-468 455,-468 455,-468 449,-468 443,-462 443,-456 443,-456 443,-444 443,-444 443,-438 449,-432 455,-432 455,-432 664,-432 664,-432 670,-432 676,-438 676,-444 676,-444 676,-456 676,-456 676,-462 670,-468 664,-468"/>
<text text-anchor="middle" x="559.5" y="-453" font-family="sans" font-size="10.00">download_fastqs</text>
<text text-anchor="middle" x="559.5" y="-442" font-family="sans" font-size="10.00">s: 20k_PBMC_3p_HT_nextgem_Chromium_X</text>
</g>
<!-- 6&#45;&gt;5 -->
<g id="edge11" class="edge">
<title>6&#45;&gt;5</title>
<path fill="none" stroke="grey" stroke-width="2" d="M561.48,-431.7C562.36,-423.98 563.42,-414.71 564.4,-406.11"/>
<polygon fill="grey" stroke="grey" stroke-width="2" points="567.89,-406.44 565.55,-396.1 560.93,-405.64 567.89,-406.44"/>
</g>
<!-- 7 -->
<g id="node8" class="node">
<title>7</title>
<path fill="none" stroke="#5682d8" stroke-width="2" d="M409,-396C409,-396 320,-396 320,-396 314,-396 308,-390 308,-384 308,-384 308,-372 308,-372 308,-366 314,-360 320,-360 320,-360 409,-360 409,-360 415,-360 421,-366 421,-372 421,-372 421,-384 421,-384 421,-390 415,-396 409,-396"/>
<text text-anchor="middle" x="364.5" y="-375.5" font-family="sans" font-size="10.00">index_genome_star</text>
</g>
<!-- 7&#45;&gt;4 -->
<g id="edge9" class="edge">
<title>7&#45;&gt;4</title>
<path fill="none" stroke="grey" stroke-width="2" d="M415.85,-359.97C445.46,-350.14 482.87,-337.73 514.04,-327.39"/>
<polygon fill="grey" stroke="grey" stroke-width="2" points="515.53,-330.58 523.92,-324.11 513.33,-323.94 515.53,-330.58"/>
</g>
<!-- 18 -->
<g id="node19" class="node">
<title>18</title>
<path fill="none" stroke="#80d856" stroke-width="2" d="M746.5,-324C746.5,-324 660.5,-324 660.5,-324 654.5,-324 648.5,-318 648.5,-312 648.5,-312 648.5,-300 648.5,-300 648.5,-294 654.5,-288 660.5,-288 660.5,-288 746.5,-288 746.5,-288 752.5,-288 758.5,-294 758.5,-300 758.5,-300 758.5,-312 758.5,-312 758.5,-318 752.5,-324 746.5,-324"/>
<text text-anchor="middle" x="703.5" y="-303.5" font-family="sans" font-size="10.00">starsolo_alignment</text>
</g>
<!-- 7&#45;&gt;18 -->
<g id="edge23" class="edge">
<title>7&#45;&gt;18</title>
<path fill="none" stroke="grey" stroke-width="2" d="M421.09,-367.27C474.68,-357.8 557.59,-342.45 638.54,-324.14"/>
<polygon fill="grey" stroke="grey" stroke-width="2" points="639.43,-327.53 648.4,-321.89 637.87,-320.7 639.43,-327.53"/>
</g>
<!-- 24 -->
<g id="node25" class="node">
<title>24</title>
<path fill="none" stroke="#80d856" stroke-width="2" d="M352.5,-324C352.5,-324 266.5,-324 266.5,-324 260.5,-324 254.5,-318 254.5,-312 254.5,-312 254.5,-300 254.5,-300 254.5,-294 260.5,-288 266.5,-288 266.5,-288 352.5,-288 352.5,-288 358.5,-288 364.5,-294 364.5,-300 364.5,-300 364.5,-312 364.5,-312 364.5,-318 358.5,-324 352.5,-324"/>
<text text-anchor="middle" x="309.5" y="-303.5" font-family="sans" font-size="10.00">starsolo_alignment</text>
</g>
<!-- 7&#45;&gt;24 -->
<g id="edge31" class="edge">
<title>7&#45;&gt;24</title>
<path fill="none" stroke="grey" stroke-width="2" d="M350.9,-359.7C344.38,-351.39 336.43,-341.28 329.25,-332.14"/>
<polygon fill="grey" stroke="grey" stroke-width="2" points="331.87,-329.81 322.94,-324.1 326.37,-334.13 331.87,-329.81"/>
</g>
<!-- 8 -->
<g id="node9" class="node">
<title>8</title>
<path fill="none" stroke="#56d8a9" stroke-width="2" d="M274,-468C274,-468 211,-468 211,-468 205,-468 199,-462 199,-456 199,-456 199,-444 199,-444 199,-438 205,-432 211,-432 211,-432 274,-432 274,-432 280,-432 286,-438 286,-444 286,-444 286,-456 286,-456 286,-462 280,-468 274,-468"/>
<text text-anchor="middle" x="242.5" y="-447.5" font-family="sans" font-size="10.00">untar_genome</text>
</g>
<!-- 8&#45;&gt;7 -->
<g id="edge12" class="edge">
<title>8&#45;&gt;7</title>
<path fill="none" stroke="grey" stroke-width="2" d="M272.34,-431.88C288.44,-422.64 308.5,-411.13 325.79,-401.21"/>
<polygon fill="grey" stroke="grey" stroke-width="2" points="327.61,-404.2 334.54,-396.19 324.13,-398.13 327.61,-404.2"/>
</g>
<!-- 13 -->
<g id="node14" class="node">
<title>13</title>
<path fill="none" stroke="#56d8d8" stroke-width="2" d="M491.5,-252C491.5,-252 393.5,-252 393.5,-252 387.5,-252 381.5,-246 381.5,-240 381.5,-240 381.5,-228 381.5,-228 381.5,-222 387.5,-216 393.5,-216 393.5,-216 491.5,-216 491.5,-216 497.5,-216 503.5,-222 503.5,-228 503.5,-228 503.5,-240 503.5,-240 503.5,-246 497.5,-252 491.5,-252"/>
<text text-anchor="middle" x="442.5" y="-231.5" font-family="sans" font-size="10.00">telescope_annotation</text>
</g>
<!-- 8&#45;&gt;13 -->
<g id="edge17" class="edge">
<title>8&#45;&gt;13</title>
<path fill="none" stroke="grey" stroke-width="2" d="M236.77,-431.77C227.29,-399.71 212.45,-330.29 245.5,-288 249.6,-282.75 316.94,-265.36 371.76,-251.92"/>
<polygon fill="grey" stroke="grey" stroke-width="2" points="372.6,-255.32 381.48,-249.54 370.93,-248.52 372.6,-255.32"/>
</g>
<!-- 9 -->
<g id="node10" class="node">
<title>9</title>
<path fill="none" stroke="#56d882" stroke-width="2" d="M290,-540C290,-540 195,-540 195,-540 189,-540 183,-534 183,-528 183,-528 183,-516 183,-516 183,-510 189,-504 195,-504 195,-504 290,-504 290,-504 296,-504 302,-510 302,-516 302,-516 302,-528 302,-528 302,-534 296,-540 290,-540"/>
<text text-anchor="middle" x="242.5" y="-525" font-family="sans" font-size="10.00">download_remote</text>
<text text-anchor="middle" x="242.5" y="-514" font-family="sans" font-size="10.00">file: GRCh38.fa.tar.gz</text>
</g>
<!-- 9&#45;&gt;8 -->
<g id="edge14" class="edge">
<title>9&#45;&gt;8</title>
<path fill="none" stroke="grey" stroke-width="2" d="M242.5,-503.7C242.5,-495.98 242.5,-486.71 242.5,-478.11"/>
<polygon fill="grey" stroke="grey" stroke-width="2" points="246,-478.1 242.5,-468.1 239,-478.1 246,-478.1"/>
</g>
<!-- 10 -->
<g id="node11" class="node">
<title>10</title>
<path fill="none" stroke="#56d882" stroke-width="2" d="M413,-468C413,-468 316,-468 316,-468 310,-468 304,-462 304,-456 304,-456 304,-444 304,-444 304,-438 310,-432 316,-432 316,-432 413,-432 413,-432 419,-432 425,-438 425,-444 425,-444 425,-456 425,-456 425,-462 419,-468 413,-468"/>
<text text-anchor="middle" x="364.5" y="-453" font-family="sans" font-size="10.00">download_remote</text>
<text text-anchor="middle" x="364.5" y="-442" font-family="sans" font-size="10.00">file: gencode38.gtf.gz</text>
</g>
<!-- 10&#45;&gt;7 -->
<g id="edge13" class="edge">
<title>10&#45;&gt;7</title>
<path fill="none" stroke="grey" stroke-width="2" d="M364.5,-431.7C364.5,-423.98 364.5,-414.71 364.5,-406.11"/>
<polygon fill="grey" stroke="grey" stroke-width="2" points="368,-406.1 364.5,-396.1 361,-406.1 368,-406.1"/>
</g>
<!-- 11 -->
<g id="node12" class="node">
<title>11</title>
<path fill="none" stroke="#59d856" stroke-width="2" d="M715.5,-396C715.5,-396 659.5,-396 659.5,-396 653.5,-396 647.5,-390 647.5,-384 647.5,-384 647.5,-372 647.5,-372 647.5,-366 653.5,-360 659.5,-360 659.5,-360 715.5,-360 715.5,-360 721.5,-360 727.5,-366 727.5,-372 727.5,-372 727.5,-384 727.5,-384 727.5,-390 721.5,-396 715.5,-396"/>
<text text-anchor="middle" x="687.5" y="-375.5" font-family="sans" font-size="10.00">get_whitelist</text>
</g>
<!-- 11&#45;&gt;4 -->
<g id="edge10" class="edge">
<title>11&#45;&gt;4</title>
<path fill="none" stroke="grey" stroke-width="2" d="M660.1,-359.88C645.59,-350.81 627.58,-339.55 611.91,-329.76"/>
<polygon fill="grey" stroke="grey" stroke-width="2" points="613.34,-326.52 603,-324.19 609.63,-332.46 613.34,-326.52"/>
</g>
<!-- 11&#45;&gt;18 -->
<g id="edge24" class="edge">
<title>11&#45;&gt;18</title>
<path fill="none" stroke="grey" stroke-width="2" d="M691.46,-359.7C693.22,-351.98 695.34,-342.71 697.3,-334.11"/>
<polygon fill="grey" stroke="grey" stroke-width="2" points="700.77,-334.63 699.59,-324.1 693.95,-333.07 700.77,-334.63"/>
</g>
<!-- 11&#45;&gt;24 -->
<g id="edge32" class="edge">
<title>11&#45;&gt;24</title>
<path fill="none" stroke="grey" stroke-width="2" d="M647.46,-367.06C636.79,-364.58 625.24,-362.05 614.5,-360 511.24,-340.3 481.3,-345.59 374.45,-324.07"/>
<polygon fill="grey" stroke="grey" stroke-width="2" points="375.06,-320.62 364.57,-322.04 373.66,-327.48 375.06,-320.62"/>
</g>
<!-- 12 -->
<g id="node13" class="node">
<title>12</title>
<path fill="none" stroke="#56d882" stroke-width="2" d="M828.5,-468C828.5,-468 706.5,-468 706.5,-468 700.5,-468 694.5,-462 694.5,-456 694.5,-456 694.5,-444 694.5,-444 694.5,-438 700.5,-432 706.5,-432 706.5,-432 828.5,-432 828.5,-432 834.5,-432 840.5,-438 840.5,-444 840.5,-444 840.5,-456 840.5,-456 840.5,-462 834.5,-468 828.5,-468"/>
<text text-anchor="middle" x="767.5" y="-453" font-family="sans" font-size="10.00">download_remote</text>
<text text-anchor="middle" x="767.5" y="-442" font-family="sans" font-size="10.00">file: whitelist.10x.v3.txt.gz</text>
</g>
<!-- 12&#45;&gt;11 -->
<g id="edge15" class="edge">
<title>12&#45;&gt;11</title>
<path fill="none" stroke="grey" stroke-width="2" d="M747.72,-431.7C737.75,-422.97 725.49,-412.24 714.64,-402.75"/>
<polygon fill="grey" stroke="grey" stroke-width="2" points="716.88,-400.06 707.05,-396.1 712.27,-405.32 716.88,-400.06"/>
</g>
<!-- 13&#45;&gt;2 -->
<g id="edge6" class="edge">
<title>13&#45;&gt;2</title>
<path fill="none" stroke="grey" stroke-width="2" d="M457.58,-215.7C464.89,-207.3 473.81,-197.07 481.84,-187.86"/>
<polygon fill="grey" stroke="grey" stroke-width="2" points="484.66,-189.94 488.59,-180.1 479.39,-185.34 484.66,-189.94"/>
</g>
<!-- 16 -->
<g id="node17" class="node">
<title>16</title>
<path fill="none" stroke="#56a9d8" stroke-width="2" d="M651.5,-180C651.5,-180 599.5,-180 599.5,-180 593.5,-180 587.5,-174 587.5,-168 587.5,-168 587.5,-156 587.5,-156 587.5,-150 593.5,-144 599.5,-144 599.5,-144 651.5,-144 651.5,-144 657.5,-144 663.5,-150 663.5,-156 663.5,-156 663.5,-168 663.5,-168 663.5,-174 657.5,-180 651.5,-180"/>
<text text-anchor="middle" x="625.5" y="-159.5" font-family="sans" font-size="10.00">stellarscope</text>
</g>
<!-- 13&#45;&gt;16 -->
<g id="edge20" class="edge">
<title>13&#45;&gt;16</title>
<path fill="none" stroke="grey" stroke-width="2" d="M487.27,-215.88C514.72,-205.38 549.84,-191.94 577.81,-181.24"/>
<polygon fill="grey" stroke="grey" stroke-width="2" points="579.29,-184.42 587.38,-177.58 576.79,-177.89 579.29,-184.42"/>
</g>
<!-- 22 -->
<g id="node23" class="node">
<title>22</title>
<path fill="none" stroke="#56a9d8" stroke-width="2" d="M407.5,-180C407.5,-180 355.5,-180 355.5,-180 349.5,-180 343.5,-174 343.5,-168 343.5,-168 343.5,-156 343.5,-156 343.5,-150 349.5,-144 355.5,-144 355.5,-144 407.5,-144 407.5,-144 413.5,-144 419.5,-150 419.5,-156 419.5,-156 419.5,-168 419.5,-168 419.5,-174 413.5,-180 407.5,-180"/>
<text text-anchor="middle" x="381.5" y="-159.5" font-family="sans" font-size="10.00">stellarscope</text>
</g>
<!-- 13&#45;&gt;22 -->
<g id="edge28" class="edge">
<title>13&#45;&gt;22</title>
<path fill="none" stroke="grey" stroke-width="2" d="M427.42,-215.7C420.11,-207.3 411.19,-197.07 403.16,-187.86"/>
<polygon fill="grey" stroke="grey" stroke-width="2" points="405.61,-185.34 396.41,-180.1 400.34,-189.94 405.61,-185.34"/>
</g>
<!-- 14 -->
<g id="node15" class="node">
<title>14</title>
<path fill="none" stroke="#56d882" stroke-width="2" d="M490,-324C490,-324 395,-324 395,-324 389,-324 383,-318 383,-312 383,-312 383,-300 383,-300 383,-294 389,-288 395,-288 395,-288 490,-288 490,-288 496,-288 502,-294 502,-300 502,-300 502,-312 502,-312 502,-318 496,-324 490,-324"/>
<text text-anchor="middle" x="442.5" y="-309" font-family="sans" font-size="10.00">download_remote</text>
<text text-anchor="middle" x="442.5" y="-298" font-family="sans" font-size="10.00">file: retro.hg38.v1.gtf</text>
</g>
<!-- 14&#45;&gt;13 -->
<g id="edge16" class="edge">
<title>14&#45;&gt;13</title>
<path fill="none" stroke="grey" stroke-width="2" d="M442.5,-287.7C442.5,-279.98 442.5,-270.71 442.5,-262.11"/>
<polygon fill="grey" stroke="grey" stroke-width="2" points="446,-262.1 442.5,-252.1 439,-262.1 446,-262.1"/>
</g>
<!-- 15 -->
<g id="node16" class="node">
<title>15</title>
<path fill="none" stroke="#d8ac56" stroke-width="2" d="M665.5,-108C665.5,-108 585.5,-108 585.5,-108 579.5,-108 573.5,-102 573.5,-96 573.5,-96 573.5,-84 573.5,-84 573.5,-78 579.5,-72 585.5,-72 585.5,-72 665.5,-72 665.5,-72 671.5,-72 677.5,-78 677.5,-84 677.5,-84 677.5,-96 677.5,-96 677.5,-102 671.5,-108 665.5,-108"/>
<text text-anchor="middle" x="625.5" y="-87.5" font-family="sans" font-size="10.00">sample_complete</text>
</g>
<!-- 15&#45;&gt;0 -->
<g id="edge2" class="edge">
<title>15&#45;&gt;0</title>
<path fill="none" stroke="grey" stroke-width="2" d="M595.66,-71.88C578.72,-62.16 557.39,-49.92 539.53,-39.67"/>
<polygon fill="grey" stroke="grey" stroke-width="2" points="540.95,-36.46 530.54,-34.51 537.47,-42.53 540.95,-36.46"/>
</g>
<!-- 16&#45;&gt;15 -->
<g id="edge18" class="edge">
<title>16&#45;&gt;15</title>
<path fill="none" stroke="grey" stroke-width="2" d="M625.5,-143.7C625.5,-135.98 625.5,-126.71 625.5,-118.11"/>
<polygon fill="grey" stroke="grey" stroke-width="2" points="629,-118.1 625.5,-108.1 622,-118.1 629,-118.1"/>
</g>
<!-- 17 -->
<g id="node18" class="node">
<title>17</title>
<path fill="none" stroke="#d88556" stroke-width="2" d="M735.5,-252C735.5,-252 659.5,-252 659.5,-252 653.5,-252 647.5,-246 647.5,-240 647.5,-240 647.5,-228 647.5,-228 647.5,-222 653.5,-216 659.5,-216 659.5,-216 735.5,-216 735.5,-216 741.5,-216 747.5,-222 747.5,-228 747.5,-228 747.5,-240 747.5,-240 747.5,-246 741.5,-252 735.5,-252"/>
<text text-anchor="middle" x="697.5" y="-231.5" font-family="sans" font-size="10.00">samtools_collate</text>
</g>
<!-- 17&#45;&gt;16 -->
<g id="edge19" class="edge">
<title>17&#45;&gt;16</title>
<path fill="none" stroke="grey" stroke-width="2" d="M679.7,-215.7C670.9,-207.14 660.12,-196.66 650.5,-187.3"/>
<polygon fill="grey" stroke="grey" stroke-width="2" points="652.7,-184.57 643.09,-180.1 647.82,-189.58 652.7,-184.57"/>
</g>
<!-- 18&#45;&gt;17 -->
<g id="edge21" class="edge">
<title>18&#45;&gt;17</title>
<path fill="none" stroke="grey" stroke-width="2" d="M702.02,-287.7C701.36,-279.98 700.56,-270.71 699.82,-262.11"/>
<polygon fill="grey" stroke="grey" stroke-width="2" points="703.31,-261.77 698.97,-252.1 696.33,-262.37 703.31,-261.77"/>
</g>
<!-- 19 -->
<g id="node20" class="node">
<title>19</title>
<path fill="none" stroke="#afd856" stroke-width="2" d="M905,-396C905,-396 852,-396 852,-396 846,-396 840,-390 840,-384 840,-384 840,-372 840,-372 840,-366 846,-360 852,-360 852,-360 905,-360 905,-360 911,-360 917,-366 917,-372 917,-372 917,-384 917,-384 917,-390 911,-396 905,-396"/>
<text text-anchor="middle" x="878.5" y="-375.5" font-family="sans" font-size="10.00">untar_fastqs</text>
</g>
<!-- 19&#45;&gt;18 -->
<g id="edge22" class="edge">
<title>19&#45;&gt;18</title>
<path fill="none" stroke="grey" stroke-width="2" d="M839.66,-361.46C814.89,-351.56 782.49,-338.6 755.51,-327.8"/>
<polygon fill="grey" stroke="grey" stroke-width="2" points="756.8,-324.55 746.22,-324.09 754.2,-331.05 756.8,-324.55"/>
</g>
<!-- 20 -->
<g id="node21" class="node">
<title>20</title>
<path fill="none" stroke="#d6d856" stroke-width="2" d="M1060.5,-468C1060.5,-468 870.5,-468 870.5,-468 864.5,-468 858.5,-462 858.5,-456 858.5,-456 858.5,-444 858.5,-444 858.5,-438 864.5,-432 870.5,-432 870.5,-432 1060.5,-432 1060.5,-432 1066.5,-432 1072.5,-438 1072.5,-444 1072.5,-444 1072.5,-456 1072.5,-456 1072.5,-462 1066.5,-468 1060.5,-468"/>
<text text-anchor="middle" x="965.5" y="-453" font-family="sans" font-size="10.00">download_fastqs</text>
<text text-anchor="middle" x="965.5" y="-442" font-family="sans" font-size="10.00">s: 10k_PBMC_3p_nextgem_Chromium_X</text>
</g>
<!-- 20&#45;&gt;19 -->
<g id="edge25" class="edge">
<title>20&#45;&gt;19</title>
<path fill="none" stroke="grey" stroke-width="2" d="M943.99,-431.7C933.04,-422.88 919.55,-412.03 907.68,-402.47"/>
<polygon fill="grey" stroke="grey" stroke-width="2" points="909.74,-399.65 899.76,-396.1 905.36,-405.1 909.74,-399.65"/>
</g>
<!-- 21 -->
<g id="node22" class="node">
<title>21</title>
<path fill="none" stroke="#d8ac56" stroke-width="2" d="M421.5,-108C421.5,-108 341.5,-108 341.5,-108 335.5,-108 329.5,-102 329.5,-96 329.5,-96 329.5,-84 329.5,-84 329.5,-78 335.5,-72 341.5,-72 341.5,-72 421.5,-72 421.5,-72 427.5,-72 433.5,-78 433.5,-84 433.5,-84 433.5,-96 433.5,-96 433.5,-102 427.5,-108 421.5,-108"/>
<text text-anchor="middle" x="381.5" y="-87.5" font-family="sans" font-size="10.00">sample_complete</text>
</g>
<!-- 21&#45;&gt;0 -->
<g id="edge3" class="edge">
<title>21&#45;&gt;0</title>
<path fill="none" stroke="grey" stroke-width="2" d="M411.34,-71.88C428.28,-62.16 449.61,-49.92 467.47,-39.67"/>
<polygon fill="grey" stroke="grey" stroke-width="2" points="469.53,-42.53 476.46,-34.51 466.05,-36.46 469.53,-42.53"/>
</g>
<!-- 22&#45;&gt;21 -->
<g id="edge26" class="edge">
<title>22&#45;&gt;21</title>
<path fill="none" stroke="grey" stroke-width="2" d="M381.5,-143.7C381.5,-135.98 381.5,-126.71 381.5,-118.11"/>
<polygon fill="grey" stroke="grey" stroke-width="2" points="385,-118.1 381.5,-108.1 378,-118.1 385,-118.1"/>
</g>
<!-- 23 -->
<g id="node24" class="node">
<title>23</title>
<path fill="none" stroke="#d88556" stroke-width="2" d="M349.5,-252C349.5,-252 273.5,-252 273.5,-252 267.5,-252 261.5,-246 261.5,-240 261.5,-240 261.5,-228 261.5,-228 261.5,-222 267.5,-216 273.5,-216 273.5,-216 349.5,-216 349.5,-216 355.5,-216 361.5,-222 361.5,-228 361.5,-228 361.5,-240 361.5,-240 361.5,-246 355.5,-252 349.5,-252"/>
<text text-anchor="middle" x="311.5" y="-231.5" font-family="sans" font-size="10.00">samtools_collate</text>
</g>
<!-- 23&#45;&gt;22 -->
<g id="edge27" class="edge">
<title>23&#45;&gt;22</title>
<path fill="none" stroke="grey" stroke-width="2" d="M328.8,-215.7C337.36,-207.14 347.84,-196.66 357.2,-187.3"/>
<polygon fill="grey" stroke="grey" stroke-width="2" points="359.8,-189.65 364.4,-180.1 354.85,-184.7 359.8,-189.65"/>
</g>
<!-- 24&#45;&gt;23 -->
<g id="edge29" class="edge">
<title>24&#45;&gt;23</title>
<path fill="none" stroke="grey" stroke-width="2" d="M309.99,-287.7C310.21,-279.98 310.48,-270.71 310.73,-262.11"/>
<polygon fill="grey" stroke="grey" stroke-width="2" points="314.22,-262.2 311.01,-252.1 307.23,-262 314.22,-262.2"/>
</g>
<!-- 25 -->
<g id="node26" class="node">
<title>25</title>
<path fill="none" stroke="#afd856" stroke-width="2" d="M144,-396C144,-396 91,-396 91,-396 85,-396 79,-390 79,-384 79,-384 79,-372 79,-372 79,-366 85,-360 91,-360 91,-360 144,-360 144,-360 150,-360 156,-366 156,-372 156,-372 156,-384 156,-384 156,-390 150,-396 144,-396"/>
<text text-anchor="middle" x="117.5" y="-375.5" font-family="sans" font-size="10.00">untar_fastqs</text>
</g>
<!-- 25&#45;&gt;24 -->
<g id="edge30" class="edge">
<title>25&#45;&gt;24</title>
<path fill="none" stroke="grey" stroke-width="2" d="M156.35,-362.83C184.16,-352.7 222.02,-338.89 253.14,-327.55"/>
<polygon fill="grey" stroke="grey" stroke-width="2" points="254.37,-330.83 262.56,-324.11 251.97,-324.25 254.37,-330.83"/>
</g>
<!-- 26 -->
<g id="node27" class="node">
<title>26</title>
<path fill="none" stroke="#d6d856" stroke-width="2" d="M169,-468C169,-468 12,-468 12,-468 6,-468 0,-462 0,-456 0,-456 0,-444 0,-444 0,-438 6,-432 12,-432 12,-432 169,-432 169,-432 175,-432 181,-438 181,-444 181,-444 181,-456 181,-456 181,-462 175,-468 169,-468"/>
<text text-anchor="middle" x="90.5" y="-453" font-family="sans" font-size="10.00">download_fastqs</text>
<text text-anchor="middle" x="90.5" y="-442" font-family="sans" font-size="10.00">s: 500_PBMC_3p_LT_Chromium_X</text>
</g>
<!-- 26&#45;&gt;25 -->
<g id="edge33" class="edge">
<title>26&#45;&gt;25</title>
<path fill="none" stroke="grey" stroke-width="2" d="M97.17,-431.7C100.21,-423.81 103.88,-414.3 107.26,-405.55"/>
<polygon fill="grey" stroke="grey" stroke-width="2" points="110.57,-406.69 110.9,-396.1 104.04,-404.17 110.57,-406.69"/>
</g>
</g>
</svg>
