<?xml version="1.0" encoding="UTF-8" standalone="no"?>
<!DOCTYPE svg PUBLIC "-//W3C//DTD SVG 1.1//EN"
 "http://www.w3.org/Graphics/SVG/1.1/DTD/svg11.dtd">
<!-- Generated by graphviz version 2.49.3 (20211104.1129)
 -->
<!-- Title: snakemake_dag Pages: 1 -->
<svg width="1081pt" height="620pt"
 viewBox="0.00 0.00 1081.00 620.00" xmlns="http://www.w3.org/2000/svg" xmlns:xlink="http://www.w3.org/1999/xlink">
<g id="graph0" class="graph" transform="scale(1 1) rotate(0) translate(4 616)">
<title>snakemake_dag</title>
<polygon fill="white" stroke="transparent" points="-4,4 -4,-616 1077,-616 1077,4 -4,4"/>
<!-- 0 -->
<g id="node1" class="node">
<title>0</title>
<path fill="none" stroke="#d8c356" stroke-width="2" d="M623.5,-36C623.5,-36 593.5,-36 593.5,-36 587.5,-36 581.5,-30 581.5,-24 581.5,-24 581.5,-12 581.5,-12 581.5,-6 587.5,0 593.5,0 593.5,0 623.5,0 623.5,0 629.5,0 635.5,-6 635.5,-12 635.5,-12 635.5,-24 635.5,-24 635.5,-30 629.5,-36 623.5,-36"/>
<text text-anchor="middle" x="608.5" y="-15.5" font-family="sans" font-size="10.00">all</text>
</g>
<!-- 1 -->
<g id="node2" class="node">
<title>1</title>
<path fill="none" stroke="#56a2d8" stroke-width="2" d="M320.5,-108C320.5,-108 240.5,-108 240.5,-108 234.5,-108 228.5,-102 228.5,-96 228.5,-96 228.5,-84 228.5,-84 228.5,-78 234.5,-72 240.5,-72 240.5,-72 320.5,-72 320.5,-72 326.5,-72 332.5,-78 332.5,-84 332.5,-84 332.5,-96 332.5,-96 332.5,-102 326.5,-108 320.5,-108"/>
<text text-anchor="middle" x="280.5" y="-87.5" font-family="sans" font-size="10.00">sample_complete</text>
</g>
<!-- 1&#45;&gt;0 -->
<g id="edge1" class="edge">
<title>1&#45;&gt;0</title>
<path fill="none" stroke="grey" stroke-width="2" d="M332.84,-77.83C399.55,-63.59 513.21,-39.34 571.55,-26.89"/>
<polygon fill="grey" stroke="grey" stroke-width="2" points="572.39,-30.29 581.44,-24.78 570.93,-23.44 572.39,-30.29"/>
</g>
<!-- 2 -->
<g id="node3" class="node">
<title>2</title>
<path fill="none" stroke="#d8a456" stroke-width="2" d="M337,-252C337,-252 224,-252 224,-252 218,-252 212,-246 212,-240 212,-240 212,-228 212,-228 212,-222 218,-216 224,-216 224,-216 337,-216 337,-216 343,-216 349,-222 349,-228 349,-228 349,-240 349,-240 349,-246 343,-252 337,-252"/>
<text text-anchor="middle" x="280.5" y="-231.5" font-family="sans" font-size="10.00">stellarscope_pseudobulk</text>
</g>
<!-- 2&#45;&gt;1 -->
<g id="edge4" class="edge">
<title>2&#45;&gt;1</title>
<path fill="none" stroke="grey" stroke-width="2" d="M280.5,-215.87C280.5,-191.67 280.5,-147.21 280.5,-118.39"/>
<polygon fill="grey" stroke="grey" stroke-width="2" points="284,-118.19 280.5,-108.19 277,-118.19 284,-118.19"/>
</g>
<!-- 3 -->
<g id="node4" class="node">
<title>3</title>
<path fill="none" stroke="#56d8c9" stroke-width="2" d="M270.5,-324C270.5,-324 194.5,-324 194.5,-324 188.5,-324 182.5,-318 182.5,-312 182.5,-312 182.5,-300 182.5,-300 182.5,-294 188.5,-288 194.5,-288 194.5,-288 270.5,-288 270.5,-288 276.5,-288 282.5,-294 282.5,-300 282.5,-300 282.5,-312 282.5,-312 282.5,-318 276.5,-324 270.5,-324"/>
<text text-anchor="middle" x="232.5" y="-303.5" font-family="sans" font-size="10.00">samtools_collate</text>
</g>
<!-- 3&#45;&gt;2 -->
<g id="edge6" class="edge">
<title>3&#45;&gt;2</title>
<path fill="none" stroke="grey" stroke-width="2" d="M244.37,-287.7C250,-279.47 256.85,-269.48 263.07,-260.42"/>
<polygon fill="grey" stroke="grey" stroke-width="2" points="266,-262.33 268.77,-252.1 260.23,-258.37 266,-262.33"/>
</g>
<!-- 16 -->
<g id="node17" class="node">
<title>16</title>
<path fill="none" stroke="#59d856" stroke-width="2" d="M181.5,-252C181.5,-252 147.5,-252 147.5,-252 141.5,-252 135.5,-246 135.5,-240 135.5,-240 135.5,-228 135.5,-228 135.5,-222 141.5,-216 147.5,-216 147.5,-216 181.5,-216 181.5,-216 187.5,-216 193.5,-222 193.5,-228 193.5,-228 193.5,-240 193.5,-240 193.5,-246 187.5,-252 181.5,-252"/>
<text text-anchor="middle" x="164.5" y="-231.5" font-family="sans" font-size="10.00">cell_sort</text>
</g>
<!-- 3&#45;&gt;16 -->
<g id="edge23" class="edge">
<title>3&#45;&gt;16</title>
<path fill="none" stroke="grey" stroke-width="2" d="M215.69,-287.7C207.37,-279.14 197.19,-268.66 188.11,-259.3"/>
<polygon fill="grey" stroke="grey" stroke-width="2" points="190.59,-256.84 181.12,-252.1 185.57,-261.72 190.59,-256.84"/>
</g>
<!-- 4 -->
<g id="node5" class="node">
<title>4</title>
<path fill="none" stroke="#d87d56" stroke-width="2" d="M275.5,-396C275.5,-396 189.5,-396 189.5,-396 183.5,-396 177.5,-390 177.5,-384 177.5,-384 177.5,-372 177.5,-372 177.5,-366 183.5,-360 189.5,-360 189.5,-360 275.5,-360 275.5,-360 281.5,-360 287.5,-366 287.5,-372 287.5,-372 287.5,-384 287.5,-384 287.5,-390 281.5,-396 275.5,-396"/>
<text text-anchor="middle" x="232.5" y="-375.5" font-family="sans" font-size="10.00">starsolo_alignment</text>
</g>
<!-- 4&#45;&gt;2 -->
<g id="edge8" class="edge">
<title>4&#45;&gt;2</title>
<path fill="none" stroke="grey" stroke-width="2" d="M260.3,-359.87C272.27,-350.84 285,-338.59 291.5,-324 300.23,-304.42 296.38,-280.14 290.97,-261.89"/>
<polygon fill="grey" stroke="grey" stroke-width="2" points="294.22,-260.59 287.77,-252.19 287.57,-262.78 294.22,-260.59"/>
</g>
<!-- 4&#45;&gt;3 -->
<g id="edge9" class="edge">
<title>4&#45;&gt;3</title>
<path fill="none" stroke="grey" stroke-width="2" d="M232.5,-359.7C232.5,-351.98 232.5,-342.71 232.5,-334.11"/>
<polygon fill="grey" stroke="grey" stroke-width="2" points="236,-334.1 232.5,-324.1 229,-334.1 236,-334.1"/>
</g>
<!-- 15 -->
<g id="node16" class="node">
<title>15</title>
<path fill="none" stroke="#56c9d8" stroke-width="2" d="M229,-180C229,-180 124,-180 124,-180 118,-180 112,-174 112,-168 112,-168 112,-156 112,-156 112,-150 118,-144 124,-144 124,-144 229,-144 229,-144 235,-144 241,-150 241,-156 241,-156 241,-168 241,-168 241,-174 235,-180 229,-180"/>
<text text-anchor="middle" x="176.5" y="-159.5" font-family="sans" font-size="10.00">stellarscope_individual</text>
</g>
<!-- 4&#45;&gt;15 -->
<g id="edge22" class="edge">
<title>4&#45;&gt;15</title>
<path fill="none" stroke="grey" stroke-width="2" d="M202.8,-359.96C188.62,-350.72 172.24,-338.26 160.5,-324 138.01,-296.68 134.24,-286.53 126.5,-252 123,-236.39 120.59,-230.87 126.5,-216 130.79,-205.2 138.44,-195.32 146.49,-187.1"/>
<polygon fill="grey" stroke="grey" stroke-width="2" points="149.08,-189.47 153.9,-180.04 144.25,-184.4 149.08,-189.47"/>
</g>
<!-- 4&#45;&gt;16 -->
<g id="edge24" class="edge">
<title>4&#45;&gt;16</title>
<path fill="none" stroke="grey" stroke-width="2" d="M205.66,-359.8C193.74,-350.67 180.79,-338.36 173.5,-324 163.8,-304.9 161.94,-280.55 162.29,-262.14"/>
<polygon fill="grey" stroke="grey" stroke-width="2" points="165.79,-262.22 162.71,-252.08 158.79,-261.93 165.79,-262.22"/>
</g>
<!-- 5 -->
<g id="node6" class="node">
<title>5</title>
<path fill="none" stroke="#c6d856" stroke-width="2" d="M195,-468C195,-468 142,-468 142,-468 136,-468 130,-462 130,-456 130,-456 130,-444 130,-444 130,-438 136,-432 142,-432 142,-432 195,-432 195,-432 201,-432 207,-438 207,-444 207,-444 207,-456 207,-456 207,-462 201,-468 195,-468"/>
<text text-anchor="middle" x="168.5" y="-447.5" font-family="sans" font-size="10.00">untar_fastqs</text>
</g>
<!-- 5&#45;&gt;4 -->
<g id="edge10" class="edge">
<title>5&#45;&gt;4</title>
<path fill="none" stroke="grey" stroke-width="2" d="M184.32,-431.7C192.07,-423.22 201.54,-412.86 210.02,-403.58"/>
<polygon fill="grey" stroke="grey" stroke-width="2" points="212.7,-405.85 216.86,-396.1 207.53,-401.12 212.7,-405.85"/>
</g>
<!-- 6 -->
<g id="node7" class="node">
<title>6</title>
<path fill="none" stroke="#56d8a2" stroke-width="2" d="M221,-540C221,-540 12,-540 12,-540 6,-540 0,-534 0,-528 0,-528 0,-516 0,-516 0,-510 6,-504 12,-504 12,-504 221,-504 221,-504 227,-504 233,-510 233,-516 233,-516 233,-528 233,-528 233,-534 227,-540 221,-540"/>
<text text-anchor="middle" x="116.5" y="-525" font-family="sans" font-size="10.00">download_fastqs</text>
<text text-anchor="middle" x="116.5" y="-514" font-family="sans" font-size="10.00">s: 20k_PBMC_3p_HT_nextgem_Chromium_X</text>
</g>
<!-- 6&#45;&gt;5 -->
<g id="edge13" class="edge">
<title>6&#45;&gt;5</title>
<path fill="none" stroke="grey" stroke-width="2" d="M129.35,-503.7C135.53,-495.39 143.04,-485.28 149.82,-476.14"/>
<polygon fill="grey" stroke="grey" stroke-width="2" points="152.64,-478.22 155.79,-468.1 147.02,-474.04 152.64,-478.22"/>
</g>
<!-- 7 -->
<g id="node8" class="node">
<title>7</title>
<path fill="none" stroke="#78d856" stroke-width="2" d="M393,-468C393,-468 304,-468 304,-468 298,-468 292,-462 292,-456 292,-456 292,-444 292,-444 292,-438 298,-432 304,-432 304,-432 393,-432 393,-432 399,-432 405,-438 405,-444 405,-444 405,-456 405,-456 405,-462 399,-468 393,-468"/>
<text text-anchor="middle" x="348.5" y="-447.5" font-family="sans" font-size="10.00">index_genome_star</text>
</g>
<!-- 7&#45;&gt;4 -->
<g id="edge11" class="edge">
<title>7&#45;&gt;4</title>
<path fill="none" stroke="grey" stroke-width="2" d="M320.12,-431.88C304.96,-422.72 286.09,-411.34 269.76,-401.48"/>
<polygon fill="grey" stroke="grey" stroke-width="2" points="271.36,-398.36 260.99,-396.19 267.74,-404.35 271.36,-398.36"/>
</g>
<!-- 20 -->
<g id="node21" class="node">
<title>20</title>
<path fill="none" stroke="#d87d56" stroke-width="2" d="M697.5,-396C697.5,-396 611.5,-396 611.5,-396 605.5,-396 599.5,-390 599.5,-384 599.5,-384 599.5,-372 599.5,-372 599.5,-366 605.5,-360 611.5,-360 611.5,-360 697.5,-360 697.5,-360 703.5,-360 709.5,-366 709.5,-372 709.5,-372 709.5,-384 709.5,-384 709.5,-390 703.5,-396 697.5,-396"/>
<text text-anchor="middle" x="654.5" y="-375.5" font-family="sans" font-size="10.00">starsolo_alignment</text>
</g>
<!-- 7&#45;&gt;20 -->
<g id="edge32" class="edge">
<title>7&#45;&gt;20</title>
<path fill="none" stroke="grey" stroke-width="2" d="M405.38,-437.28C452.22,-427.46 520.6,-412.75 589.25,-396.25"/>
<polygon fill="grey" stroke="grey" stroke-width="2" points="590.48,-399.56 599.38,-393.81 588.84,-392.75 590.48,-399.56"/>
</g>
<!-- 28 -->
<g id="node29" class="node">
<title>28</title>
<path fill="none" stroke="#d87d56" stroke-width="2" d="M903.5,-396C903.5,-396 817.5,-396 817.5,-396 811.5,-396 805.5,-390 805.5,-384 805.5,-384 805.5,-372 805.5,-372 805.5,-366 811.5,-360 817.5,-360 817.5,-360 903.5,-360 903.5,-360 909.5,-360 915.5,-366 915.5,-372 915.5,-372 915.5,-384 915.5,-384 915.5,-390 909.5,-396 903.5,-396"/>
<text text-anchor="middle" x="860.5" y="-375.5" font-family="sans" font-size="10.00">starsolo_alignment</text>
</g>
<!-- 7&#45;&gt;28 -->
<g id="edge47" class="edge">
<title>7&#45;&gt;28</title>
<path fill="none" stroke="grey" stroke-width="2" d="M405.25,-441.24C501.03,-428.15 694.19,-401.74 795.35,-387.91"/>
<polygon fill="grey" stroke="grey" stroke-width="2" points="796.01,-391.35 805.44,-386.53 795.06,-384.41 796.01,-391.35"/>
</g>
<!-- 8 -->
<g id="node9" class="node">
<title>8</title>
<path fill="none" stroke="#d85656" stroke-width="2" d="M465,-540C465,-540 402,-540 402,-540 396,-540 390,-534 390,-528 390,-528 390,-516 390,-516 390,-510 396,-504 402,-504 402,-504 465,-504 465,-504 471,-504 477,-510 477,-516 477,-516 477,-528 477,-528 477,-534 471,-540 465,-540"/>
<text text-anchor="middle" x="433.5" y="-519.5" font-family="sans" font-size="10.00">untar_genome</text>
</g>
<!-- 8&#45;&gt;7 -->
<g id="edge14" class="edge">
<title>8&#45;&gt;7</title>
<path fill="none" stroke="grey" stroke-width="2" d="M412.49,-503.7C401.78,-494.88 388.61,-484.03 377,-474.47"/>
<polygon fill="grey" stroke="grey" stroke-width="2" points="379.21,-471.76 369.27,-468.1 374.76,-477.16 379.21,-471.76"/>
</g>
<!-- 13 -->
<g id="node14" class="node">
<title>13</title>
<path fill="none" stroke="#567bd8" stroke-width="2" d="M487.5,-324C487.5,-324 389.5,-324 389.5,-324 383.5,-324 377.5,-318 377.5,-312 377.5,-312 377.5,-300 377.5,-300 377.5,-294 383.5,-288 389.5,-288 389.5,-288 487.5,-288 487.5,-288 493.5,-288 499.5,-294 499.5,-300 499.5,-300 499.5,-312 499.5,-312 499.5,-318 493.5,-324 487.5,-324"/>
<text text-anchor="middle" x="438.5" y="-303.5" font-family="sans" font-size="10.00">telescope_annotation</text>
</g>
<!-- 8&#45;&gt;13 -->
<g id="edge19" class="edge">
<title>8&#45;&gt;13</title>
<path fill="none" stroke="grey" stroke-width="2" d="M433.9,-503.85C434.77,-466.83 436.81,-379.18 437.86,-334.39"/>
<polygon fill="grey" stroke="grey" stroke-width="2" points="441.36,-334.31 438.1,-324.23 434.36,-334.15 441.36,-334.31"/>
</g>
<!-- 9 -->
<g id="node10" class="node">
<title>9</title>
<path fill="none" stroke="#56d87b" stroke-width="2" d="M481,-612C481,-612 386,-612 386,-612 380,-612 374,-606 374,-600 374,-600 374,-588 374,-588 374,-582 380,-576 386,-576 386,-576 481,-576 481,-576 487,-576 493,-582 493,-588 493,-588 493,-600 493,-600 493,-606 487,-612 481,-612"/>
<text text-anchor="middle" x="433.5" y="-597" font-family="sans" font-size="10.00">download_remote</text>
<text text-anchor="middle" x="433.5" y="-586" font-family="sans" font-size="10.00">file: GRCh38.fa.tar.gz</text>
</g>
<!-- 9&#45;&gt;8 -->
<g id="edge16" class="edge">
<title>9&#45;&gt;8</title>
<path fill="none" stroke="grey" stroke-width="2" d="M433.5,-575.7C433.5,-567.98 433.5,-558.71 433.5,-550.11"/>
<polygon fill="grey" stroke="grey" stroke-width="2" points="437,-550.1 433.5,-540.1 430,-550.1 437,-550.1"/>
</g>
<!-- 10 -->
<g id="node11" class="node">
<title>10</title>
<path fill="none" stroke="#56d87b" stroke-width="2" d="M360,-540C360,-540 263,-540 263,-540 257,-540 251,-534 251,-528 251,-528 251,-516 251,-516 251,-510 257,-504 263,-504 263,-504 360,-504 360,-504 366,-504 372,-510 372,-516 372,-516 372,-528 372,-528 372,-534 366,-540 360,-540"/>
<text text-anchor="middle" x="311.5" y="-525" font-family="sans" font-size="10.00">download_remote</text>
<text text-anchor="middle" x="311.5" y="-514" font-family="sans" font-size="10.00">file: gencode38.gtf.gz</text>
</g>
<!-- 10&#45;&gt;7 -->
<g id="edge15" class="edge">
<title>10&#45;&gt;7</title>
<path fill="none" stroke="grey" stroke-width="2" d="M320.65,-503.7C324.9,-495.64 330.06,-485.89 334.77,-476.98"/>
<polygon fill="grey" stroke="grey" stroke-width="2" points="337.88,-478.58 339.46,-468.1 331.69,-475.31 337.88,-478.58"/>
</g>
<!-- 11 -->
<g id="node12" class="node">
<title>11</title>
<path fill="none" stroke="#9fd856" stroke-width="2" d="M639.5,-468C639.5,-468 583.5,-468 583.5,-468 577.5,-468 571.5,-462 571.5,-456 571.5,-456 571.5,-444 571.5,-444 571.5,-438 577.5,-432 583.5,-432 583.5,-432 639.5,-432 639.5,-432 645.5,-432 651.5,-438 651.5,-444 651.5,-444 651.5,-456 651.5,-456 651.5,-462 645.5,-468 639.5,-468"/>
<text text-anchor="middle" x="611.5" y="-447.5" font-family="sans" font-size="10.00">get_whitelist</text>
</g>
<!-- 11&#45;&gt;4 -->
<g id="edge12" class="edge">
<title>11&#45;&gt;4</title>
<path fill="none" stroke="grey" stroke-width="2" d="M571.3,-441.58C506.03,-429.52 376.4,-405.58 297.78,-391.06"/>
<polygon fill="grey" stroke="grey" stroke-width="2" points="297.97,-387.53 287.5,-389.16 296.7,-394.42 297.97,-387.53"/>
</g>
<!-- 11&#45;&gt;20 -->
<g id="edge33" class="edge">
<title>11&#45;&gt;20</title>
<path fill="none" stroke="grey" stroke-width="2" d="M622.13,-431.7C627.13,-423.56 633.19,-413.69 638.71,-404.7"/>
<polygon fill="grey" stroke="grey" stroke-width="2" points="641.74,-406.46 643.99,-396.1 635.78,-402.79 641.74,-406.46"/>
</g>
<!-- 11&#45;&gt;28 -->
<g id="edge48" class="edge">
<title>11&#45;&gt;28</title>
<path fill="none" stroke="grey" stroke-width="2" d="M651.51,-437.75C690.31,-426.84 749.86,-410.1 795.48,-397.28"/>
<polygon fill="grey" stroke="grey" stroke-width="2" points="796.6,-400.6 805.28,-394.52 794.71,-393.86 796.6,-400.6"/>
</g>
<!-- 12 -->
<g id="node13" class="node">
<title>12</title>
<path fill="none" stroke="#56d87b" stroke-width="2" d="M629.5,-540C629.5,-540 507.5,-540 507.5,-540 501.5,-540 495.5,-534 495.5,-528 495.5,-528 495.5,-516 495.5,-516 495.5,-510 501.5,-504 507.5,-504 507.5,-504 629.5,-504 629.5,-504 635.5,-504 641.5,-510 641.5,-516 641.5,-516 641.5,-528 641.5,-528 641.5,-534 635.5,-540 629.5,-540"/>
<text text-anchor="middle" x="568.5" y="-525" font-family="sans" font-size="10.00">download_remote</text>
<text text-anchor="middle" x="568.5" y="-514" font-family="sans" font-size="10.00">file: whitelist.10x.v3.txt.gz</text>
</g>
<!-- 12&#45;&gt;11 -->
<g id="edge17" class="edge">
<title>12&#45;&gt;11</title>
<path fill="none" stroke="grey" stroke-width="2" d="M579.13,-503.7C584.13,-495.56 590.19,-485.69 595.71,-476.7"/>
<polygon fill="grey" stroke="grey" stroke-width="2" points="598.74,-478.46 600.99,-468.1 592.78,-474.79 598.74,-478.46"/>
</g>
<!-- 13&#45;&gt;2 -->
<g id="edge7" class="edge">
<title>13&#45;&gt;2</title>
<path fill="none" stroke="grey" stroke-width="2" d="M399.85,-287.88C378.25,-278.31 351.15,-266.3 328.23,-256.15"/>
<polygon fill="grey" stroke="grey" stroke-width="2" points="329.59,-252.92 319.03,-252.07 326.75,-259.32 329.59,-252.92"/>
</g>
<!-- 13&#45;&gt;15 -->
<g id="edge21" class="edge">
<title>13&#45;&gt;15</title>
<path fill="none" stroke="grey" stroke-width="2" d="M427.41,-287.99C413.45,-267.9 387.62,-234.83 357.5,-216 325.41,-195.94 285.39,-183.19 251.16,-175.24"/>
<polygon fill="grey" stroke="grey" stroke-width="2" points="251.72,-171.78 241.2,-173.02 250.2,-178.61 251.72,-171.78"/>
</g>
<!-- 18 -->
<g id="node19" class="node">
<title>18</title>
<path fill="none" stroke="#d8a456" stroke-width="2" d="M607,-252C607,-252 494,-252 494,-252 488,-252 482,-246 482,-240 482,-240 482,-228 482,-228 482,-222 488,-216 494,-216 494,-216 607,-216 607,-216 613,-216 619,-222 619,-228 619,-228 619,-240 619,-240 619,-246 613,-252 607,-252"/>
<text text-anchor="middle" x="550.5" y="-231.5" font-family="sans" font-size="10.00">stellarscope_pseudobulk</text>
</g>
<!-- 13&#45;&gt;18 -->
<g id="edge28" class="edge">
<title>13&#45;&gt;18</title>
<path fill="none" stroke="grey" stroke-width="2" d="M465.9,-287.88C480.41,-278.81 498.42,-267.55 514.09,-257.76"/>
<polygon fill="grey" stroke="grey" stroke-width="2" points="516.37,-260.46 523,-252.19 512.66,-254.52 516.37,-260.46"/>
</g>
<!-- 23 -->
<g id="node24" class="node">
<title>23</title>
<path fill="none" stroke="#56c9d8" stroke-width="2" d="M713,-180C713,-180 608,-180 608,-180 602,-180 596,-174 596,-168 596,-168 596,-156 596,-156 596,-150 602,-144 608,-144 608,-144 713,-144 713,-144 719,-144 725,-150 725,-156 725,-156 725,-168 725,-168 725,-174 719,-180 713,-180"/>
<text text-anchor="middle" x="660.5" y="-159.5" font-family="sans" font-size="10.00">stellarscope_individual</text>
</g>
<!-- 13&#45;&gt;23 -->
<g id="edge36" class="edge">
<title>13&#45;&gt;23</title>
<path fill="none" stroke="grey" stroke-width="2" d="M433.03,-287.87C427.94,-268.28 423.31,-236.29 439.5,-216 457.75,-193.12 529.06,-178.96 585.8,-171.1"/>
<polygon fill="grey" stroke="grey" stroke-width="2" points="586.41,-174.55 595.85,-169.75 585.48,-167.61 586.41,-174.55"/>
</g>
<!-- 26 -->
<g id="node27" class="node">
<title>26</title>
<path fill="none" stroke="#d8a456" stroke-width="2" d="M877,-252C877,-252 764,-252 764,-252 758,-252 752,-246 752,-240 752,-240 752,-228 752,-228 752,-222 758,-216 764,-216 764,-216 877,-216 877,-216 883,-216 889,-222 889,-228 889,-228 889,-240 889,-240 889,-246 883,-252 877,-252"/>
<text text-anchor="middle" x="820.5" y="-231.5" font-family="sans" font-size="10.00">stellarscope_pseudobulk</text>
</g>
<!-- 13&#45;&gt;26 -->
<g id="edge43" class="edge">
<title>13&#45;&gt;26</title>
<path fill="none" stroke="grey" stroke-width="2" d="M499.87,-293.75C565.64,-281.7 670.23,-262.54 741.96,-249.39"/>
<polygon fill="grey" stroke="grey" stroke-width="2" points="742.65,-252.82 751.85,-247.58 741.39,-245.94 742.65,-252.82"/>
</g>
<!-- 31 -->
<g id="node32" class="node">
<title>31</title>
<path fill="none" stroke="#56c9d8" stroke-width="2" d="M977,-180C977,-180 872,-180 872,-180 866,-180 860,-174 860,-168 860,-168 860,-156 860,-156 860,-150 866,-144 872,-144 872,-144 977,-144 977,-144 983,-144 989,-150 989,-156 989,-156 989,-168 989,-168 989,-174 983,-180 977,-180"/>
<text text-anchor="middle" x="924.5" y="-159.5" font-family="sans" font-size="10.00">stellarscope_individual</text>
</g>
<!-- 13&#45;&gt;31 -->
<g id="edge51" class="edge">
<title>13&#45;&gt;31</title>
<path fill="none" stroke="grey" stroke-width="2" d="M439.87,-287.83C442.51,-267.25 450.18,-233.37 472.5,-216 487.19,-204.57 725.19,-181.25 849.77,-169.74"/>
<polygon fill="grey" stroke="grey" stroke-width="2" points="850.36,-173.2 860,-168.79 849.72,-166.22 850.36,-173.2"/>
</g>
<!-- 14 -->
<g id="node15" class="node">
<title>14</title>
<path fill="none" stroke="#56d87b" stroke-width="2" d="M569,-396C569,-396 474,-396 474,-396 468,-396 462,-390 462,-384 462,-384 462,-372 462,-372 462,-366 468,-360 474,-360 474,-360 569,-360 569,-360 575,-360 581,-366 581,-372 581,-372 581,-384 581,-384 581,-390 575,-396 569,-396"/>
<text text-anchor="middle" x="521.5" y="-381" font-family="sans" font-size="10.00">download_remote</text>
<text text-anchor="middle" x="521.5" y="-370" font-family="sans" font-size="10.00">file: retro.hg38.v1.gtf</text>
</g>
<!-- 14&#45;&gt;13 -->
<g id="edge18" class="edge">
<title>14&#45;&gt;13</title>
<path fill="none" stroke="grey" stroke-width="2" d="M500.98,-359.7C490.63,-350.97 477.91,-340.24 466.66,-330.75"/>
<polygon fill="grey" stroke="grey" stroke-width="2" points="468.68,-327.88 458.78,-324.1 464.17,-333.23 468.68,-327.88"/>
</g>
<!-- 15&#45;&gt;1 -->
<g id="edge5" class="edge">
<title>15&#45;&gt;1</title>
<path fill="none" stroke="grey" stroke-width="2" d="M201.94,-143.88C215.29,-134.89 231.82,-123.76 246.28,-114.03"/>
<polygon fill="grey" stroke="grey" stroke-width="2" points="248.62,-116.68 254.96,-108.19 244.71,-110.87 248.62,-116.68"/>
</g>
<!-- 16&#45;&gt;15 -->
<g id="edge20" class="edge">
<title>16&#45;&gt;15</title>
<path fill="none" stroke="grey" stroke-width="2" d="M167.47,-215.7C168.79,-207.98 170.38,-198.71 171.85,-190.11"/>
<polygon fill="grey" stroke="grey" stroke-width="2" points="175.33,-190.55 173.57,-180.1 168.43,-189.37 175.33,-190.55"/>
</g>
<!-- 17 -->
<g id="node18" class="node">
<title>17</title>
<path fill="none" stroke="#56a2d8" stroke-width="2" d="M648.5,-108C648.5,-108 568.5,-108 568.5,-108 562.5,-108 556.5,-102 556.5,-96 556.5,-96 556.5,-84 556.5,-84 556.5,-78 562.5,-72 568.5,-72 568.5,-72 648.5,-72 648.5,-72 654.5,-72 660.5,-78 660.5,-84 660.5,-84 660.5,-96 660.5,-96 660.5,-102 654.5,-108 648.5,-108"/>
<text text-anchor="middle" x="608.5" y="-87.5" font-family="sans" font-size="10.00">sample_complete</text>
</g>
<!-- 17&#45;&gt;0 -->
<g id="edge2" class="edge">
<title>17&#45;&gt;0</title>
<path fill="none" stroke="grey" stroke-width="2" d="M608.5,-71.7C608.5,-63.98 608.5,-54.71 608.5,-46.11"/>
<polygon fill="grey" stroke="grey" stroke-width="2" points="612,-46.1 608.5,-36.1 605,-46.1 612,-46.1"/>
</g>
<!-- 18&#45;&gt;17 -->
<g id="edge25" class="edge">
<title>18&#45;&gt;17</title>
<path fill="none" stroke="grey" stroke-width="2" d="M557.5,-215.87C567.47,-191.46 585.86,-146.43 597.62,-117.64"/>
<polygon fill="grey" stroke="grey" stroke-width="2" points="600.94,-118.77 601.48,-108.19 594.46,-116.12 600.94,-118.77"/>
</g>
<!-- 19 -->
<g id="node20" class="node">
<title>19</title>
<path fill="none" stroke="#56d8c9" stroke-width="2" d="M645.5,-324C645.5,-324 569.5,-324 569.5,-324 563.5,-324 557.5,-318 557.5,-312 557.5,-312 557.5,-300 557.5,-300 557.5,-294 563.5,-288 569.5,-288 569.5,-288 645.5,-288 645.5,-288 651.5,-288 657.5,-294 657.5,-300 657.5,-300 657.5,-312 657.5,-312 657.5,-318 651.5,-324 645.5,-324"/>
<text text-anchor="middle" x="607.5" y="-303.5" font-family="sans" font-size="10.00">samtools_collate</text>
</g>
<!-- 19&#45;&gt;18 -->
<g id="edge27" class="edge">
<title>19&#45;&gt;18</title>
<path fill="none" stroke="grey" stroke-width="2" d="M593.41,-287.7C586.58,-279.3 578.24,-269.07 570.74,-259.86"/>
<polygon fill="grey" stroke="grey" stroke-width="2" points="573.46,-257.65 564.43,-252.1 568.03,-262.07 573.46,-257.65"/>
</g>
<!-- 24 -->
<g id="node25" class="node">
<title>24</title>
<path fill="none" stroke="#59d856" stroke-width="2" d="M683.5,-252C683.5,-252 649.5,-252 649.5,-252 643.5,-252 637.5,-246 637.5,-240 637.5,-240 637.5,-228 637.5,-228 637.5,-222 643.5,-216 649.5,-216 649.5,-216 683.5,-216 683.5,-216 689.5,-216 695.5,-222 695.5,-228 695.5,-228 695.5,-240 695.5,-240 695.5,-246 689.5,-252 683.5,-252"/>
<text text-anchor="middle" x="666.5" y="-231.5" font-family="sans" font-size="10.00">cell_sort</text>
</g>
<!-- 19&#45;&gt;24 -->
<g id="edge38" class="edge">
<title>19&#45;&gt;24</title>
<path fill="none" stroke="grey" stroke-width="2" d="M622.08,-287.7C629.16,-279.3 637.78,-269.07 645.55,-259.86"/>
<polygon fill="grey" stroke="grey" stroke-width="2" points="648.31,-262.01 652.08,-252.1 642.96,-257.49 648.31,-262.01"/>
</g>
<!-- 20&#45;&gt;18 -->
<g id="edge29" class="edge">
<title>20&#45;&gt;18</title>
<path fill="none" stroke="grey" stroke-width="2" d="M599.22,-362.62C579.73,-354.6 559.86,-342.38 548.5,-324 537.17,-305.67 538.78,-280.91 542.59,-262.16"/>
<polygon fill="grey" stroke="grey" stroke-width="2" points="546.05,-262.71 544.93,-252.17 539.24,-261.11 546.05,-262.71"/>
</g>
<!-- 20&#45;&gt;19 -->
<g id="edge30" class="edge">
<title>20&#45;&gt;19</title>
<path fill="none" stroke="grey" stroke-width="2" d="M642.88,-359.7C637.36,-351.47 630.65,-341.48 624.57,-332.42"/>
<polygon fill="grey" stroke="grey" stroke-width="2" points="627.46,-330.46 618.98,-324.1 621.65,-334.36 627.46,-330.46"/>
</g>
<!-- 20&#45;&gt;23 -->
<g id="edge37" class="edge">
<title>20&#45;&gt;23</title>
<path fill="none" stroke="grey" stroke-width="2" d="M664.17,-359.9C676.75,-336.46 697.91,-292.61 704.5,-252 707.06,-236.21 709.93,-231.05 704.5,-216 700.75,-205.6 693.96,-195.8 686.83,-187.52"/>
<polygon fill="grey" stroke="grey" stroke-width="2" points="689.33,-185.06 679.97,-180.08 684.18,-189.81 689.33,-185.06"/>
</g>
<!-- 20&#45;&gt;24 -->
<g id="edge39" class="edge">
<title>20&#45;&gt;24</title>
<path fill="none" stroke="grey" stroke-width="2" d="M659.37,-359.98C662.06,-349.67 665.14,-336.19 666.5,-324 668.8,-303.4 668.69,-279.95 668.07,-262.29"/>
<polygon fill="grey" stroke="grey" stroke-width="2" points="671.55,-261.96 667.62,-252.12 664.56,-262.27 671.55,-261.96"/>
</g>
<!-- 21 -->
<g id="node22" class="node">
<title>21</title>
<path fill="none" stroke="#c6d856" stroke-width="2" d="M790,-468C790,-468 737,-468 737,-468 731,-468 725,-462 725,-456 725,-456 725,-444 725,-444 725,-438 731,-432 737,-432 737,-432 790,-432 790,-432 796,-432 802,-438 802,-444 802,-444 802,-456 802,-456 802,-462 796,-468 790,-468"/>
<text text-anchor="middle" x="763.5" y="-447.5" font-family="sans" font-size="10.00">untar_fastqs</text>
</g>
<!-- 21&#45;&gt;20 -->
<g id="edge31" class="edge">
<title>21&#45;&gt;20</title>
<path fill="none" stroke="grey" stroke-width="2" d="M736.84,-431.88C722.72,-422.81 705.19,-411.55 689.94,-401.76"/>
<polygon fill="grey" stroke="grey" stroke-width="2" points="691.57,-398.65 681.27,-396.19 687.79,-404.54 691.57,-398.65"/>
</g>
<!-- 22 -->
<g id="node23" class="node">
<title>22</title>
<path fill="none" stroke="#56d8a2" stroke-width="2" d="M861.5,-540C861.5,-540 671.5,-540 671.5,-540 665.5,-540 659.5,-534 659.5,-528 659.5,-528 659.5,-516 659.5,-516 659.5,-510 665.5,-504 671.5,-504 671.5,-504 861.5,-504 861.5,-504 867.5,-504 873.5,-510 873.5,-516 873.5,-516 873.5,-528 873.5,-528 873.5,-534 867.5,-540 861.5,-540"/>
<text text-anchor="middle" x="766.5" y="-525" font-family="sans" font-size="10.00">download_fastqs</text>
<text text-anchor="middle" x="766.5" y="-514" font-family="sans" font-size="10.00">s: 10k_PBMC_3p_nextgem_Chromium_X</text>
</g>
<!-- 22&#45;&gt;21 -->
<g id="edge34" class="edge">
<title>22&#45;&gt;21</title>
<path fill="none" stroke="grey" stroke-width="2" d="M765.76,-503.7C765.43,-495.98 765.03,-486.71 764.66,-478.11"/>
<polygon fill="grey" stroke="grey" stroke-width="2" points="768.16,-477.95 764.23,-468.1 761.16,-478.25 768.16,-477.95"/>
</g>
<!-- 23&#45;&gt;17 -->
<g id="edge26" class="edge">
<title>23&#45;&gt;17</title>
<path fill="none" stroke="grey" stroke-width="2" d="M647.65,-143.7C641.47,-135.39 633.96,-125.28 627.18,-116.14"/>
<polygon fill="grey" stroke="grey" stroke-width="2" points="629.98,-114.04 621.21,-108.1 624.36,-118.22 629.98,-114.04"/>
</g>
<!-- 24&#45;&gt;23 -->
<g id="edge35" class="edge">
<title>24&#45;&gt;23</title>
<path fill="none" stroke="grey" stroke-width="2" d="M665.02,-215.7C664.36,-207.98 663.56,-198.71 662.82,-190.11"/>
<polygon fill="grey" stroke="grey" stroke-width="2" points="666.31,-189.77 661.97,-180.1 659.33,-190.37 666.31,-189.77"/>
</g>
<!-- 25 -->
<g id="node26" class="node">
<title>25</title>
<path fill="none" stroke="#56a2d8" stroke-width="2" d="M860.5,-108C860.5,-108 780.5,-108 780.5,-108 774.5,-108 768.5,-102 768.5,-96 768.5,-96 768.5,-84 768.5,-84 768.5,-78 774.5,-72 780.5,-72 780.5,-72 860.5,-72 860.5,-72 866.5,-72 872.5,-78 872.5,-84 872.5,-84 872.5,-96 872.5,-96 872.5,-102 866.5,-108 860.5,-108"/>
<text text-anchor="middle" x="820.5" y="-87.5" font-family="sans" font-size="10.00">sample_complete</text>
</g>
<!-- 25&#45;&gt;0 -->
<g id="edge3" class="edge">
<title>25&#45;&gt;0</title>
<path fill="none" stroke="grey" stroke-width="2" d="M768.91,-71.97C730.65,-59.33 679.41,-42.41 645.24,-31.13"/>
<polygon fill="grey" stroke="grey" stroke-width="2" points="646.25,-27.78 635.65,-27.97 644.05,-34.42 646.25,-27.78"/>
</g>
<!-- 26&#45;&gt;25 -->
<g id="edge40" class="edge">
<title>26&#45;&gt;25</title>
<path fill="none" stroke="grey" stroke-width="2" d="M820.5,-215.87C820.5,-191.67 820.5,-147.21 820.5,-118.39"/>
<polygon fill="grey" stroke="grey" stroke-width="2" points="824,-118.19 820.5,-108.19 817,-118.19 824,-118.19"/>
</g>
<!-- 27 -->
<g id="node28" class="node">
<title>27</title>
<path fill="none" stroke="#56d8c9" stroke-width="2" d="M898.5,-324C898.5,-324 822.5,-324 822.5,-324 816.5,-324 810.5,-318 810.5,-312 810.5,-312 810.5,-300 810.5,-300 810.5,-294 816.5,-288 822.5,-288 822.5,-288 898.5,-288 898.5,-288 904.5,-288 910.5,-294 910.5,-300 910.5,-300 910.5,-312 910.5,-312 910.5,-318 904.5,-324 898.5,-324"/>
<text text-anchor="middle" x="860.5" y="-303.5" font-family="sans" font-size="10.00">samtools_collate</text>
</g>
<!-- 27&#45;&gt;26 -->
<g id="edge42" class="edge">
<title>27&#45;&gt;26</title>
<path fill="none" stroke="grey" stroke-width="2" d="M850.61,-287.7C846.01,-279.64 840.44,-269.89 835.35,-260.98"/>
<polygon fill="grey" stroke="grey" stroke-width="2" points="838.27,-259.05 830.27,-252.1 832.2,-262.52 838.27,-259.05"/>
</g>
<!-- 32 -->
<g id="node33" class="node">
<title>32</title>
<path fill="none" stroke="#59d856" stroke-width="2" d="M953.5,-252C953.5,-252 919.5,-252 919.5,-252 913.5,-252 907.5,-246 907.5,-240 907.5,-240 907.5,-228 907.5,-228 907.5,-222 913.5,-216 919.5,-216 919.5,-216 953.5,-216 953.5,-216 959.5,-216 965.5,-222 965.5,-228 965.5,-228 965.5,-240 965.5,-240 965.5,-246 959.5,-252 953.5,-252"/>
<text text-anchor="middle" x="936.5" y="-231.5" font-family="sans" font-size="10.00">cell_sort</text>
</g>
<!-- 27&#45;&gt;32 -->
<g id="edge53" class="edge">
<title>27&#45;&gt;32</title>
<path fill="none" stroke="grey" stroke-width="2" d="M879.29,-287.7C888.67,-279.05 900.18,-268.45 910.41,-259.03"/>
<polygon fill="grey" stroke="grey" stroke-width="2" points="912.95,-261.45 917.93,-252.1 908.2,-256.3 912.95,-261.45"/>
</g>
<!-- 28&#45;&gt;26 -->
<g id="edge44" class="edge">
<title>28&#45;&gt;26</title>
<path fill="none" stroke="grey" stroke-width="2" d="M832.7,-359.87C820.73,-350.84 808,-338.59 801.5,-324 792.55,-303.94 798.93,-279.42 806.62,-261.2"/>
<polygon fill="grey" stroke="grey" stroke-width="2" points="809.83,-262.6 810.81,-252.05 803.47,-259.68 809.83,-262.6"/>
</g>
<!-- 28&#45;&gt;27 -->
<g id="edge45" class="edge">
<title>28&#45;&gt;27</title>
<path fill="none" stroke="grey" stroke-width="2" d="M860.5,-359.7C860.5,-351.98 860.5,-342.71 860.5,-334.11"/>
<polygon fill="grey" stroke="grey" stroke-width="2" points="864,-334.1 860.5,-324.1 857,-334.1 864,-334.1"/>
</g>
<!-- 28&#45;&gt;31 -->
<g id="edge52" class="edge">
<title>28&#45;&gt;31</title>
<path fill="none" stroke="grey" stroke-width="2" d="M893.86,-359.98C909.22,-350.9 926.81,-338.58 939.5,-324 962.86,-297.16 966.52,-286.67 974.5,-252 978.09,-236.41 980.41,-230.87 974.5,-216 970.21,-205.2 962.56,-195.32 954.51,-187.1"/>
<polygon fill="grey" stroke="grey" stroke-width="2" points="956.75,-184.4 947.1,-180.04 951.92,-189.47 956.75,-184.4"/>
</g>
<!-- 28&#45;&gt;32 -->
<g id="edge54" class="edge">
<title>28&#45;&gt;32</title>
<path fill="none" stroke="grey" stroke-width="2" d="M886.19,-359.97C898.13,-350.72 911.45,-338.27 919.5,-324 930.16,-305.1 934.27,-280.73 935.79,-262.27"/>
<polygon fill="grey" stroke="grey" stroke-width="2" points="939.29,-262.37 936.42,-252.17 932.31,-261.94 939.29,-262.37"/>
</g>
<!-- 29 -->
<g id="node30" class="node">
<title>29</title>
<path fill="none" stroke="#c6d856" stroke-width="2" d="M891,-468C891,-468 838,-468 838,-468 832,-468 826,-462 826,-456 826,-456 826,-444 826,-444 826,-438 832,-432 838,-432 838,-432 891,-432 891,-432 897,-432 903,-438 903,-444 903,-444 903,-456 903,-456 903,-462 897,-468 891,-468"/>
<text text-anchor="middle" x="864.5" y="-447.5" font-family="sans" font-size="10.00">untar_fastqs</text>
</g>
<!-- 29&#45;&gt;28 -->
<g id="edge46" class="edge">
<title>29&#45;&gt;28</title>
<path fill="none" stroke="grey" stroke-width="2" d="M863.51,-431.7C863.07,-423.98 862.54,-414.71 862.05,-406.11"/>
<polygon fill="grey" stroke="grey" stroke-width="2" points="865.54,-405.89 861.48,-396.1 858.55,-406.29 865.54,-405.89"/>
</g>
<!-- 30 -->
<g id="node31" class="node">
<title>30</title>
<path fill="none" stroke="#56d8a2" stroke-width="2" d="M1061,-540C1061,-540 904,-540 904,-540 898,-540 892,-534 892,-528 892,-528 892,-516 892,-516 892,-510 898,-504 904,-504 904,-504 1061,-504 1061,-504 1067,-504 1073,-510 1073,-516 1073,-516 1073,-528 1073,-528 1073,-534 1067,-540 1061,-540"/>
<text text-anchor="middle" x="982.5" y="-525" font-family="sans" font-size="10.00">download_fastqs</text>
<text text-anchor="middle" x="982.5" y="-514" font-family="sans" font-size="10.00">s: 500_PBMC_3p_LT_Chromium_X</text>
</g>
<!-- 30&#45;&gt;29 -->
<g id="edge49" class="edge">
<title>30&#45;&gt;29</title>
<path fill="none" stroke="grey" stroke-width="2" d="M953.63,-503.88C938.21,-494.72 919.02,-483.34 902.4,-473.48"/>
<polygon fill="grey" stroke="grey" stroke-width="2" points="903.86,-470.28 893.48,-468.19 900.29,-476.3 903.86,-470.28"/>
</g>
<!-- 31&#45;&gt;25 -->
<g id="edge41" class="edge">
<title>31&#45;&gt;25</title>
<path fill="none" stroke="grey" stroke-width="2" d="M899.06,-143.88C885.71,-134.89 869.18,-123.76 854.72,-114.03"/>
<polygon fill="grey" stroke="grey" stroke-width="2" points="856.29,-110.87 846.04,-108.19 852.38,-116.68 856.29,-110.87"/>
</g>
<!-- 32&#45;&gt;31 -->
<g id="edge50" class="edge">
<title>32&#45;&gt;31</title>
<path fill="none" stroke="grey" stroke-width="2" d="M933.53,-215.7C932.21,-207.98 930.62,-198.71 929.15,-190.11"/>
<polygon fill="grey" stroke="grey" stroke-width="2" points="932.57,-189.37 927.43,-180.1 925.67,-190.55 932.57,-189.37"/>
</g>
</g>
</svg>
