<?xml version="1.0" encoding="UTF-8" standalone="no"?>
<!DOCTYPE svg PUBLIC "-//W3C//DTD SVG 1.1//EN"
 "http://www.w3.org/Graphics/SVG/1.1/DTD/svg11.dtd">
<!-- Generated by graphviz version 2.50.0 (20211209.0339)
 -->
<!-- Title: snakemake_dag Pages: 1 -->
<svg width="1215pt" height="692pt"
 viewBox="0.00 0.00 1215.07 692.00" xmlns="http://www.w3.org/2000/svg" xmlns:xlink="http://www.w3.org/1999/xlink">
<g id="graph0" class="graph" transform="scale(1 1) rotate(0) translate(4 688)">
<title>snakemake_dag</title>
<polygon fill="white" stroke="transparent" points="-4,4 -4,-688 1211.07,-688 1211.07,4 -4,4"/>
<!-- 0 -->
<g id="node1" class="node">
<title>0</title>
<path fill="none" stroke="#d89c56" stroke-width="2" stroke-dasharray="5,2" d="M603,-36C603,-36 573,-36 573,-36 567,-36 561,-30 561,-24 561,-24 561,-12 561,-12 561,-6 567,0 573,0 573,0 603,0 603,0 609,0 615,-6 615,-12 615,-12 615,-24 615,-24 615,-30 609,-36 603,-36"/>
<text text-anchor="middle" x="588" y="-15.5" font-family="sans" font-size="10.00">all</text>
</g>
<!-- 1 -->
<g id="node2" class="node">
<title>1</title>
<path fill="none" stroke="#88d856" stroke-width="2" stroke-dasharray="5,2" d="M984,-108C984,-108 904,-108 904,-108 898,-108 892,-102 892,-96 892,-96 892,-84 892,-84 892,-78 898,-72 904,-72 904,-72 984,-72 984,-72 990,-72 996,-78 996,-84 996,-84 996,-96 996,-96 996,-102 990,-108 984,-108"/>
<text text-anchor="middle" x="944" y="-87.5" font-family="sans" font-size="10.00">sample_complete</text>
</g>
<!-- 1&#45;&gt;0 -->
<g id="edge1" class="edge">
<title>1&#45;&gt;0</title>
<path fill="none" stroke="grey" stroke-width="2" d="M891.85,-78.75C819.04,-64.43 688.71,-38.8 625.04,-26.28"/>
<polygon fill="grey" stroke="grey" stroke-width="2" points="625.54,-22.81 615.05,-24.32 624.19,-29.68 625.54,-22.81"/>
</g>
<!-- 2 -->
<g id="node3" class="node">
<title>2</title>
<path fill="none" stroke="#d87556" stroke-width="2" stroke-dasharray="5,2" d="M1170,-252C1170,-252 1078,-252 1078,-252 1072,-252 1066,-246 1066,-240 1066,-240 1066,-228 1066,-228 1066,-222 1072,-216 1078,-216 1078,-216 1170,-216 1170,-216 1176,-216 1182,-222 1182,-228 1182,-228 1182,-240 1182,-240 1182,-246 1176,-252 1170,-252"/>
<text text-anchor="middle" x="1124" y="-237" font-family="sans" font-size="10.00">merge_matrices</text>
<text text-anchor="middle" x="1124" y="-226" font-family="sans" font-size="10.00">method: pseudobulk</text>
</g>
<!-- 2&#45;&gt;1 -->
<g id="edge7" class="edge">
<title>2&#45;&gt;1</title>
<path fill="none" stroke="grey" stroke-width="2" d="M1102.29,-215.87C1070.26,-190.6 1010.24,-143.25 974.02,-114.68"/>
<polygon fill="grey" stroke="grey" stroke-width="2" points="975.81,-111.64 965.79,-108.19 971.47,-117.13 975.81,-111.64"/>
</g>
<!-- 3 -->
<g id="node4" class="node">
<title>3</title>
<path fill="none" stroke="#d85656" stroke-width="2" stroke-dasharray="5,2" d="M1032,-468C1032,-468 946,-468 946,-468 940,-468 934,-462 934,-456 934,-456 934,-444 934,-444 934,-438 940,-432 946,-432 946,-432 1032,-432 1032,-432 1038,-432 1044,-438 1044,-444 1044,-444 1044,-456 1044,-456 1044,-462 1038,-468 1032,-468"/>
<text text-anchor="middle" x="989" y="-447.5" font-family="sans" font-size="10.00">starsolo_alignment</text>
</g>
<!-- 3&#45;&gt;2 -->
<g id="edge8" class="edge">
<title>3&#45;&gt;2</title>
<path fill="none" stroke="grey" stroke-width="2" d="M1044.14,-438.16C1075.44,-430.14 1114.19,-416.89 1144,-396 1177.66,-372.42 1188.33,-362.75 1202,-324 1207.32,-308.91 1209.49,-302.14 1202,-288 1195.4,-275.54 1184.42,-265.47 1172.75,-257.59"/>
<polygon fill="grey" stroke="grey" stroke-width="2" points="1174.52,-254.56 1164.18,-252.23 1170.8,-260.5 1174.52,-254.56"/>
</g>
<!-- 12 -->
<g id="node13" class="node">
<title>12</title>
<path fill="none" stroke="#56d8a9" stroke-width="2" stroke-dasharray="5,2" d="M1180.5,-324C1180.5,-324 1067.5,-324 1067.5,-324 1061.5,-324 1055.5,-318 1055.5,-312 1055.5,-312 1055.5,-300 1055.5,-300 1055.5,-294 1061.5,-288 1067.5,-288 1067.5,-288 1180.5,-288 1180.5,-288 1186.5,-288 1192.5,-294 1192.5,-300 1192.5,-300 1192.5,-312 1192.5,-312 1192.5,-318 1186.5,-324 1180.5,-324"/>
<text text-anchor="middle" x="1124" y="-303.5" font-family="sans" font-size="10.00">stellarscope_pseudobulk</text>
</g>
<!-- 3&#45;&gt;12 -->
<g id="edge20" class="edge">
<title>3&#45;&gt;12</title>
<path fill="none" stroke="grey" stroke-width="2" d="M1044.01,-442.62C1073.56,-436.07 1107.62,-422.82 1126,-396 1138.31,-378.04 1136.46,-352.88 1132.31,-333.9"/>
<polygon fill="grey" stroke="grey" stroke-width="2" points="1135.68,-332.92 1129.85,-324.07 1128.89,-334.62 1135.68,-332.92"/>
</g>
<!-- 13 -->
<g id="node14" class="node">
<title>13</title>
<path fill="none" stroke="#56d88a" stroke-width="2" stroke-dasharray="5,2" d="M1105,-396C1105,-396 1029,-396 1029,-396 1023,-396 1017,-390 1017,-384 1017,-384 1017,-372 1017,-372 1017,-366 1023,-360 1029,-360 1029,-360 1105,-360 1105,-360 1111,-360 1117,-366 1117,-372 1117,-372 1117,-384 1117,-384 1117,-390 1111,-396 1105,-396"/>
<text text-anchor="middle" x="1067" y="-375.5" font-family="sans" font-size="10.00">samtools_collate</text>
</g>
<!-- 3&#45;&gt;13 -->
<g id="edge21" class="edge">
<title>3&#45;&gt;13</title>
<path fill="none" stroke="grey" stroke-width="2" d="M1008.28,-431.7C1017.92,-423.05 1029.73,-412.45 1040.23,-403.03"/>
<polygon fill="grey" stroke="grey" stroke-width="2" points="1042.84,-405.39 1047.94,-396.1 1038.16,-400.18 1042.84,-405.39"/>
</g>
<!-- 17 -->
<g id="node18" class="node">
<title>17</title>
<path fill="none" stroke="#d87556" stroke-width="2" stroke-dasharray="5,2" d="M917,-180C917,-180 833,-180 833,-180 827,-180 821,-174 821,-168 821,-168 821,-156 821,-156 821,-150 827,-144 833,-144 833,-144 917,-144 917,-144 923,-144 929,-150 929,-156 929,-156 929,-168 929,-168 929,-174 923,-180 917,-180"/>
<text text-anchor="middle" x="875" y="-165" font-family="sans" font-size="10.00">merge_matrices</text>
<text text-anchor="middle" x="875" y="-154" font-family="sans" font-size="10.00">method: individual</text>
</g>
<!-- 3&#45;&gt;17 -->
<g id="edge25" class="edge">
<title>3&#45;&gt;17</title>
<path fill="none" stroke="grey" stroke-width="2" d="M979.03,-431.94C959.9,-398.49 917.8,-321.51 894,-252 887.06,-231.73 882.14,-207.96 879.05,-190.08"/>
<polygon fill="grey" stroke="grey" stroke-width="2" points="882.48,-189.35 877.4,-180.06 875.57,-190.49 882.48,-189.35"/>
</g>
<!-- 18 -->
<g id="node19" class="node">
<title>18</title>
<path fill="none" stroke="#68d856" stroke-width="2" stroke-dasharray="5,2" d="M1020.5,-252C1020.5,-252 915.5,-252 915.5,-252 909.5,-252 903.5,-246 903.5,-240 903.5,-240 903.5,-228 903.5,-228 903.5,-222 909.5,-216 915.5,-216 915.5,-216 1020.5,-216 1020.5,-216 1026.5,-216 1032.5,-222 1032.5,-228 1032.5,-228 1032.5,-240 1032.5,-240 1032.5,-246 1026.5,-252 1020.5,-252"/>
<text text-anchor="middle" x="968" y="-231.5" font-family="sans" font-size="10.00">stellarscope_individual</text>
</g>
<!-- 3&#45;&gt;18 -->
<g id="edge29" class="edge">
<title>3&#45;&gt;18</title>
<path fill="none" stroke="grey" stroke-width="2" d="M985.65,-431.69C981.16,-407.64 973.36,-362.71 970,-324 968.21,-303.34 967.74,-279.9 967.71,-262.25"/>
<polygon fill="grey" stroke="grey" stroke-width="2" points="971.21,-262.11 967.73,-252.1 964.21,-262.09 971.21,-262.11"/>
</g>
<!-- 19 -->
<g id="node20" class="node">
<title>19</title>
<path fill="none" stroke="#d8bc56" stroke-width="2" stroke-dasharray="5,2" d="M1025,-324C1025,-324 991,-324 991,-324 985,-324 979,-318 979,-312 979,-312 979,-300 979,-300 979,-294 985,-288 991,-288 991,-288 1025,-288 1025,-288 1031,-288 1037,-294 1037,-300 1037,-300 1037,-312 1037,-312 1037,-318 1031,-324 1025,-324"/>
<text text-anchor="middle" x="1008" y="-303.5" font-family="sans" font-size="10.00">cell_sort</text>
</g>
<!-- 3&#45;&gt;19 -->
<g id="edge31" class="edge">
<title>3&#45;&gt;19</title>
<path fill="none" stroke="grey" stroke-width="2" d="M991.29,-431.87C994.53,-407.67 1000.48,-363.21 1004.33,-334.39"/>
<polygon fill="grey" stroke="grey" stroke-width="2" points="1007.84,-334.57 1005.7,-324.19 1000.9,-333.64 1007.84,-334.57"/>
</g>
<!-- 4 -->
<g id="node5" class="node">
<title>4</title>
<path fill="none" stroke="#afd856" stroke-width="2" stroke-dasharray="5,2" d="M1033.5,-540C1033.5,-540 980.5,-540 980.5,-540 974.5,-540 968.5,-534 968.5,-528 968.5,-528 968.5,-516 968.5,-516 968.5,-510 974.5,-504 980.5,-504 980.5,-504 1033.5,-504 1033.5,-504 1039.5,-504 1045.5,-510 1045.5,-516 1045.5,-516 1045.5,-528 1045.5,-528 1045.5,-534 1039.5,-540 1033.5,-540"/>
<text text-anchor="middle" x="1007" y="-519.5" font-family="sans" font-size="10.00">untar_fastqs</text>
</g>
<!-- 4&#45;&gt;3 -->
<g id="edge10" class="edge">
<title>4&#45;&gt;3</title>
<path fill="none" stroke="grey" stroke-width="2" d="M1002.55,-503.7C1000.55,-495.9 998.13,-486.51 995.9,-477.83"/>
<polygon fill="grey" stroke="grey" stroke-width="2" points="999.28,-476.92 993.4,-468.1 992.5,-478.66 999.28,-476.92"/>
</g>
<!-- 5 -->
<g id="node6" class="node">
<title>5</title>
<path fill="none" stroke="#56d8d0" stroke-width="2" stroke-dasharray="5,2" d="M1130.5,-612C1130.5,-612 921.5,-612 921.5,-612 915.5,-612 909.5,-606 909.5,-600 909.5,-600 909.5,-588 909.5,-588 909.5,-582 915.5,-576 921.5,-576 921.5,-576 1130.5,-576 1130.5,-576 1136.5,-576 1142.5,-582 1142.5,-588 1142.5,-588 1142.5,-600 1142.5,-600 1142.5,-606 1136.5,-612 1130.5,-612"/>
<text text-anchor="middle" x="1026" y="-597" font-family="sans" font-size="10.00">download_fastqs</text>
<text text-anchor="middle" x="1026" y="-586" font-family="sans" font-size="10.00">s: 20k_PBMC_3p_HT_nextgem_Chromium_X</text>
</g>
<!-- 5&#45;&gt;4 -->
<g id="edge13" class="edge">
<title>5&#45;&gt;4</title>
<path fill="none" stroke="grey" stroke-width="2" d="M1021.3,-575.7C1019.19,-567.9 1016.64,-558.51 1014.28,-549.83"/>
<polygon fill="grey" stroke="grey" stroke-width="2" points="1017.64,-548.84 1011.64,-540.1 1010.88,-550.67 1017.64,-548.84"/>
</g>
<!-- 6 -->
<g id="node7" class="node">
<title>6</title>
<path fill="none" stroke="#567bd8" stroke-width="2" stroke-dasharray="5,2" d="M770.5,-540C770.5,-540 681.5,-540 681.5,-540 675.5,-540 669.5,-534 669.5,-528 669.5,-528 669.5,-516 669.5,-516 669.5,-510 675.5,-504 681.5,-504 681.5,-504 770.5,-504 770.5,-504 776.5,-504 782.5,-510 782.5,-516 782.5,-516 782.5,-528 782.5,-528 782.5,-534 776.5,-540 770.5,-540"/>
<text text-anchor="middle" x="726" y="-519.5" font-family="sans" font-size="10.00">index_genome_star</text>
</g>
<!-- 6&#45;&gt;3 -->
<g id="edge11" class="edge">
<title>6&#45;&gt;3</title>
<path fill="none" stroke="grey" stroke-width="2" d="M782.74,-505.9C824.21,-494.86 880.53,-479.87 923.84,-468.34"/>
<polygon fill="grey" stroke="grey" stroke-width="2" points="924.95,-471.67 933.71,-465.72 923.15,-464.91 924.95,-471.67"/>
</g>
<!-- 22 -->
<g id="node23" class="node">
<title>22</title>
<path fill="none" stroke="#d85656" stroke-width="2" stroke-dasharray="5,2" d="M319,-468C319,-468 233,-468 233,-468 227,-468 221,-462 221,-456 221,-456 221,-444 221,-444 221,-438 227,-432 233,-432 233,-432 319,-432 319,-432 325,-432 331,-438 331,-444 331,-444 331,-456 331,-456 331,-462 325,-468 319,-468"/>
<text text-anchor="middle" x="276" y="-447.5" font-family="sans" font-size="10.00">starsolo_alignment</text>
</g>
<!-- 6&#45;&gt;22 -->
<g id="edge36" class="edge">
<title>6&#45;&gt;22</title>
<path fill="none" stroke="grey" stroke-width="2" d="M669.46,-512.21C585.82,-499.19 429.49,-474.88 341.15,-461.13"/>
<polygon fill="grey" stroke="grey" stroke-width="2" points="341.67,-457.67 331.25,-459.59 340.59,-464.59 341.67,-457.67"/>
</g>
<!-- 33 -->
<g id="node34" class="node">
<title>33</title>
<path fill="none" stroke="#d85656" stroke-width="2" stroke-dasharray="5,2" d="M600,-468C600,-468 514,-468 514,-468 508,-468 502,-462 502,-456 502,-456 502,-444 502,-444 502,-438 508,-432 514,-432 514,-432 600,-432 600,-432 606,-432 612,-438 612,-444 612,-444 612,-456 612,-456 612,-462 606,-468 600,-468"/>
<text text-anchor="middle" x="557" y="-447.5" font-family="sans" font-size="10.00">starsolo_alignment</text>
</g>
<!-- 6&#45;&gt;33 -->
<g id="edge55" class="edge">
<title>6&#45;&gt;33</title>
<path fill="none" stroke="grey" stroke-width="2" d="M684.66,-503.88C661.45,-494.26 632.31,-482.19 607.73,-472.01"/>
<polygon fill="grey" stroke="grey" stroke-width="2" points="608.79,-468.66 598.21,-468.07 606.11,-475.13 608.79,-468.66"/>
</g>
<!-- 7 -->
<g id="node8" class="node">
<title>7</title>
<path fill="none" stroke="#569ad8" stroke-width="2" stroke-dasharray="5,2" d="M879.5,-612C879.5,-612 816.5,-612 816.5,-612 810.5,-612 804.5,-606 804.5,-600 804.5,-600 804.5,-588 804.5,-588 804.5,-582 810.5,-576 816.5,-576 816.5,-576 879.5,-576 879.5,-576 885.5,-576 891.5,-582 891.5,-588 891.5,-588 891.5,-600 891.5,-600 891.5,-606 885.5,-612 879.5,-612"/>
<text text-anchor="middle" x="848" y="-591.5" font-family="sans" font-size="10.00">untar_genome</text>
</g>
<!-- 7&#45;&gt;6 -->
<g id="edge14" class="edge">
<title>7&#45;&gt;6</title>
<path fill="none" stroke="grey" stroke-width="2" d="M818.16,-575.88C802.06,-566.64 782,-555.13 764.71,-545.21"/>
<polygon fill="grey" stroke="grey" stroke-width="2" points="766.37,-542.13 755.96,-540.19 762.89,-548.2 766.37,-542.13"/>
</g>
<!-- 14 -->
<g id="node15" class="node">
<title>14</title>
<path fill="none" stroke="#56c1d8" stroke-width="2" stroke-dasharray="5,2" d="M848,-396C848,-396 750,-396 750,-396 744,-396 738,-390 738,-384 738,-384 738,-372 738,-372 738,-366 744,-360 750,-360 750,-360 848,-360 848,-360 854,-360 860,-366 860,-372 860,-372 860,-384 860,-384 860,-390 854,-396 848,-396"/>
<text text-anchor="middle" x="799" y="-375.5" font-family="sans" font-size="10.00">telescope_annotation</text>
</g>
<!-- 7&#45;&gt;14 -->
<g id="edge23" class="edge">
<title>7&#45;&gt;14</title>
<path fill="none" stroke="grey" stroke-width="2" d="M847.96,-575.62C847.42,-545.6 844.26,-482.39 828,-432 825.05,-422.86 820.5,-413.48 815.88,-405.2"/>
<polygon fill="grey" stroke="grey" stroke-width="2" points="818.78,-403.24 810.7,-396.39 812.75,-406.79 818.78,-403.24"/>
</g>
<!-- 8 -->
<g id="node9" class="node">
<title>8</title>
<path fill="none" stroke="#ced856" stroke-width="2" stroke-dasharray="5,2" d="M895.5,-684C895.5,-684 800.5,-684 800.5,-684 794.5,-684 788.5,-678 788.5,-672 788.5,-672 788.5,-660 788.5,-660 788.5,-654 794.5,-648 800.5,-648 800.5,-648 895.5,-648 895.5,-648 901.5,-648 907.5,-654 907.5,-660 907.5,-660 907.5,-672 907.5,-672 907.5,-678 901.5,-684 895.5,-684"/>
<text text-anchor="middle" x="848" y="-669" font-family="sans" font-size="10.00">download_remote</text>
<text text-anchor="middle" x="848" y="-658" font-family="sans" font-size="10.00">file: GRCh38.fa.tar.gz</text>
</g>
<!-- 8&#45;&gt;7 -->
<g id="edge16" class="edge">
<title>8&#45;&gt;7</title>
<path fill="none" stroke="grey" stroke-width="2" d="M848,-647.7C848,-639.98 848,-630.71 848,-622.11"/>
<polygon fill="grey" stroke="grey" stroke-width="2" points="851.5,-622.1 848,-612.1 844.5,-622.1 851.5,-622.1"/>
</g>
<!-- 9 -->
<g id="node10" class="node">
<title>9</title>
<path fill="none" stroke="#ced856" stroke-width="2" stroke-dasharray="5,2" d="M774.5,-612C774.5,-612 677.5,-612 677.5,-612 671.5,-612 665.5,-606 665.5,-600 665.5,-600 665.5,-588 665.5,-588 665.5,-582 671.5,-576 677.5,-576 677.5,-576 774.5,-576 774.5,-576 780.5,-576 786.5,-582 786.5,-588 786.5,-588 786.5,-600 786.5,-600 786.5,-606 780.5,-612 774.5,-612"/>
<text text-anchor="middle" x="726" y="-597" font-family="sans" font-size="10.00">download_remote</text>
<text text-anchor="middle" x="726" y="-586" font-family="sans" font-size="10.00">file: gencode38.gtf.gz</text>
</g>
<!-- 9&#45;&gt;6 -->
<g id="edge15" class="edge">
<title>9&#45;&gt;6</title>
<path fill="none" stroke="grey" stroke-width="2" d="M726,-575.7C726,-567.98 726,-558.71 726,-550.11"/>
<polygon fill="grey" stroke="grey" stroke-width="2" points="729.5,-550.1 726,-540.1 722.5,-550.1 729.5,-550.1"/>
</g>
<!-- 10 -->
<g id="node11" class="node">
<title>10</title>
<path fill="none" stroke="#56d86b" stroke-width="2" stroke-dasharray="5,2" d="M445,-540C445,-540 389,-540 389,-540 383,-540 377,-534 377,-528 377,-528 377,-516 377,-516 377,-510 383,-504 389,-504 389,-504 445,-504 445,-504 451,-504 457,-510 457,-516 457,-516 457,-528 457,-528 457,-534 451,-540 445,-540"/>
<text text-anchor="middle" x="417" y="-519.5" font-family="sans" font-size="10.00">get_whitelist</text>
</g>
<!-- 10&#45;&gt;3 -->
<g id="edge12" class="edge">
<title>10&#45;&gt;3</title>
<path fill="none" stroke="grey" stroke-width="2" d="M457.2,-512.92C473.27,-509.86 491.97,-506.51 509,-504 549.05,-498.1 801.83,-470.94 923.6,-457.95"/>
<polygon fill="grey" stroke="grey" stroke-width="2" points="924.33,-461.4 933.9,-456.85 923.59,-454.43 924.33,-461.4"/>
</g>
<!-- 10&#45;&gt;22 -->
<g id="edge37" class="edge">
<title>10&#45;&gt;22</title>
<path fill="none" stroke="grey" stroke-width="2" d="M382.51,-503.88C363.56,-494.47 339.87,-482.71 319.64,-472.67"/>
<polygon fill="grey" stroke="grey" stroke-width="2" points="321.14,-469.5 310.63,-468.19 318.03,-475.77 321.14,-469.5"/>
</g>
<!-- 10&#45;&gt;33 -->
<g id="edge56" class="edge">
<title>10&#45;&gt;33</title>
<path fill="none" stroke="grey" stroke-width="2" d="M451.25,-503.88C470.06,-494.47 493.58,-482.71 513.67,-472.67"/>
<polygon fill="grey" stroke="grey" stroke-width="2" points="515.24,-475.79 522.62,-468.19 512.11,-469.53 515.24,-475.79"/>
</g>
<!-- 11 -->
<g id="node12" class="node">
<title>11</title>
<path fill="none" stroke="#ced856" stroke-width="2" stroke-dasharray="5,2" d="M436,-612C436,-612 314,-612 314,-612 308,-612 302,-606 302,-600 302,-600 302,-588 302,-588 302,-582 308,-576 314,-576 314,-576 436,-576 436,-576 442,-576 448,-582 448,-588 448,-588 448,-600 448,-600 448,-606 442,-612 436,-612"/>
<text text-anchor="middle" x="375" y="-597" font-family="sans" font-size="10.00">download_remote</text>
<text text-anchor="middle" x="375" y="-586" font-family="sans" font-size="10.00">file: whitelist.10x.v3.txt.gz</text>
</g>
<!-- 11&#45;&gt;10 -->
<g id="edge17" class="edge">
<title>11&#45;&gt;10</title>
<path fill="none" stroke="grey" stroke-width="2" d="M385.38,-575.7C390.26,-567.56 396.19,-557.69 401.58,-548.7"/>
<polygon fill="grey" stroke="grey" stroke-width="2" points="404.59,-550.48 406.74,-540.1 398.59,-546.88 404.59,-550.48"/>
</g>
<!-- 12&#45;&gt;2 -->
<g id="edge9" class="edge">
<title>12&#45;&gt;2</title>
<path fill="none" stroke="grey" stroke-width="2" d="M1124,-287.7C1124,-279.98 1124,-270.71 1124,-262.11"/>
<polygon fill="grey" stroke="grey" stroke-width="2" points="1127.5,-262.1 1124,-252.1 1120.5,-262.1 1127.5,-262.1"/>
</g>
<!-- 13&#45;&gt;12 -->
<g id="edge18" class="edge">
<title>13&#45;&gt;12</title>
<path fill="none" stroke="grey" stroke-width="2" d="M1081.09,-359.7C1087.92,-351.3 1096.26,-341.07 1103.76,-331.86"/>
<polygon fill="grey" stroke="grey" stroke-width="2" points="1106.47,-334.07 1110.07,-324.1 1101.04,-329.65 1106.47,-334.07"/>
</g>
<!-- 13&#45;&gt;19 -->
<g id="edge30" class="edge">
<title>13&#45;&gt;19</title>
<path fill="none" stroke="grey" stroke-width="2" d="M1052.42,-359.7C1045.34,-351.3 1036.72,-341.07 1028.95,-331.86"/>
<polygon fill="grey" stroke="grey" stroke-width="2" points="1031.54,-329.49 1022.42,-324.1 1026.19,-334.01 1031.54,-329.49"/>
</g>
<!-- 14&#45;&gt;12 -->
<g id="edge19" class="edge">
<title>14&#45;&gt;12</title>
<path fill="none" stroke="grey" stroke-width="2" d="M860.17,-363.93C907.82,-353.74 975.92,-339.14 1044.91,-324.23"/>
<polygon fill="grey" stroke="grey" stroke-width="2" points="1046.06,-327.56 1055.1,-322.03 1044.59,-320.72 1046.06,-327.56"/>
</g>
<!-- 14&#45;&gt;18 -->
<g id="edge28" class="edge">
<title>14&#45;&gt;18</title>
<path fill="none" stroke="grey" stroke-width="2" d="M819.39,-359.87C849.46,-334.6 905.81,-287.25 939.82,-258.68"/>
<polygon fill="grey" stroke="grey" stroke-width="2" points="942.14,-261.3 947.54,-252.19 937.63,-255.94 942.14,-261.3"/>
</g>
<!-- 25 -->
<g id="node26" class="node">
<title>25</title>
<path fill="none" stroke="#56d8a9" stroke-width="2" stroke-dasharray="5,2" d="M285.5,-324C285.5,-324 172.5,-324 172.5,-324 166.5,-324 160.5,-318 160.5,-312 160.5,-312 160.5,-300 160.5,-300 160.5,-294 166.5,-288 172.5,-288 172.5,-288 285.5,-288 285.5,-288 291.5,-288 297.5,-294 297.5,-300 297.5,-300 297.5,-312 297.5,-312 297.5,-318 291.5,-324 285.5,-324"/>
<text text-anchor="middle" x="229" y="-303.5" font-family="sans" font-size="10.00">stellarscope_pseudobulk</text>
</g>
<!-- 14&#45;&gt;25 -->
<g id="edge40" class="edge">
<title>14&#45;&gt;25</title>
<path fill="none" stroke="grey" stroke-width="2" d="M737.93,-369.72C711.78,-366.65 680.9,-363.08 653,-360 502.62,-343.42 461.41,-348.28 308.09,-324.07"/>
<polygon fill="grey" stroke="grey" stroke-width="2" points="308.25,-320.55 297.82,-322.43 307.15,-327.47 308.25,-320.55"/>
</g>
<!-- 29 -->
<g id="node30" class="node">
<title>29</title>
<path fill="none" stroke="#68d856" stroke-width="2" stroke-dasharray="5,2" d="M399.5,-252C399.5,-252 294.5,-252 294.5,-252 288.5,-252 282.5,-246 282.5,-240 282.5,-240 282.5,-228 282.5,-228 282.5,-222 288.5,-216 294.5,-216 294.5,-216 399.5,-216 399.5,-216 405.5,-216 411.5,-222 411.5,-228 411.5,-228 411.5,-240 411.5,-240 411.5,-246 405.5,-252 399.5,-252"/>
<text text-anchor="middle" x="347" y="-231.5" font-family="sans" font-size="10.00">stellarscope_individual</text>
</g>
<!-- 14&#45;&gt;29 -->
<g id="edge47" class="edge">
<title>14&#45;&gt;29</title>
<path fill="none" stroke="grey" stroke-width="2" d="M800.53,-359.7C801.29,-339.32 799.04,-305.98 779,-288 725.89,-240.37 530.73,-261.31 460,-252 447.66,-250.38 434.58,-248.53 421.87,-246.66"/>
<polygon fill="grey" stroke="grey" stroke-width="2" points="422.18,-243.17 411.78,-245.17 421.16,-250.09 422.18,-243.17"/>
</g>
<!-- 36 -->
<g id="node37" class="node">
<title>36</title>
<path fill="none" stroke="#56d8a9" stroke-width="2" stroke-dasharray="5,2" d="M758.5,-324C758.5,-324 645.5,-324 645.5,-324 639.5,-324 633.5,-318 633.5,-312 633.5,-312 633.5,-300 633.5,-300 633.5,-294 639.5,-288 645.5,-288 645.5,-288 758.5,-288 758.5,-288 764.5,-288 770.5,-294 770.5,-300 770.5,-300 770.5,-312 770.5,-312 770.5,-318 764.5,-324 758.5,-324"/>
<text text-anchor="middle" x="702" y="-303.5" font-family="sans" font-size="10.00">stellarscope_pseudobulk</text>
</g>
<!-- 14&#45;&gt;36 -->
<g id="edge59" class="edge">
<title>14&#45;&gt;36</title>
<path fill="none" stroke="grey" stroke-width="2" d="M775.02,-359.7C762.69,-350.8 747.48,-339.82 734.15,-330.2"/>
<polygon fill="grey" stroke="grey" stroke-width="2" points="735.86,-327.12 725.7,-324.1 731.76,-332.79 735.86,-327.12"/>
</g>
<!-- 40 -->
<g id="node41" class="node">
<title>40</title>
<path fill="none" stroke="#68d856" stroke-width="2" stroke-dasharray="5,2" d="M586.5,-252C586.5,-252 481.5,-252 481.5,-252 475.5,-252 469.5,-246 469.5,-240 469.5,-240 469.5,-228 469.5,-228 469.5,-222 475.5,-216 481.5,-216 481.5,-216 586.5,-216 586.5,-216 592.5,-216 598.5,-222 598.5,-228 598.5,-228 598.5,-240 598.5,-240 598.5,-246 592.5,-252 586.5,-252"/>
<text text-anchor="middle" x="534" y="-231.5" font-family="sans" font-size="10.00">stellarscope_individual</text>
</g>
<!-- 14&#45;&gt;40 -->
<g id="edge66" class="edge">
<title>14&#45;&gt;40</title>
<path fill="none" stroke="grey" stroke-width="2" d="M808.82,-359.81C818.59,-340.16 829.9,-308.12 813,-288 784.94,-254.59 667.73,-260.35 608.53,-251.75"/>
<polygon fill="grey" stroke="grey" stroke-width="2" points="608.98,-248.27 598.53,-250.03 607.8,-255.17 608.98,-248.27"/>
</g>
<!-- 15 -->
<g id="node16" class="node">
<title>15</title>
<path fill="none" stroke="#ced856" stroke-width="2" stroke-dasharray="5,2" d="M807.5,-468C807.5,-468 712.5,-468 712.5,-468 706.5,-468 700.5,-462 700.5,-456 700.5,-456 700.5,-444 700.5,-444 700.5,-438 706.5,-432 712.5,-432 712.5,-432 807.5,-432 807.5,-432 813.5,-432 819.5,-438 819.5,-444 819.5,-444 819.5,-456 819.5,-456 819.5,-462 813.5,-468 807.5,-468"/>
<text text-anchor="middle" x="760" y="-453" font-family="sans" font-size="10.00">download_remote</text>
<text text-anchor="middle" x="760" y="-442" font-family="sans" font-size="10.00">file: retro.hg38.v1.gtf</text>
</g>
<!-- 15&#45;&gt;14 -->
<g id="edge22" class="edge">
<title>15&#45;&gt;14</title>
<path fill="none" stroke="grey" stroke-width="2" d="M769.64,-431.7C774.13,-423.64 779.56,-413.89 784.52,-404.98"/>
<polygon fill="grey" stroke="grey" stroke-width="2" points="787.66,-406.54 789.47,-396.1 781.55,-403.14 787.66,-406.54"/>
</g>
<!-- 16 -->
<g id="node17" class="node">
<title>16</title>
<path fill="none" stroke="#88d856" stroke-width="2" stroke-dasharray="5,2" d="M834,-108C834,-108 754,-108 754,-108 748,-108 742,-102 742,-96 742,-96 742,-84 742,-84 742,-78 748,-72 754,-72 754,-72 834,-72 834,-72 840,-72 846,-78 846,-84 846,-84 846,-96 846,-96 846,-102 840,-108 834,-108"/>
<text text-anchor="middle" x="794" y="-87.5" font-family="sans" font-size="10.00">sample_complete</text>
</g>
<!-- 16&#45;&gt;0 -->
<g id="edge2" class="edge">
<title>16&#45;&gt;0</title>
<path fill="none" stroke="grey" stroke-width="2" d="M743.87,-71.97C707.17,-59.5 658.19,-42.85 625.01,-31.57"/>
<polygon fill="grey" stroke="grey" stroke-width="2" points="625.84,-28.16 615.24,-28.26 623.59,-34.79 625.84,-28.16"/>
</g>
<!-- 17&#45;&gt;16 -->
<g id="edge24" class="edge">
<title>17&#45;&gt;16</title>
<path fill="none" stroke="grey" stroke-width="2" d="M854.98,-143.7C844.87,-134.97 832.46,-124.24 821.48,-114.75"/>
<polygon fill="grey" stroke="grey" stroke-width="2" points="823.65,-111.99 813.79,-108.1 819.07,-117.29 823.65,-111.99"/>
</g>
<!-- 18&#45;&gt;17 -->
<g id="edge26" class="edge">
<title>18&#45;&gt;17</title>
<path fill="none" stroke="grey" stroke-width="2" d="M945.01,-215.7C933.19,-206.8 918.61,-195.82 905.82,-186.2"/>
<polygon fill="grey" stroke="grey" stroke-width="2" points="907.82,-183.32 897.72,-180.1 903.61,-188.91 907.82,-183.32"/>
</g>
<!-- 19&#45;&gt;18 -->
<g id="edge27" class="edge">
<title>19&#45;&gt;18</title>
<path fill="none" stroke="grey" stroke-width="2" d="M998.11,-287.7C993.51,-279.64 987.94,-269.89 982.85,-260.98"/>
<polygon fill="grey" stroke="grey" stroke-width="2" points="985.77,-259.05 977.77,-252.1 979.7,-262.52 985.77,-259.05"/>
</g>
<!-- 20 -->
<g id="node21" class="node">
<title>20</title>
<path fill="none" stroke="#88d856" stroke-width="2" stroke-dasharray="5,2" d="M326,-108C326,-108 246,-108 246,-108 240,-108 234,-102 234,-96 234,-96 234,-84 234,-84 234,-78 240,-72 246,-72 246,-72 326,-72 326,-72 332,-72 338,-78 338,-84 338,-84 338,-96 338,-96 338,-102 332,-108 326,-108"/>
<text text-anchor="middle" x="286" y="-87.5" font-family="sans" font-size="10.00">sample_complete</text>
</g>
<!-- 20&#45;&gt;0 -->
<g id="edge3" class="edge">
<title>20&#45;&gt;0</title>
<path fill="none" stroke="grey" stroke-width="2" d="M338.24,-76.83C345.22,-75.2 352.28,-73.56 359,-72 426.67,-56.29 505.61,-38.04 550.9,-27.57"/>
<polygon fill="grey" stroke="grey" stroke-width="2" points="551.9,-30.93 560.85,-25.27 550.32,-24.11 551.9,-30.93"/>
</g>
<!-- 21 -->
<g id="node22" class="node">
<title>21</title>
<path fill="none" stroke="#d87556" stroke-width="2" stroke-dasharray="5,2" d="M104,-252C104,-252 12,-252 12,-252 6,-252 0,-246 0,-240 0,-240 0,-228 0,-228 0,-222 6,-216 12,-216 12,-216 104,-216 104,-216 110,-216 116,-222 116,-228 116,-228 116,-240 116,-240 116,-246 110,-252 104,-252"/>
<text text-anchor="middle" x="58" y="-237" font-family="sans" font-size="10.00">merge_matrices</text>
<text text-anchor="middle" x="58" y="-226" font-family="sans" font-size="10.00">method: pseudobulk</text>
</g>
<!-- 21&#45;&gt;20 -->
<g id="edge32" class="edge">
<title>21&#45;&gt;20</title>
<path fill="none" stroke="grey" stroke-width="2" d="M85.5,-215.87C126.59,-190.28 204.03,-142.05 249.71,-113.6"/>
<polygon fill="grey" stroke="grey" stroke-width="2" points="251.76,-116.45 258.4,-108.19 248.06,-110.5 251.76,-116.45"/>
</g>
<!-- 22&#45;&gt;21 -->
<g id="edge33" class="edge">
<title>22&#45;&gt;21</title>
<path fill="none" stroke="grey" stroke-width="2" d="M220.78,-442.58C187.22,-436.02 145.66,-422.76 118,-396 80.5,-359.72 66.24,-297.86 60.96,-262.31"/>
<polygon fill="grey" stroke="grey" stroke-width="2" points="64.4,-261.62 59.6,-252.18 57.46,-262.56 64.4,-261.62"/>
</g>
<!-- 22&#45;&gt;25 -->
<g id="edge41" class="edge">
<title>22&#45;&gt;25</title>
<path fill="none" stroke="grey" stroke-width="2" d="M248.2,-431.87C236.23,-422.84 223.5,-410.59 217,-396 208.25,-376.39 212.39,-352.12 218.08,-333.88"/>
<polygon fill="grey" stroke="grey" stroke-width="2" points="221.48,-334.77 221.43,-324.17 214.86,-332.49 221.48,-334.77"/>
</g>
<!-- 26 -->
<g id="node27" class="node">
<title>26</title>
<path fill="none" stroke="#56d88a" stroke-width="2" stroke-dasharray="5,2" d="M314,-396C314,-396 238,-396 238,-396 232,-396 226,-390 226,-384 226,-384 226,-372 226,-372 226,-366 232,-360 238,-360 238,-360 314,-360 314,-360 320,-360 326,-366 326,-372 326,-372 326,-384 326,-384 326,-390 320,-396 314,-396"/>
<text text-anchor="middle" x="276" y="-375.5" font-family="sans" font-size="10.00">samtools_collate</text>
</g>
<!-- 22&#45;&gt;26 -->
<g id="edge42" class="edge">
<title>22&#45;&gt;26</title>
<path fill="none" stroke="grey" stroke-width="2" d="M276,-431.7C276,-423.98 276,-414.71 276,-406.11"/>
<polygon fill="grey" stroke="grey" stroke-width="2" points="279.5,-406.1 276,-396.1 272.5,-406.1 279.5,-406.1"/>
</g>
<!-- 28 -->
<g id="node29" class="node">
<title>28</title>
<path fill="none" stroke="#d87556" stroke-width="2" stroke-dasharray="5,2" d="M389,-180C389,-180 305,-180 305,-180 299,-180 293,-174 293,-168 293,-168 293,-156 293,-156 293,-150 299,-144 305,-144 305,-144 389,-144 389,-144 395,-144 401,-150 401,-156 401,-156 401,-168 401,-168 401,-174 395,-180 389,-180"/>
<text text-anchor="middle" x="347" y="-165" font-family="sans" font-size="10.00">merge_matrices</text>
<text text-anchor="middle" x="347" y="-154" font-family="sans" font-size="10.00">method: individual</text>
</g>
<!-- 22&#45;&gt;28 -->
<g id="edge44" class="edge">
<title>22&#45;&gt;28</title>
<path fill="none" stroke="grey" stroke-width="2" d="M245.23,-431.96C198.82,-403.92 119.53,-345.4 151,-288 179.32,-236.35 239.05,-202.97 285.18,-183.81"/>
<polygon fill="grey" stroke="grey" stroke-width="2" points="286.53,-187.03 294.5,-180.05 283.92,-180.54 286.53,-187.03"/>
</g>
<!-- 22&#45;&gt;29 -->
<g id="edge48" class="edge">
<title>22&#45;&gt;29</title>
<path fill="none" stroke="grey" stroke-width="2" d="M310.69,-431.97C325.98,-423.02 343.13,-410.82 355,-396 376.47,-369.2 376.67,-357.75 383,-324 385.95,-308.27 387.7,-303.29 383,-288 379.99,-278.22 374.49,-268.62 368.68,-260.33"/>
<polygon fill="grey" stroke="grey" stroke-width="2" points="371.41,-258.13 362.61,-252.23 365.81,-262.33 371.41,-258.13"/>
</g>
<!-- 30 -->
<g id="node31" class="node">
<title>30</title>
<path fill="none" stroke="#d8bc56" stroke-width="2" stroke-dasharray="5,2" d="M362,-324C362,-324 328,-324 328,-324 322,-324 316,-318 316,-312 316,-312 316,-300 316,-300 316,-294 322,-288 328,-288 328,-288 362,-288 362,-288 368,-288 374,-294 374,-300 374,-300 374,-312 374,-312 374,-318 368,-324 362,-324"/>
<text text-anchor="middle" x="345" y="-303.5" font-family="sans" font-size="10.00">cell_sort</text>
</g>
<!-- 22&#45;&gt;30 -->
<g id="edge50" class="edge">
<title>22&#45;&gt;30</title>
<path fill="none" stroke="grey" stroke-width="2" d="M302.47,-431.99C314.45,-422.83 327.56,-410.45 335,-396 344.82,-376.93 346.96,-352.58 346.84,-334.16"/>
<polygon fill="grey" stroke="grey" stroke-width="2" points="350.34,-333.99 346.56,-324.1 343.34,-334.19 350.34,-333.99"/>
</g>
<!-- 23 -->
<g id="node24" class="node">
<title>23</title>
<path fill="none" stroke="#afd856" stroke-width="2" stroke-dasharray="5,2" d="M276.5,-540C276.5,-540 223.5,-540 223.5,-540 217.5,-540 211.5,-534 211.5,-528 211.5,-528 211.5,-516 211.5,-516 211.5,-510 217.5,-504 223.5,-504 223.5,-504 276.5,-504 276.5,-504 282.5,-504 288.5,-510 288.5,-516 288.5,-516 288.5,-528 288.5,-528 288.5,-534 282.5,-540 276.5,-540"/>
<text text-anchor="middle" x="250" y="-519.5" font-family="sans" font-size="10.00">untar_fastqs</text>
</g>
<!-- 23&#45;&gt;22 -->
<g id="edge35" class="edge">
<title>23&#45;&gt;22</title>
<path fill="none" stroke="grey" stroke-width="2" d="M256.43,-503.7C259.36,-495.81 262.89,-486.3 266.14,-477.55"/>
<polygon fill="grey" stroke="grey" stroke-width="2" points="269.45,-478.7 269.65,-468.1 262.88,-476.26 269.45,-478.7"/>
</g>
<!-- 24 -->
<g id="node25" class="node">
<title>24</title>
<path fill="none" stroke="#56d8d0" stroke-width="2" stroke-dasharray="5,2" d="M272,-612C272,-612 82,-612 82,-612 76,-612 70,-606 70,-600 70,-600 70,-588 70,-588 70,-582 76,-576 82,-576 82,-576 272,-576 272,-576 278,-576 284,-582 284,-588 284,-588 284,-600 284,-600 284,-606 278,-612 272,-612"/>
<text text-anchor="middle" x="177" y="-597" font-family="sans" font-size="10.00">download_fastqs</text>
<text text-anchor="middle" x="177" y="-586" font-family="sans" font-size="10.00">s: 10k_PBMC_3p_nextgem_Chromium_X</text>
</g>
<!-- 24&#45;&gt;23 -->
<g id="edge38" class="edge">
<title>24&#45;&gt;23</title>
<path fill="none" stroke="grey" stroke-width="2" d="M195.04,-575.7C204.06,-567.05 215.12,-556.45 224.94,-547.03"/>
<polygon fill="grey" stroke="grey" stroke-width="2" points="227.37,-549.55 232.16,-540.1 222.52,-544.5 227.37,-549.55"/>
</g>
<!-- 25&#45;&gt;21 -->
<g id="edge34" class="edge">
<title>25&#45;&gt;21</title>
<path fill="none" stroke="grey" stroke-width="2" d="M187.17,-287.88C163.58,-278.22 133.94,-266.09 109,-255.88"/>
<polygon fill="grey" stroke="grey" stroke-width="2" points="110.28,-252.62 99.7,-252.07 107.62,-259.1 110.28,-252.62"/>
</g>
<!-- 26&#45;&gt;25 -->
<g id="edge39" class="edge">
<title>26&#45;&gt;25</title>
<path fill="none" stroke="grey" stroke-width="2" d="M264.38,-359.7C258.86,-351.47 252.15,-341.48 246.07,-332.42"/>
<polygon fill="grey" stroke="grey" stroke-width="2" points="248.96,-330.46 240.48,-324.1 243.15,-334.36 248.96,-330.46"/>
</g>
<!-- 26&#45;&gt;30 -->
<g id="edge49" class="edge">
<title>26&#45;&gt;30</title>
<path fill="none" stroke="grey" stroke-width="2" d="M293.06,-359.7C301.5,-351.14 311.82,-340.66 321.04,-331.3"/>
<polygon fill="grey" stroke="grey" stroke-width="2" points="323.61,-333.68 328.14,-324.1 318.63,-328.77 323.61,-333.68"/>
</g>
<!-- 27 -->
<g id="node28" class="node">
<title>27</title>
<path fill="none" stroke="#88d856" stroke-width="2" stroke-dasharray="5,2" d="M460,-108C460,-108 380,-108 380,-108 374,-108 368,-102 368,-96 368,-96 368,-84 368,-84 368,-78 374,-72 380,-72 380,-72 460,-72 460,-72 466,-72 472,-78 472,-84 472,-84 472,-96 472,-96 472,-102 466,-108 460,-108"/>
<text text-anchor="middle" x="420" y="-87.5" font-family="sans" font-size="10.00">sample_complete</text>
</g>
<!-- 27&#45;&gt;0 -->
<g id="edge4" class="edge">
<title>27&#45;&gt;0</title>
<path fill="none" stroke="grey" stroke-width="2" d="M461.1,-71.88C488.78,-60.34 524.97,-45.26 551.61,-34.16"/>
<polygon fill="grey" stroke="grey" stroke-width="2" points="553.08,-37.34 560.96,-30.27 550.38,-30.88 553.08,-37.34"/>
</g>
<!-- 28&#45;&gt;27 -->
<g id="edge43" class="edge">
<title>28&#45;&gt;27</title>
<path fill="none" stroke="grey" stroke-width="2" d="M365.04,-143.7C374.06,-135.05 385.12,-124.45 394.94,-115.03"/>
<polygon fill="grey" stroke="grey" stroke-width="2" points="397.37,-117.55 402.16,-108.1 392.52,-112.5 397.37,-117.55"/>
</g>
<!-- 29&#45;&gt;28 -->
<g id="edge45" class="edge">
<title>29&#45;&gt;28</title>
<path fill="none" stroke="grey" stroke-width="2" d="M347,-215.7C347,-207.98 347,-198.71 347,-190.11"/>
<polygon fill="grey" stroke="grey" stroke-width="2" points="350.5,-190.1 347,-180.1 343.5,-190.1 350.5,-190.1"/>
</g>
<!-- 30&#45;&gt;29 -->
<g id="edge46" class="edge">
<title>30&#45;&gt;29</title>
<path fill="none" stroke="grey" stroke-width="2" d="M345.49,-287.7C345.71,-279.98 345.98,-270.71 346.23,-262.11"/>
<polygon fill="grey" stroke="grey" stroke-width="2" points="349.72,-262.2 346.51,-252.1 342.73,-262 349.72,-262.2"/>
</g>
<!-- 31 -->
<g id="node32" class="node">
<title>31</title>
<path fill="none" stroke="#88d856" stroke-width="2" stroke-dasharray="5,2" d="M707,-180C707,-180 627,-180 627,-180 621,-180 615,-174 615,-168 615,-168 615,-156 615,-156 615,-150 621,-144 627,-144 627,-144 707,-144 707,-144 713,-144 719,-150 719,-156 719,-156 719,-168 719,-168 719,-174 713,-180 707,-180"/>
<text text-anchor="middle" x="667" y="-159.5" font-family="sans" font-size="10.00">sample_complete</text>
</g>
<!-- 31&#45;&gt;0 -->
<g id="edge5" class="edge">
<title>31&#45;&gt;0</title>
<path fill="none" stroke="grey" stroke-width="2" d="M657.47,-143.87C643.83,-119.35 618.62,-74.03 602.61,-45.26"/>
<polygon fill="grey" stroke="grey" stroke-width="2" points="605.48,-43.23 597.56,-36.19 599.37,-46.63 605.48,-43.23"/>
</g>
<!-- 32 -->
<g id="node33" class="node">
<title>32</title>
<path fill="none" stroke="#d87556" stroke-width="2" stroke-dasharray="5,2" d="M721,-252C721,-252 629,-252 629,-252 623,-252 617,-246 617,-240 617,-240 617,-228 617,-228 617,-222 623,-216 629,-216 629,-216 721,-216 721,-216 727,-216 733,-222 733,-228 733,-228 733,-240 733,-240 733,-246 727,-252 721,-252"/>
<text text-anchor="middle" x="675" y="-237" font-family="sans" font-size="10.00">merge_matrices</text>
<text text-anchor="middle" x="675" y="-226" font-family="sans" font-size="10.00">method: pseudobulk</text>
</g>
<!-- 32&#45;&gt;31 -->
<g id="edge51" class="edge">
<title>32&#45;&gt;31</title>
<path fill="none" stroke="grey" stroke-width="2" d="M673.02,-215.7C672.14,-207.98 671.08,-198.71 670.1,-190.11"/>
<polygon fill="grey" stroke="grey" stroke-width="2" points="673.57,-189.64 668.95,-180.1 666.61,-190.44 673.57,-189.64"/>
</g>
<!-- 33&#45;&gt;32 -->
<g id="edge52" class="edge">
<title>33&#45;&gt;32</title>
<path fill="none" stroke="grey" stroke-width="2" d="M610.22,-431.96C626.89,-423.84 643.42,-412.23 653,-396 661.13,-382.22 658.32,-375.09 653,-360 646.17,-340.62 630.83,-343.38 624,-324 618.68,-308.91 618.02,-302.84 624,-288 628.35,-277.21 636.06,-267.39 644.19,-259.21"/>
<polygon fill="grey" stroke="grey" stroke-width="2" points="646.79,-261.57 651.7,-252.18 642,-256.46 646.79,-261.57"/>
</g>
<!-- 33&#45;&gt;36 -->
<g id="edge60" class="edge">
<title>33&#45;&gt;36</title>
<path fill="none" stroke="grey" stroke-width="2" d="M612.08,-439.16C638.26,-431.66 667.74,-418.6 686,-396 699.92,-378.77 703.35,-353.5 703.64,-334.28"/>
<polygon fill="grey" stroke="grey" stroke-width="2" points="707.13,-334 703.5,-324.05 700.13,-334.09 707.13,-334"/>
</g>
<!-- 37 -->
<g id="node38" class="node">
<title>37</title>
<path fill="none" stroke="#56d88a" stroke-width="2" stroke-dasharray="5,2" d="M632,-396C632,-396 556,-396 556,-396 550,-396 544,-390 544,-384 544,-384 544,-372 544,-372 544,-366 550,-360 556,-360 556,-360 632,-360 632,-360 638,-360 644,-366 644,-372 644,-372 644,-384 644,-384 644,-390 638,-396 632,-396"/>
<text text-anchor="middle" x="594" y="-375.5" font-family="sans" font-size="10.00">samtools_collate</text>
</g>
<!-- 33&#45;&gt;37 -->
<g id="edge61" class="edge">
<title>33&#45;&gt;37</title>
<path fill="none" stroke="grey" stroke-width="2" d="M566.15,-431.7C570.4,-423.64 575.56,-413.89 580.27,-404.98"/>
<polygon fill="grey" stroke="grey" stroke-width="2" points="583.38,-406.58 584.96,-396.1 577.19,-403.31 583.38,-406.58"/>
</g>
<!-- 39 -->
<g id="node40" class="node">
<title>39</title>
<path fill="none" stroke="#d87556" stroke-width="2" stroke-dasharray="5,2" d="M576,-180C576,-180 492,-180 492,-180 486,-180 480,-174 480,-168 480,-168 480,-156 480,-156 480,-150 486,-144 492,-144 492,-144 576,-144 576,-144 582,-144 588,-150 588,-156 588,-156 588,-168 588,-168 588,-174 582,-180 576,-180"/>
<text text-anchor="middle" x="534" y="-165" font-family="sans" font-size="10.00">merge_matrices</text>
<text text-anchor="middle" x="534" y="-154" font-family="sans" font-size="10.00">method: individual</text>
</g>
<!-- 33&#45;&gt;39 -->
<g id="edge63" class="edge">
<title>33&#45;&gt;39</title>
<path fill="none" stroke="grey" stroke-width="2" d="M536.07,-431.96C525.47,-422.37 513.14,-409.6 505,-396 470.56,-338.47 470.12,-318.28 460,-252 457.59,-236.18 452.69,-230.23 460,-216 466.27,-203.79 476.81,-193.77 487.99,-185.85"/>
<polygon fill="grey" stroke="grey" stroke-width="2" points="490.16,-188.61 496.61,-180.2 486.33,-182.75 490.16,-188.61"/>
</g>
<!-- 33&#45;&gt;40 -->
<g id="edge67" class="edge">
<title>33&#45;&gt;40</title>
<path fill="none" stroke="grey" stroke-width="2" d="M545.34,-431.77C530.42,-408.52 505.5,-365.26 497,-324 493.77,-308.33 492.2,-303.26 497,-288 500.1,-278.15 505.75,-268.53 511.72,-260.25"/>
<polygon fill="grey" stroke="grey" stroke-width="2" points="514.63,-262.21 517.96,-252.15 509.09,-257.94 514.63,-262.21"/>
</g>
<!-- 41 -->
<g id="node42" class="node">
<title>41</title>
<path fill="none" stroke="#d8bc56" stroke-width="2" stroke-dasharray="5,2" d="M552,-324C552,-324 518,-324 518,-324 512,-324 506,-318 506,-312 506,-312 506,-300 506,-300 506,-294 512,-288 518,-288 518,-288 552,-288 552,-288 558,-288 564,-294 564,-300 564,-300 564,-312 564,-312 564,-318 558,-324 552,-324"/>
<text text-anchor="middle" x="535" y="-303.5" font-family="sans" font-size="10.00">cell_sort</text>
</g>
<!-- 33&#45;&gt;41 -->
<g id="edge69" class="edge">
<title>33&#45;&gt;41</title>
<path fill="none" stroke="grey" stroke-width="2" d="M547.87,-431.88C542.99,-421.76 537.49,-408.51 535,-396 530.95,-375.67 531.14,-352.21 532.25,-334.48"/>
<polygon fill="grey" stroke="grey" stroke-width="2" points="535.76,-334.49 533.02,-324.26 528.78,-333.96 535.76,-334.49"/>
</g>
<!-- 34 -->
<g id="node35" class="node">
<title>34</title>
<path fill="none" stroke="#afd856" stroke-width="2" stroke-dasharray="5,2" d="M583.5,-540C583.5,-540 530.5,-540 530.5,-540 524.5,-540 518.5,-534 518.5,-528 518.5,-528 518.5,-516 518.5,-516 518.5,-510 524.5,-504 530.5,-504 530.5,-504 583.5,-504 583.5,-504 589.5,-504 595.5,-510 595.5,-516 595.5,-516 595.5,-528 595.5,-528 595.5,-534 589.5,-540 583.5,-540"/>
<text text-anchor="middle" x="557" y="-519.5" font-family="sans" font-size="10.00">untar_fastqs</text>
</g>
<!-- 34&#45;&gt;33 -->
<g id="edge54" class="edge">
<title>34&#45;&gt;33</title>
<path fill="none" stroke="grey" stroke-width="2" d="M557,-503.7C557,-495.98 557,-486.71 557,-478.11"/>
<polygon fill="grey" stroke="grey" stroke-width="2" points="560.5,-478.1 557,-468.1 553.5,-478.1 560.5,-478.1"/>
</g>
<!-- 35 -->
<g id="node36" class="node">
<title>35</title>
<path fill="none" stroke="#56d8d0" stroke-width="2" stroke-dasharray="5,2" d="M635.5,-612C635.5,-612 478.5,-612 478.5,-612 472.5,-612 466.5,-606 466.5,-600 466.5,-600 466.5,-588 466.5,-588 466.5,-582 472.5,-576 478.5,-576 478.5,-576 635.5,-576 635.5,-576 641.5,-576 647.5,-582 647.5,-588 647.5,-588 647.5,-600 647.5,-600 647.5,-606 641.5,-612 635.5,-612"/>
<text text-anchor="middle" x="557" y="-597" font-family="sans" font-size="10.00">download_fastqs</text>
<text text-anchor="middle" x="557" y="-586" font-family="sans" font-size="10.00">s: 500_PBMC_3p_LT_Chromium_X</text>
</g>
<!-- 35&#45;&gt;34 -->
<g id="edge57" class="edge">
<title>35&#45;&gt;34</title>
<path fill="none" stroke="grey" stroke-width="2" d="M557,-575.7C557,-567.98 557,-558.71 557,-550.11"/>
<polygon fill="grey" stroke="grey" stroke-width="2" points="560.5,-550.1 557,-540.1 553.5,-550.1 560.5,-550.1"/>
</g>
<!-- 36&#45;&gt;32 -->
<g id="edge53" class="edge">
<title>36&#45;&gt;32</title>
<path fill="none" stroke="grey" stroke-width="2" d="M695.33,-287.7C692.29,-279.81 688.62,-270.3 685.24,-261.55"/>
<polygon fill="grey" stroke="grey" stroke-width="2" points="688.46,-260.17 681.6,-252.1 681.93,-262.69 688.46,-260.17"/>
</g>
<!-- 37&#45;&gt;36 -->
<g id="edge58" class="edge">
<title>37&#45;&gt;36</title>
<path fill="none" stroke="grey" stroke-width="2" d="M620.42,-359.88C634.41,-350.81 651.78,-339.55 666.89,-329.76"/>
<polygon fill="grey" stroke="grey" stroke-width="2" points="668.99,-332.57 675.48,-324.19 665.18,-326.69 668.99,-332.57"/>
</g>
<!-- 37&#45;&gt;41 -->
<g id="edge68" class="edge">
<title>37&#45;&gt;41</title>
<path fill="none" stroke="grey" stroke-width="2" d="M579.42,-359.7C572.34,-351.3 563.72,-341.07 555.95,-331.86"/>
<polygon fill="grey" stroke="grey" stroke-width="2" points="558.54,-329.49 549.42,-324.1 553.19,-334.01 558.54,-329.49"/>
</g>
<!-- 38 -->
<g id="node39" class="node">
<title>38</title>
<path fill="none" stroke="#88d856" stroke-width="2" stroke-dasharray="5,2" d="M588,-108C588,-108 508,-108 508,-108 502,-108 496,-102 496,-96 496,-96 496,-84 496,-84 496,-78 502,-72 508,-72 508,-72 588,-72 588,-72 594,-72 600,-78 600,-84 600,-84 600,-96 600,-96 600,-102 594,-108 588,-108"/>
<text text-anchor="middle" x="548" y="-87.5" font-family="sans" font-size="10.00">sample_complete</text>
</g>
<!-- 38&#45;&gt;0 -->
<g id="edge6" class="edge">
<title>38&#45;&gt;0</title>
<path fill="none" stroke="grey" stroke-width="2" d="M557.89,-71.7C562.49,-63.64 568.06,-53.89 573.15,-44.98"/>
<polygon fill="grey" stroke="grey" stroke-width="2" points="576.3,-46.52 578.23,-36.1 570.23,-43.05 576.3,-46.52"/>
</g>
<!-- 39&#45;&gt;38 -->
<g id="edge62" class="edge">
<title>39&#45;&gt;38</title>
<path fill="none" stroke="grey" stroke-width="2" d="M537.46,-143.7C539,-135.98 540.86,-126.71 542.58,-118.11"/>
<polygon fill="grey" stroke="grey" stroke-width="2" points="546.05,-118.6 544.58,-108.1 539.19,-117.22 546.05,-118.6"/>
</g>
<!-- 40&#45;&gt;39 -->
<g id="edge64" class="edge">
<title>40&#45;&gt;39</title>
<path fill="none" stroke="grey" stroke-width="2" d="M534,-215.7C534,-207.98 534,-198.71 534,-190.11"/>
<polygon fill="grey" stroke="grey" stroke-width="2" points="537.5,-190.1 534,-180.1 530.5,-190.1 537.5,-190.1"/>
</g>
<!-- 41&#45;&gt;40 -->
<g id="edge65" class="edge">
<title>41&#45;&gt;40</title>
<path fill="none" stroke="grey" stroke-width="2" d="M534.75,-287.7C534.64,-279.98 534.51,-270.71 534.39,-262.11"/>
<polygon fill="grey" stroke="grey" stroke-width="2" points="537.89,-262.05 534.24,-252.1 530.89,-262.15 537.89,-262.05"/>
</g>
</g>
</svg>
