<?xml version="1.0" encoding="UTF-8" standalone="no"?>
<!DOCTYPE svg PUBLIC "-//W3C//DTD SVG 1.1//EN"
 "http://www.w3.org/Graphics/SVG/1.1/DTD/svg11.dtd">
<!-- Generated by graphviz version 2.49.3 (20211104.1129)
 -->
<!-- Title: snakemake_dag Pages: 1 -->
<svg width="985pt" height="1494pt"
 viewBox="0.00 0.00 984.92 1494.00" xmlns="http://www.w3.org/2000/svg" xmlns:xlink="http://www.w3.org/1999/xlink">
<g id="graph0" class="graph" transform="scale(1 1) rotate(0) translate(4 1490)">
<title>snakemake_dag</title>
<polygon fill="white" stroke="transparent" points="-4,4 -4,-1490 980.92,-1490 980.92,4 -4,4"/>
<!-- 0 -->
<g id="node1" class="node">
<title>0</title>
<text text-anchor="start" x="467.42" y="-107.6" font-family="sans" font-weight="bold" font-size="18.00">all</text>
<text text-anchor="start" x="284.42" y="-83.8" font-family="sans" font-size="10.00"> </text>
<text text-anchor="start" x="288.42" y="-83.8" font-family="sans" font-weight="bold" font-size="14.00">↪ input</text>
<text text-anchor="start" x="346.42" y="-83.8" font-family="sans" font-size="10.00"> </text>
<text text-anchor="start" x="284.42" y="-64" font-family="monospace" font-size="10.00">results/completed/10k_PBMC_3p_nextgem_Chromium_X_completed.txt</text>
<text text-anchor="start" x="284.42" y="-46" font-family="monospace" font-size="10.00">results/completed/20k_PBMC_3p_HT_nextgem_Chromium_X_completed.txt</text>
<text text-anchor="start" x="284.42" y="-28" font-family="monospace" font-size="10.00">results/completed/500_PBMC_3p_LT_Chromium_X_completed.txt</text>
<text text-anchor="start" x="668.42" y="-10" font-family="sans" font-size="10.00"> &#160;</text>
<polygon fill="#57d9c6" stroke="#57d9c6" points="278.42,-98 278.42,-98 682.42,-98 682.42,-98 278.42,-98"/>
<polygon fill="#57d9c6" stroke="#57d9c6" points="278.42,-22 278.42,-22 682.42,-22 682.42,-22 278.42,-22"/>
<polygon fill="none" stroke="#57d9c6" stroke-width="2" points="277.92,-1 277.92,-127 680.92,-127 680.92,-1 277.92,-1"/>
</g>
<!-- 1 -->
<g id="node2" class="node">
<title>1</title>
<text text-anchor="start" x="392.92" y="-275.6" font-family="sans" font-weight="bold" font-size="18.00">sample_complete</text>
<text text-anchor="start" x="296.42" y="-251.8" font-family="sans" font-size="10.00"> </text>
<text text-anchor="start" x="300.42" y="-251.8" font-family="sans" font-weight="bold" font-size="14.00">↪ input</text>
<text text-anchor="start" x="358.42" y="-251.8" font-family="sans" font-size="10.00"> </text>
<text text-anchor="start" x="296.42" y="-232" font-family="monospace" font-size="10.00">results/telescope/{s}/{s}&#45;TE_counts.mtx</text>
<text text-anchor="start" x="296.42" y="-214" font-family="monospace" font-size="10.00">results/telescope_individual/{s}/{s}_individual&#45;TE_counts.mtx</text>
<text text-anchor="start" x="585.42" y="-193.8" font-family="sans" font-size="10.00"> </text>
<text text-anchor="start" x="589.42" y="-193.8" font-family="sans" font-weight="bold" font-size="14.00">output →</text>
<text text-anchor="start" x="659.42" y="-193.8" font-family="sans" font-size="10.00"> </text>
<text text-anchor="start" x="296.42" y="-174" font-family="monospace" font-size="10.00">results/completed/{s}_completed.txt</text>
<polygon fill="#57c6d9" stroke="#57c6d9" points="290.42,-266 290.42,-266 670.42,-266 670.42,-266 290.42,-266"/>
<polygon fill="#57c6d9" stroke="#57c6d9" points="290.42,-208 290.42,-208 670.42,-208 670.42,-208 290.42,-208"/>
<polygon fill="none" stroke="#57c6d9" stroke-width="2" points="289.92,-165 289.92,-295 668.92,-295 668.92,-165 289.92,-165"/>
</g>
<!-- 1&#45;&gt;0 -->
<g id="edge1" class="edge">
<title>1&#45;&gt;0</title>
<path fill="none" stroke="grey" stroke-width="2" d="M479.42,-163.71C479.42,-155.39 479.42,-146.83 479.42,-138.4"/>
<polygon fill="grey" stroke="grey" stroke-width="2" points="482.92,-138.19 479.42,-128.19 475.92,-138.19 482.92,-138.19"/>
</g>
<!-- 2 -->
<g id="node3" class="node">
<title>2</title>
<text text-anchor="start" x="583.42" y="-647.6" font-family="sans" font-weight="bold" font-size="18.00">stellarscope_pseudobulk</text>
<text text-anchor="start" x="496.42" y="-623.8" font-family="sans" font-size="10.00"> </text>
<text text-anchor="start" x="500.42" y="-623.8" font-family="sans" font-weight="bold" font-size="14.00">↪ input</text>
<text text-anchor="start" x="558.42" y="-623.8" font-family="sans" font-size="10.00"> </text>
<text text-anchor="start" x="496.42" y="-604" font-family="monospace" font-size="10.00">resources/annotation/retro.gtf</text>
<text text-anchor="start" x="496.42" y="-586" font-family="monospace" font-size="10.00">results/starsolo_alignment/{s}/{s}.Solo.out/Gene/filtered/barcodes.tsv</text>
<text text-anchor="start" x="496.42" y="-568" font-family="monospace" font-size="10.00">results/starsolo_alignment/{s}/{s}.collated.out.bam</text>
<text text-anchor="start" x="839.42" y="-547.8" font-family="sans" font-size="10.00"> </text>
<text text-anchor="start" x="843.42" y="-547.8" font-family="sans" font-weight="bold" font-size="14.00">output →</text>
<text text-anchor="start" x="913.42" y="-547.8" font-family="sans" font-size="10.00"> </text>
<text text-anchor="start" x="496.42" y="-528" font-family="monospace" font-size="10.00">results/telescope/{s}/{s}&#45;TE_counts.mtx</text>
<polygon fill="#d95757" stroke="#d95757" points="490.42,-638 490.42,-638 924.42,-638 924.42,-638 490.42,-638"/>
<polygon fill="#d95757" stroke="#d95757" points="490.42,-562 490.42,-562 924.42,-562 924.42,-562 490.42,-562"/>
<polygon fill="none" stroke="#d95757" stroke-width="2" points="489.92,-519 489.92,-667 922.92,-667 922.92,-519 489.92,-519"/>
</g>
<!-- 2&#45;&gt;1 -->
<g id="edge2" class="edge">
<title>2&#45;&gt;1</title>
<path fill="none" stroke="grey" stroke-width="2" d="M679.63,-517.84C658.13,-463.62 624.75,-389.77 583.42,-332 576.5,-322.32 568.59,-312.78 560.29,-303.64"/>
<polygon fill="grey" stroke="grey" stroke-width="2" points="562.62,-301.01 553.24,-296.08 557.5,-305.78 562.62,-301.01"/>
</g>
<!-- 3 -->
<g id="node4" class="node">
<title>3</title>
<text text-anchor="start" x="396.92" y="-797.6" font-family="sans" font-weight="bold" font-size="18.00">samtools_collate</text>
<text text-anchor="start" x="287.42" y="-773.8" font-family="sans" font-size="10.00"> </text>
<text text-anchor="start" x="291.42" y="-773.8" font-family="sans" font-weight="bold" font-size="14.00">↪ input</text>
<text text-anchor="start" x="349.42" y="-773.8" font-family="sans" font-size="10.00"> </text>
<text text-anchor="start" x="287.42" y="-754" font-family="monospace" font-size="10.00">results/starsolo_alignment/{s}/{s}.Aligned.sortedByCoord.out.bam</text>
<text text-anchor="start" x="594.42" y="-733.8" font-family="sans" font-size="10.00"> </text>
<text text-anchor="start" x="598.42" y="-733.8" font-family="sans" font-weight="bold" font-size="14.00">output →</text>
<text text-anchor="start" x="668.42" y="-733.8" font-family="sans" font-size="10.00"> </text>
<text text-anchor="start" x="287.42" y="-714" font-family="monospace" font-size="10.00">results/starsolo_alignment/{s}/{s}.collated.out.bam</text>
<polygon fill="#7cd957" stroke="#7cd957" points="281.42,-788 281.42,-788 679.42,-788 679.42,-788 281.42,-788"/>
<polygon fill="#7cd957" stroke="#7cd957" points="281.42,-748 281.42,-748 679.42,-748 679.42,-748 281.42,-748"/>
<polygon fill="none" stroke="#7cd957" stroke-width="2" points="280.92,-705 280.92,-817 677.92,-817 677.92,-705 280.92,-705"/>
</g>
<!-- 3&#45;&gt;2 -->
<g id="edge4" class="edge">
<title>3&#45;&gt;2</title>
<path fill="none" stroke="grey" stroke-width="2" d="M556.27,-703.8C569.39,-694.21 583.24,-684.08 597.01,-674.01"/>
<polygon fill="grey" stroke="grey" stroke-width="2" points="599.1,-676.82 605.1,-668.09 594.96,-671.17 599.1,-676.82"/>
</g>
<!-- 13 -->
<g id="node14" class="node">
<title>13</title>
<text text-anchor="start" x="211.92" y="-638.6" font-family="sans" font-weight="bold" font-size="18.00">cell_sort</text>
<text text-anchor="start" x="43.42" y="-614.8" font-family="sans" font-size="10.00"> </text>
<text text-anchor="start" x="47.42" y="-614.8" font-family="sans" font-weight="bold" font-size="14.00">↪ input</text>
<text text-anchor="start" x="105.42" y="-614.8" font-family="sans" font-size="10.00"> </text>
<text text-anchor="start" x="43.42" y="-595" font-family="monospace" font-size="10.00">results/starsolo_alignment/{s}/{s}.Solo.out/Gene/filtered/barcodes.tsv</text>
<text text-anchor="start" x="43.42" y="-577" font-family="monospace" font-size="10.00">results/starsolo_alignment/{s}/{s}.collated.out.bam</text>
<text text-anchor="start" x="386.42" y="-556.8" font-family="sans" font-size="10.00"> </text>
<text text-anchor="start" x="390.42" y="-556.8" font-family="sans" font-weight="bold" font-size="14.00">output →</text>
<text text-anchor="start" x="460.42" y="-556.8" font-family="sans" font-size="10.00"> </text>
<text text-anchor="start" x="43.42" y="-537" font-family="monospace" font-size="10.00">results/starsolo_alignment/{s}/{s}.Aligned.sortedByCB.bam</text>
<polygon fill="#57d957" stroke="#57d957" points="37.42,-629 37.42,-629 471.42,-629 471.42,-629 37.42,-629"/>
<polygon fill="#57d957" stroke="#57d957" points="37.42,-571 37.42,-571 471.42,-571 471.42,-571 37.42,-571"/>
<polygon fill="none" stroke="#57d957" stroke-width="2" points="36.92,-528 36.92,-658 469.92,-658 469.92,-528 36.92,-528"/>
</g>
<!-- 3&#45;&gt;13 -->
<g id="edge21" class="edge">
<title>3&#45;&gt;13</title>
<path fill="none" stroke="grey" stroke-width="2" d="M402.91,-703.8C385.92,-691.32 367.7,-677.94 350.02,-664.95"/>
<polygon fill="grey" stroke="grey" stroke-width="2" points="352.07,-662.12 341.94,-659.02 347.93,-667.76 352.07,-662.12"/>
</g>
<!-- 4 -->
<g id="node5" class="node">
<title>4</title>
<text text-anchor="start" x="339.42" y="-1001.6" font-family="sans" font-weight="bold" font-size="18.00">starsolo_alignment</text>
<text text-anchor="start" x="224.42" y="-977.8" font-family="sans" font-size="10.00"> </text>
<text text-anchor="start" x="228.42" y="-977.8" font-family="sans" font-weight="bold" font-size="14.00">↪ input</text>
<text text-anchor="start" x="286.42" y="-977.8" font-family="sans" font-size="10.00"> </text>
<text text-anchor="start" x="224.42" y="-958" font-family="monospace" font-size="10.00">data/{s}_fastqs</text>
<text text-anchor="start" x="224.42" y="-940" font-family="monospace" font-size="10.00">resources/star_index/GRCh38_gencode38</text>
<text text-anchor="start" x="224.42" y="-922" font-family="monospace" font-size="10.00">resources/whitelist/whitelist.10x.v3.txt</text>
<text text-anchor="start" x="567.42" y="-901.8" font-family="sans" font-size="10.00"> </text>
<text text-anchor="start" x="571.42" y="-901.8" font-family="sans" font-weight="bold" font-size="14.00">output →</text>
<text text-anchor="start" x="641.42" y="-901.8" font-family="sans" font-size="10.00"> </text>
<text text-anchor="start" x="224.42" y="-882" font-family="monospace" font-size="10.00">results/starsolo_alignment/{s}/{s}.Aligned.sortedByCoord.out.bam</text>
<text text-anchor="start" x="224.42" y="-864" font-family="monospace" font-size="10.00">results/starsolo_alignment/{s}/{s}.Solo.out/Gene/filtered/barcodes.tsv</text>
<polygon fill="#a1d957" stroke="#a1d957" points="218.42,-992 218.42,-992 652.42,-992 652.42,-992 218.42,-992"/>
<polygon fill="#a1d957" stroke="#a1d957" points="218.42,-916 218.42,-916 652.42,-916 652.42,-916 218.42,-916"/>
<polygon fill="none" stroke="#a1d957" stroke-width="2" points="217.92,-855 217.92,-1021 650.92,-1021 650.92,-855 217.92,-855"/>
</g>
<!-- 4&#45;&gt;2 -->
<g id="edge6" class="edge">
<title>4&#45;&gt;2</title>
<path fill="none" stroke="grey" stroke-width="2" d="M651.99,-855.95C665.44,-844.83 677.51,-832.24 687.42,-818 715.35,-777.87 720.49,-723.37 718.46,-678.18"/>
<polygon fill="grey" stroke="grey" stroke-width="2" points="721.95,-677.88 717.89,-668.1 714.96,-678.28 721.95,-677.88"/>
</g>
<!-- 4&#45;&gt;3 -->
<g id="edge7" class="edge">
<title>4&#45;&gt;3</title>
<path fill="none" stroke="grey" stroke-width="2" d="M455.8,-853.86C458.02,-845.24 460.25,-836.56 462.41,-828.16"/>
<polygon fill="grey" stroke="grey" stroke-width="2" points="465.81,-829.01 464.91,-818.45 459.03,-827.26 465.81,-829.01"/>
</g>
<!-- 12 -->
<g id="node13" class="node">
<title>12</title>
<text text-anchor="start" x="242.92" y="-461.6" font-family="sans" font-weight="bold" font-size="18.00">stellarscope_individual</text>
<text text-anchor="start" x="147.42" y="-437.8" font-family="sans" font-size="10.00"> </text>
<text text-anchor="start" x="151.42" y="-437.8" font-family="sans" font-weight="bold" font-size="14.00">↪ input</text>
<text text-anchor="start" x="209.42" y="-437.8" font-family="sans" font-size="10.00"> </text>
<text text-anchor="start" x="147.42" y="-418" font-family="monospace" font-size="10.00">resources/annotation/retro.gtf</text>
<text text-anchor="start" x="147.42" y="-400" font-family="monospace" font-size="10.00">results/starsolo_alignment/{s}/{s}.Aligned.sortedByCB.bam</text>
<text text-anchor="start" x="147.42" y="-382" font-family="monospace" font-size="10.00">results/starsolo_alignment/{s}/{s}.Solo.out/Gene/filtered/barcodes.tsv</text>
<text text-anchor="start" x="490.42" y="-361.8" font-family="sans" font-size="10.00"> </text>
<text text-anchor="start" x="494.42" y="-361.8" font-family="sans" font-weight="bold" font-size="14.00">output →</text>
<text text-anchor="start" x="564.42" y="-361.8" font-family="sans" font-size="10.00"> </text>
<text text-anchor="start" x="147.42" y="-342" font-family="monospace" font-size="10.00">results/telescope_individual/{s}/{s}_individual&#45;TE_counts.mtx</text>
<polygon fill="#577cd9" stroke="#577cd9" points="141.42,-452 141.42,-452 575.42,-452 575.42,-452 141.42,-452"/>
<polygon fill="#577cd9" stroke="#577cd9" points="141.42,-376 141.42,-376 575.42,-376 575.42,-376 141.42,-376"/>
<polygon fill="none" stroke="#577cd9" stroke-width="2" points="140.92,-333 140.92,-481 573.92,-481 573.92,-333 140.92,-333"/>
</g>
<!-- 4&#45;&gt;12 -->
<g id="edge19" class="edge">
<title>4&#45;&gt;12</title>
<path fill="none" stroke="grey" stroke-width="2" d="M227.55,-853.93C149.41,-810.99 69.1,-750.04 26.42,-668 -4.35,-608.86 -12.58,-572.07 26.42,-518 51.98,-482.58 89.41,-458.38 130,-441.9"/>
<polygon fill="grey" stroke="grey" stroke-width="2" points="131.49,-445.08 139.54,-438.19 128.95,-438.56 131.49,-445.08"/>
</g>
<!-- 4&#45;&gt;13 -->
<g id="edge22" class="edge">
<title>4&#45;&gt;13</title>
<path fill="none" stroke="grey" stroke-width="2" d="M297.7,-853.99C287.1,-843.05 277.71,-831.05 270.42,-818 245.4,-773.21 241.61,-715.3 243.83,-669.59"/>
<polygon fill="grey" stroke="grey" stroke-width="2" points="247.33,-669.62 244.43,-659.43 240.35,-669.21 247.33,-669.62"/>
</g>
<!-- 5 -->
<g id="node6" class="node">
<title>5</title>
<text text-anchor="start" x="371.42" y="-1160.6" font-family="sans" font-weight="bold" font-size="18.00">untar_fastqs</text>
<text text-anchor="start" x="371.42" y="-1136.8" font-family="sans" font-size="10.00"> </text>
<text text-anchor="start" x="375.42" y="-1136.8" font-family="sans" font-weight="bold" font-size="14.00">↪ input</text>
<text text-anchor="start" x="433.42" y="-1136.8" font-family="sans" font-size="10.00"> </text>
<text text-anchor="start" x="371.42" y="-1117" font-family="monospace" font-size="10.00">data/{s}_fastqs.tar</text>
<text text-anchor="start" x="419.42" y="-1096.8" font-family="sans" font-size="10.00"> </text>
<text text-anchor="start" x="423.42" y="-1096.8" font-family="sans" font-weight="bold" font-size="14.00">output →</text>
<text text-anchor="start" x="493.42" y="-1096.8" font-family="sans" font-size="10.00"> </text>
<text text-anchor="start" x="371.42" y="-1077" font-family="monospace" font-size="10.00">data/{s}_fastqs</text>
<polygon fill="#d9c657" stroke="#d9c657" points="365.42,-1151 365.42,-1151 504.42,-1151 504.42,-1151 365.42,-1151"/>
<polygon fill="#d9c657" stroke="#d9c657" points="365.42,-1111 365.42,-1111 504.42,-1111 504.42,-1111 365.42,-1111"/>
<polygon fill="none" stroke="#d9c657" stroke-width="2" points="365.42,-1068 365.42,-1180 503.42,-1180 503.42,-1068 365.42,-1068"/>
</g>
<!-- 5&#45;&gt;4 -->
<g id="edge8" class="edge">
<title>5&#45;&gt;4</title>
<path fill="none" stroke="grey" stroke-width="2" d="M434.42,-1066.79C434.42,-1055.92 434.42,-1044.26 434.42,-1032.57"/>
<polygon fill="grey" stroke="grey" stroke-width="2" points="437.92,-1032.3 434.42,-1022.3 430.92,-1032.3 437.92,-1032.3"/>
</g>
<!-- 6 -->
<g id="node7" class="node">
<title>6</title>
<text text-anchor="start" x="412.42" y="-1317.6" font-family="sans" font-weight="bold" font-size="18.00">download_fastqs</text>
<text text-anchor="start" x="412.42" y="-1296" font-family="sans" font-size="10.00"> &#160;</text>
<text text-anchor="start" x="502.42" y="-1275.8" font-family="sans" font-size="10.00"> </text>
<text text-anchor="start" x="506.42" y="-1275.8" font-family="sans" font-weight="bold" font-size="14.00">output →</text>
<text text-anchor="start" x="576.42" y="-1275.8" font-family="sans" font-size="10.00"> </text>
<text text-anchor="start" x="412.42" y="-1256" font-family="monospace" font-size="10.00">data/{s}_fastqs.tar</text>
<polygon fill="#d9a157" stroke="#d9a157" points="406.42,-1308 406.42,-1308 587.42,-1308 587.42,-1308 406.42,-1308"/>
<polygon fill="#d9a157" stroke="#d9a157" points="406.42,-1290 406.42,-1290 587.42,-1290 587.42,-1290 406.42,-1290"/>
<polygon fill="none" stroke="#d9a157" stroke-width="2" points="406.42,-1247 406.42,-1337 586.42,-1337 586.42,-1247 406.42,-1247"/>
</g>
<!-- 6&#45;&gt;5 -->
<g id="edge11" class="edge">
<title>6&#45;&gt;5</title>
<path fill="none" stroke="grey" stroke-width="2" d="M479.48,-1245.64C473.16,-1228.72 465.85,-1209.15 458.98,-1190.76"/>
<polygon fill="grey" stroke="grey" stroke-width="2" points="462.22,-1189.42 455.44,-1181.27 455.66,-1191.86 462.22,-1189.42"/>
</g>
<!-- 7 -->
<g id="node8" class="node">
<title>7</title>
<text text-anchor="start" x="545.42" y="-1169.6" font-family="sans" font-weight="bold" font-size="18.00">index_genome_star</text>
<text text-anchor="start" x="530.42" y="-1145.8" font-family="sans" font-size="10.00"> </text>
<text text-anchor="start" x="534.42" y="-1145.8" font-family="sans" font-weight="bold" font-size="14.00">↪ input</text>
<text text-anchor="start" x="592.42" y="-1145.8" font-family="sans" font-size="10.00"> </text>
<text text-anchor="start" x="530.42" y="-1126" font-family="monospace" font-size="10.00">resources/downloads/gencode38.gtf.gz</text>
<text text-anchor="start" x="530.42" y="-1108" font-family="monospace" font-size="10.00">resources/sequences/GRCh38.fa.gz</text>
<text text-anchor="start" x="675.42" y="-1087.8" font-family="sans" font-size="10.00"> </text>
<text text-anchor="start" x="679.42" y="-1087.8" font-family="sans" font-weight="bold" font-size="14.00">output →</text>
<text text-anchor="start" x="749.42" y="-1087.8" font-family="sans" font-size="10.00"> </text>
<text text-anchor="start" x="530.42" y="-1068" font-family="monospace" font-size="10.00">resources/star_index/GRCh38_gencode38</text>
<polygon fill="#57a1d9" stroke="#57a1d9" points="524.42,-1160 524.42,-1160 760.42,-1160 760.42,-1160 524.42,-1160"/>
<polygon fill="#57a1d9" stroke="#57a1d9" points="524.42,-1102 524.42,-1102 760.42,-1102 760.42,-1102 524.42,-1102"/>
<polygon fill="none" stroke="#57a1d9" stroke-width="2" points="523.92,-1059 523.92,-1189 758.92,-1189 758.92,-1059 523.92,-1059"/>
</g>
<!-- 7&#45;&gt;4 -->
<g id="edge9" class="edge">
<title>7&#45;&gt;4</title>
<path fill="none" stroke="grey" stroke-width="2" d="M568.15,-1057.87C557.57,-1048.46 546.52,-1038.64 535.51,-1028.86"/>
<polygon fill="grey" stroke="grey" stroke-width="2" points="537.7,-1026.12 527.9,-1022.09 533.05,-1031.35 537.7,-1026.12"/>
</g>
<!-- 8 -->
<g id="node9" class="node">
<title>8</title>
<text text-anchor="start" x="687.42" y="-1337.6" font-family="sans" font-weight="bold" font-size="18.00">untar_genome</text>
<text text-anchor="start" x="651.42" y="-1313.8" font-family="sans" font-size="10.00"> </text>
<text text-anchor="start" x="655.42" y="-1313.8" font-family="sans" font-weight="bold" font-size="14.00">↪ input</text>
<text text-anchor="start" x="713.42" y="-1313.8" font-family="sans" font-size="10.00"> </text>
<text text-anchor="start" x="651.42" y="-1294" font-family="monospace" font-size="10.00">resources/downloads/GRCh38.fa.tar.gz</text>
<text text-anchor="start" x="790.42" y="-1273.8" font-family="sans" font-size="10.00"> </text>
<text text-anchor="start" x="794.42" y="-1273.8" font-family="sans" font-weight="bold" font-size="14.00">output →</text>
<text text-anchor="start" x="864.42" y="-1273.8" font-family="sans" font-size="10.00"> </text>
<text text-anchor="start" x="651.42" y="-1254" font-family="monospace" font-size="10.00">resources/sequences/GRCh38.fa.gz</text>
<text text-anchor="start" x="651.42" y="-1236" font-family="monospace" font-size="10.00">resources/sequences/GRCh38.fa.gz.fai</text>
<polygon fill="#c6d957" stroke="#c6d957" points="645.42,-1328 645.42,-1328 875.42,-1328 875.42,-1328 645.42,-1328"/>
<polygon fill="#c6d957" stroke="#c6d957" points="645.42,-1288 645.42,-1288 875.42,-1288 875.42,-1288 645.42,-1288"/>
<polygon fill="none" stroke="#c6d957" stroke-width="2" points="644.92,-1227 644.92,-1357 873.92,-1357 873.92,-1227 644.92,-1227"/>
</g>
<!-- 8&#45;&gt;7 -->
<g id="edge13" class="edge">
<title>8&#45;&gt;7</title>
<path fill="none" stroke="grey" stroke-width="2" d="M713.12,-1225.87C706.75,-1216.9 700.16,-1207.63 693.69,-1198.53"/>
<polygon fill="grey" stroke="grey" stroke-width="2" points="696.43,-1196.34 687.78,-1190.22 690.72,-1200.39 696.43,-1196.34"/>
</g>
<!-- 11 -->
<g id="node12" class="node">
<title>11</title>
<text text-anchor="start" x="751.92" y="-983.6" font-family="sans" font-weight="bold" font-size="18.00">telescope_annotation</text>
<text text-anchor="start" x="747.42" y="-959.8" font-family="sans" font-size="10.00"> </text>
<text text-anchor="start" x="751.42" y="-959.8" font-family="sans" font-weight="bold" font-size="14.00">↪ input</text>
<text text-anchor="start" x="809.42" y="-959.8" font-family="sans" font-size="10.00"> </text>
<text text-anchor="start" x="747.42" y="-940" font-family="monospace" font-size="10.00">resources/downloads/retro.hg38.v1.gtf</text>
<text text-anchor="start" x="747.42" y="-922" font-family="monospace" font-size="10.00">resources/sequences/GRCh38.fa.gz.fai</text>
<text text-anchor="start" x="892.42" y="-901.8" font-family="sans" font-size="10.00"> </text>
<text text-anchor="start" x="896.42" y="-901.8" font-family="sans" font-weight="bold" font-size="14.00">output →</text>
<text text-anchor="start" x="966.42" y="-901.8" font-family="sans" font-size="10.00"> </text>
<text text-anchor="start" x="747.42" y="-882" font-family="monospace" font-size="10.00">resources/annotation/retro.gtf</text>
<polygon fill="#57d9a1" stroke="#57d9a1" points="741.42,-974 741.42,-974 977.42,-974 977.42,-974 741.42,-974"/>
<polygon fill="#57d9a1" stroke="#57d9a1" points="741.42,-916 741.42,-916 977.42,-916 977.42,-916 741.42,-916"/>
<polygon fill="none" stroke="#57d9a1" stroke-width="2" points="740.92,-873 740.92,-1003 975.92,-1003 975.92,-873 740.92,-873"/>
</g>
<!-- 8&#45;&gt;11 -->
<g id="edge17" class="edge">
<title>8&#45;&gt;11</title>
<path fill="none" stroke="grey" stroke-width="2" d="M777.81,-1225.62C794.69,-1165.6 819.69,-1076.73 837.36,-1013.89"/>
<polygon fill="grey" stroke="grey" stroke-width="2" points="840.79,-1014.61 840.13,-1004.03 834.06,-1012.71 840.79,-1014.61"/>
</g>
<!-- 9 -->
<g id="node10" class="node">
<title>9</title>
<text text-anchor="start" x="598.42" y="-1465.6" font-family="sans" font-weight="bold" font-size="18.00">download_remote</text>
<text text-anchor="start" x="598.42" y="-1444" font-family="sans" font-size="10.00"> &#160;</text>
<text text-anchor="start" x="698.42" y="-1423.8" font-family="sans" font-size="10.00"> </text>
<text text-anchor="start" x="702.42" y="-1423.8" font-family="sans" font-weight="bold" font-size="14.00">output →</text>
<text text-anchor="start" x="772.42" y="-1423.8" font-family="sans" font-size="10.00"> </text>
<text text-anchor="start" x="598.42" y="-1404" font-family="monospace" font-size="10.00">resources/downloads/{file}</text>
<polygon fill="#57d97c" stroke="#57d97c" points="592.42,-1456 592.42,-1456 783.42,-1456 783.42,-1456 592.42,-1456"/>
<polygon fill="#57d97c" stroke="#57d97c" points="592.42,-1438 592.42,-1438 783.42,-1438 783.42,-1438 592.42,-1438"/>
<polygon fill="none" stroke="#57d97c" stroke-width="2" points="592.42,-1395 592.42,-1485 782.42,-1485 782.42,-1395 592.42,-1395"/>
</g>
<!-- 9&#45;&gt;7 -->
<g id="edge12" class="edge">
<title>9&#45;&gt;7</title>
<path fill="none" stroke="grey" stroke-width="2" d="M652.02,-1393.69C645.19,-1382.59 639.04,-1370.35 635.42,-1358 620.41,-1306.81 622.45,-1246.56 627.96,-1200.15"/>
<polygon fill="grey" stroke="grey" stroke-width="2" points="631.44,-1200.53 629.22,-1190.16 624.49,-1199.65 631.44,-1200.53"/>
</g>
<!-- 9&#45;&gt;8 -->
<g id="edge14" class="edge">
<title>9&#45;&gt;8</title>
<path fill="none" stroke="grey" stroke-width="2" d="M709.81,-1393.61C713.96,-1385.19 718.39,-1376.21 722.83,-1367.2"/>
<polygon fill="grey" stroke="grey" stroke-width="2" points="725.99,-1368.71 727.27,-1358.2 719.71,-1365.62 725.99,-1368.71"/>
</g>
<!-- 10 -->
<g id="node11" class="node">
<title>10</title>
<text text-anchor="start" x="186.42" y="-1328.6" font-family="sans" font-weight="bold" font-size="18.00">get_whitelist</text>
<text text-anchor="start" x="121.42" y="-1304.8" font-family="sans" font-size="10.00"> </text>
<text text-anchor="start" x="125.42" y="-1304.8" font-family="sans" font-weight="bold" font-size="14.00">↪ input</text>
<text text-anchor="start" x="183.42" y="-1304.8" font-family="sans" font-size="10.00"> </text>
<text text-anchor="start" x="121.42" y="-1285" font-family="monospace" font-size="10.00">resources/downloads/whitelist.10x.v3.txt.gz</text>
<text text-anchor="start" x="302.42" y="-1264.8" font-family="sans" font-size="10.00"> </text>
<text text-anchor="start" x="306.42" y="-1264.8" font-family="sans" font-weight="bold" font-size="14.00">output →</text>
<text text-anchor="start" x="376.42" y="-1264.8" font-family="sans" font-size="10.00"> </text>
<text text-anchor="start" x="121.42" y="-1245" font-family="monospace" font-size="10.00">resources/whitelist/whitelist.10x.v3.txt</text>
<polygon fill="#d97c57" stroke="#d97c57" points="115.42,-1319 115.42,-1319 387.42,-1319 387.42,-1319 115.42,-1319"/>
<polygon fill="#d97c57" stroke="#d97c57" points="115.42,-1279 115.42,-1279 387.42,-1279 387.42,-1279 115.42,-1279"/>
<polygon fill="none" stroke="#d97c57" stroke-width="2" points="114.92,-1236 114.92,-1348 385.92,-1348 385.92,-1236 114.92,-1236"/>
</g>
<!-- 9&#45;&gt;10 -->
<g id="edge15" class="edge">
<title>9&#45;&gt;10</title>
<path fill="none" stroke="grey" stroke-width="2" d="M591.29,-1416.04C534.04,-1401.44 460.33,-1380.98 396.42,-1358 391.85,-1356.36 387.22,-1354.63 382.56,-1352.85"/>
<polygon fill="grey" stroke="grey" stroke-width="2" points="383.55,-1349.48 372.97,-1349.11 381.01,-1356 383.55,-1349.48"/>
</g>
<!-- 9&#45;&gt;11 -->
<g id="edge16" class="edge">
<title>9&#45;&gt;11</title>
<path fill="none" stroke="grey" stroke-width="2" d="M783.44,-1423.3C821.5,-1411.86 861.57,-1392.1 884.42,-1358 953.51,-1254.89 919.18,-1103.55 888.44,-1013.77"/>
<polygon fill="grey" stroke="grey" stroke-width="2" points="891.71,-1012.5 885.1,-1004.21 885.1,-1014.8 891.71,-1012.5"/>
</g>
<!-- 10&#45;&gt;4 -->
<g id="edge10" class="edge">
<title>10&#45;&gt;4</title>
<path fill="none" stroke="grey" stroke-width="2" d="M272.77,-1234.68C292.52,-1186.7 323.13,-1116.45 355.42,-1058 360.38,-1049.04 365.79,-1039.87 371.38,-1030.79"/>
<polygon fill="grey" stroke="grey" stroke-width="2" points="374.46,-1032.47 376.79,-1022.13 368.52,-1028.76 374.46,-1032.47"/>
</g>
<!-- 11&#45;&gt;2 -->
<g id="edge5" class="edge">
<title>11&#45;&gt;2</title>
<path fill="none" stroke="grey" stroke-width="2" d="M829.47,-871.68C805.03,-816.51 769.87,-737.18 743.39,-677.43"/>
<polygon fill="grey" stroke="grey" stroke-width="2" points="746.47,-675.74 739.22,-668.01 740.07,-678.57 746.47,-675.74"/>
</g>
<!-- 11&#45;&gt;12 -->
<g id="edge18" class="edge">
<title>11&#45;&gt;12</title>
<path fill="none" stroke="grey" stroke-width="2" d="M898.63,-871.86C948.44,-781.88 1017.14,-619.22 933.42,-518 888.87,-464.13 726.36,-436.4 585.27,-422.27"/>
<polygon fill="grey" stroke="grey" stroke-width="2" points="585.45,-418.77 575.15,-421.28 584.76,-425.74 585.45,-418.77"/>
</g>
<!-- 12&#45;&gt;1 -->
<g id="edge3" class="edge">
<title>12&#45;&gt;1</title>
<path fill="none" stroke="grey" stroke-width="2" d="M409.16,-331.78C415.48,-322.73 421.93,-313.47 428.23,-304.43"/>
<polygon fill="grey" stroke="grey" stroke-width="2" points="431.13,-306.39 433.98,-296.19 425.39,-302.39 431.13,-306.39"/>
</g>
<!-- 13&#45;&gt;12 -->
<g id="edge20" class="edge">
<title>13&#45;&gt;12</title>
<path fill="none" stroke="grey" stroke-width="2" d="M290.24,-526.87C296.82,-515.22 303.76,-502.95 310.58,-490.88"/>
<polygon fill="grey" stroke="grey" stroke-width="2" points="313.64,-492.57 315.51,-482.15 307.55,-489.13 313.64,-492.57"/>
</g>
</g>
</svg>
