<?xml version="1.0" encoding="UTF-8" standalone="no"?>
<!DOCTYPE svg PUBLIC "-//W3C//DTD SVG 1.1//EN"
 "http://www.w3.org/Graphics/SVG/1.1/DTD/svg11.dtd">
<!-- Generated by graphviz version 2.50.0 (20211209.0339)
 -->
<!-- Title: snakemake_dag Pages: 1 -->
<svg width="1038pt" height="1752pt"
 viewBox="0.00 0.00 1038.10 1752.00" xmlns="http://www.w3.org/2000/svg" xmlns:xlink="http://www.w3.org/1999/xlink">
<g id="graph0" class="graph" transform="scale(1 1) rotate(0) translate(4 1748)">
<title>snakemake_dag</title>
<polygon fill="white" stroke="transparent" points="-4,4 -4,-1748 1034.1,-1748 1034.1,4 -4,4"/>
<!-- 0 -->
<g id="node1" class="node">
<title>0</title>
<text text-anchor="start" x="304.5" y="-161.6" font-family="sans" font-weight="bold" font-size="18.00">all</text>
<text text-anchor="start" x="88.5" y="-137.8" font-family="sans" font-size="10.00"> </text>
<text text-anchor="start" x="92.5" y="-137.8" font-family="sans" font-weight="bold" font-size="14.00">↪ input</text>
<text text-anchor="start" x="150.5" y="-137.8" font-family="sans" font-size="10.00"> </text>
<text text-anchor="start" x="88.5" y="-118" font-family="monospace" font-size="10.00">results/completed/10k_PBMC_3p_nextgem_Chromium_X_individual_completed.txt</text>
<text text-anchor="start" x="88.5" y="-100" font-family="monospace" font-size="10.00">results/completed/10k_PBMC_3p_nextgem_Chromium_X_pseudobulk_completed.txt</text>
<text text-anchor="start" x="88.5" y="-82" font-family="monospace" font-size="10.00">results/completed/20k_PBMC_3p_HT_nextgem_Chromium_X_individual_completed.txt</text>
<text text-anchor="start" x="88.5" y="-64" font-family="monospace" font-size="10.00">results/completed/20k_PBMC_3p_HT_nextgem_Chromium_X_pseudobulk_completed.txt</text>
<text text-anchor="start" x="88.5" y="-46" font-family="monospace" font-size="10.00">results/completed/500_PBMC_3p_LT_Chromium_X_individual_completed.txt</text>
<text text-anchor="start" x="88.5" y="-28" font-family="monospace" font-size="10.00">results/completed/500_PBMC_3p_LT_Chromium_X_pseudobulk_completed.txt</text>
<text text-anchor="start" x="538.5" y="-10" font-family="sans" font-size="10.00"> &#160;</text>
<polygon fill="#add957" stroke="#add957" points="82.5,-152 82.5,-152 552.5,-152 552.5,-152 82.5,-152"/>
<polygon fill="#add957" stroke="#add957" points="82.5,-22 82.5,-22 552.5,-22 552.5,-22 82.5,-22"/>
<polygon fill="none" stroke="#add957" stroke-width="2" points="82,-1 82,-181 551,-181 551,-1 82,-1"/>
</g>
<!-- 1 -->
<g id="node2" class="node">
<title>1</title>
<text text-anchor="start" x="230" y="-311.6" font-family="sans" font-weight="bold" font-size="18.00">sample_complete</text>
<text text-anchor="start" x="163.5" y="-287.8" font-family="sans" font-size="10.00"> </text>
<text text-anchor="start" x="167.5" y="-287.8" font-family="sans" font-weight="bold" font-size="14.00">↪ input</text>
<text text-anchor="start" x="225.5" y="-287.8" font-family="sans" font-size="10.00"> </text>
<text text-anchor="start" x="163.5" y="-268" font-family="monospace" font-size="10.00">results/counts_matrix_R/{s}/{s}_{method}_matrix.Rds</text>
<text text-anchor="start" x="392.5" y="-247.8" font-family="sans" font-size="10.00"> </text>
<text text-anchor="start" x="396.5" y="-247.8" font-family="sans" font-weight="bold" font-size="14.00">output →</text>
<text text-anchor="start" x="466.5" y="-247.8" font-family="sans" font-size="10.00"> </text>
<text text-anchor="start" x="163.5" y="-228" font-family="monospace" font-size="10.00">results/completed/{s}_{method}_completed.txt</text>
<polygon fill="#8bd957" stroke="#8bd957" points="157.5,-302 157.5,-302 477.5,-302 477.5,-302 157.5,-302"/>
<polygon fill="#8bd957" stroke="#8bd957" points="157.5,-262 157.5,-262 477.5,-262 477.5,-262 157.5,-262"/>
<polygon fill="none" stroke="#8bd957" stroke-width="2" points="157,-219 157,-331 476,-331 476,-219 157,-219"/>
</g>
<!-- 1&#45;&gt;0 -->
<g id="edge1" class="edge">
<title>1&#45;&gt;0</title>
<path fill="none" stroke="grey" stroke-width="2" d="M316.5,-217.91C316.5,-209.64 316.5,-200.91 316.5,-192.07"/>
<polygon fill="grey" stroke="grey" stroke-width="2" points="320,-192.06 316.5,-182.06 313,-192.06 320,-192.06"/>
</g>
<!-- 2 -->
<g id="node3" class="node">
<title>2</title>
<text text-anchor="start" x="236.5" y="-479.6" font-family="sans" font-weight="bold" font-size="18.00">merge_matrices</text>
<text text-anchor="start" x="145.5" y="-455.8" font-family="sans" font-size="10.00"> </text>
<text text-anchor="start" x="149.5" y="-455.8" font-family="sans" font-weight="bold" font-size="14.00">↪ input</text>
<text text-anchor="start" x="207.5" y="-455.8" font-family="sans" font-size="10.00"> </text>
<text text-anchor="start" x="145.5" y="-436" font-family="monospace" font-size="10.00">results/starsolo_alignment/{s}/{s}.Solo.out/Gene/filtered</text>
<text text-anchor="start" x="145.5" y="-418" font-family="monospace" font-size="10.00">results/telescope_{method}/{s}</text>
<text text-anchor="start" x="410.5" y="-397.8" font-family="sans" font-size="10.00"> </text>
<text text-anchor="start" x="414.5" y="-397.8" font-family="sans" font-weight="bold" font-size="14.00">output →</text>
<text text-anchor="start" x="484.5" y="-397.8" font-family="sans" font-size="10.00"> </text>
<text text-anchor="start" x="145.5" y="-378" font-family="monospace" font-size="10.00">results/counts_matrix_R/{s}/{s}_{method}_matrix.Rds</text>
<polygon fill="#d99c57" stroke="#d99c57" points="139.5,-470 139.5,-470 495.5,-470 495.5,-470 139.5,-470"/>
<polygon fill="#d99c57" stroke="#d99c57" points="139.5,-412 139.5,-412 495.5,-412 495.5,-412 139.5,-412"/>
<polygon fill="none" stroke="#d99c57" stroke-width="2" points="139,-369 139,-499 494,-499 494,-369 139,-369"/>
</g>
<!-- 2&#45;&gt;1 -->
<g id="edge2" class="edge">
<title>2&#45;&gt;1</title>
<path fill="none" stroke="grey" stroke-width="2" d="M316.5,-367.78C316.5,-359.4 316.5,-350.8 316.5,-342.4"/>
<polygon fill="grey" stroke="grey" stroke-width="2" points="320,-342.27 316.5,-332.27 313,-342.27 320,-342.27"/>
</g>
<!-- 3 -->
<g id="node4" class="node">
<title>3</title>
<text text-anchor="start" x="199.5" y="-1259.6" font-family="sans" font-weight="bold" font-size="18.00">starsolo_alignment</text>
<text text-anchor="start" x="84.5" y="-1235.8" font-family="sans" font-size="10.00"> </text>
<text text-anchor="start" x="88.5" y="-1235.8" font-family="sans" font-weight="bold" font-size="14.00">↪ input</text>
<text text-anchor="start" x="146.5" y="-1235.8" font-family="sans" font-size="10.00"> </text>
<text text-anchor="start" x="84.5" y="-1216" font-family="monospace" font-size="10.00">data/{s}_fastqs</text>
<text text-anchor="start" x="84.5" y="-1198" font-family="monospace" font-size="10.00">resources/star_index/GRCh38_gencode38</text>
<text text-anchor="start" x="84.5" y="-1180" font-family="monospace" font-size="10.00">resources/whitelist/whitelist.10x.v3.txt</text>
<text text-anchor="start" x="427.5" y="-1159.8" font-family="sans" font-size="10.00"> </text>
<text text-anchor="start" x="431.5" y="-1159.8" font-family="sans" font-weight="bold" font-size="14.00">output →</text>
<text text-anchor="start" x="501.5" y="-1159.8" font-family="sans" font-size="10.00"> </text>
<text text-anchor="start" x="84.5" y="-1140" font-family="monospace" font-size="10.00">results/starsolo_alignment/{s}/{s}.Aligned.sortedByCoord.out.bam</text>
<text text-anchor="start" x="84.5" y="-1122" font-family="monospace" font-size="10.00">results/starsolo_alignment/{s}/{s}.Solo.out/Gene/filtered</text>
<text text-anchor="start" x="84.5" y="-1104" font-family="monospace" font-size="10.00">results/starsolo_alignment/{s}/{s}.Solo.out/Gene/filtered/barcodes.tsv</text>
<polygon fill="#57d98b" stroke="#57d98b" points="78.5,-1250 78.5,-1250 512.5,-1250 512.5,-1250 78.5,-1250"/>
<polygon fill="#57d98b" stroke="#57d98b" points="78.5,-1174 78.5,-1174 512.5,-1174 512.5,-1174 78.5,-1174"/>
<polygon fill="none" stroke="#57d98b" stroke-width="2" points="78,-1095 78,-1279 511,-1279 511,-1095 78,-1095"/>
</g>
<!-- 3&#45;&gt;2 -->
<g id="edge5" class="edge">
<title>3&#45;&gt;2</title>
<path fill="none" stroke="grey" stroke-width="2" d="M123.96,-1093.92C112.16,-1082.97 101.43,-1071.01 92.5,-1058 12.14,-940.97 52.83,-881.63 62.5,-740 68.74,-648.7 35.59,-609.22 90.5,-536 101.32,-521.57 114.67,-509.15 129.43,-498.48"/>
<polygon fill="grey" stroke="grey" stroke-width="2" points="131.52,-501.29 137.77,-492.73 127.55,-495.53 131.52,-501.29"/>
</g>
<!-- 10 -->
<g id="node11" class="node">
<title>10</title>
<text text-anchor="start" x="646.5" y="-887.6" font-family="sans" font-weight="bold" font-size="18.00">stellarscope_pseudobulk</text>
<text text-anchor="start" x="559.5" y="-863.8" font-family="sans" font-size="10.00"> </text>
<text text-anchor="start" x="563.5" y="-863.8" font-family="sans" font-weight="bold" font-size="14.00">↪ input</text>
<text text-anchor="start" x="621.5" y="-863.8" font-family="sans" font-size="10.00"> </text>
<text text-anchor="start" x="559.5" y="-844" font-family="monospace" font-size="10.00">resources/annotation/retro.gtf</text>
<text text-anchor="start" x="559.5" y="-826" font-family="monospace" font-size="10.00">results/starsolo_alignment/{s}/{s}.Solo.out/Gene/filtered/barcodes.tsv</text>
<text text-anchor="start" x="559.5" y="-808" font-family="monospace" font-size="10.00">results/starsolo_alignment/{s}/{s}.collated.out.bam</text>
<text text-anchor="start" x="902.5" y="-787.8" font-family="sans" font-size="10.00"> </text>
<text text-anchor="start" x="906.5" y="-787.8" font-family="sans" font-weight="bold" font-size="14.00">output →</text>
<text text-anchor="start" x="976.5" y="-787.8" font-family="sans" font-size="10.00"> </text>
<text text-anchor="start" x="559.5" y="-768" font-family="monospace" font-size="10.00">results/telescope_pseudobulk/{s}</text>
<text text-anchor="start" x="559.5" y="-750" font-family="monospace" font-size="10.00">results/telescope_pseudobulk/{s}/{s}_pseudobulk&#45;TE_counts.mtx</text>
<polygon fill="#68d957" stroke="#68d957" points="553.5,-878 553.5,-878 987.5,-878 987.5,-878 553.5,-878"/>
<polygon fill="#68d957" stroke="#68d957" points="553.5,-802 553.5,-802 987.5,-802 987.5,-802 553.5,-802"/>
<polygon fill="none" stroke="#68d957" stroke-width="2" points="553,-741 553,-907 986,-907 986,-741 553,-741"/>
</g>
<!-- 3&#45;&gt;10 -->
<g id="edge15" class="edge">
<title>3&#45;&gt;10</title>
<path fill="none" stroke="grey" stroke-width="2" d="M512.23,-1132.95C613.12,-1106.41 714.4,-1076.15 730.5,-1058 748.82,-1037.35 758.66,-973.98 763.87,-918.54"/>
<polygon fill="grey" stroke="grey" stroke-width="2" points="767.38,-918.56 764.79,-908.29 760.41,-917.94 767.38,-918.56"/>
</g>
<!-- 11 -->
<g id="node12" class="node">
<title>11</title>
<text text-anchor="start" x="439" y="-1037.6" font-family="sans" font-weight="bold" font-size="18.00">samtools_collate</text>
<text text-anchor="start" x="329.5" y="-1013.8" font-family="sans" font-size="10.00"> </text>
<text text-anchor="start" x="333.5" y="-1013.8" font-family="sans" font-weight="bold" font-size="14.00">↪ input</text>
<text text-anchor="start" x="391.5" y="-1013.8" font-family="sans" font-size="10.00"> </text>
<text text-anchor="start" x="329.5" y="-994" font-family="monospace" font-size="10.00">results/starsolo_alignment/{s}/{s}.Aligned.sortedByCoord.out.bam</text>
<text text-anchor="start" x="636.5" y="-973.8" font-family="sans" font-size="10.00"> </text>
<text text-anchor="start" x="640.5" y="-973.8" font-family="sans" font-weight="bold" font-size="14.00">output →</text>
<text text-anchor="start" x="710.5" y="-973.8" font-family="sans" font-size="10.00"> </text>
<text text-anchor="start" x="329.5" y="-954" font-family="monospace" font-size="10.00">results/starsolo_alignment/{s}/{s}.collated.out.bam</text>
<polygon fill="#57d9d0" stroke="#57d9d0" points="323.5,-1028 323.5,-1028 721.5,-1028 721.5,-1028 323.5,-1028"/>
<polygon fill="#57d9d0" stroke="#57d9d0" points="323.5,-988 323.5,-988 721.5,-988 721.5,-988 323.5,-988"/>
<polygon fill="none" stroke="#57d9d0" stroke-width="2" points="323,-945 323,-1057 720,-1057 720,-945 323,-945"/>
</g>
<!-- 3&#45;&gt;11 -->
<g id="edge17" class="edge">
<title>3&#45;&gt;11</title>
<path fill="none" stroke="grey" stroke-width="2" d="M408,-1094C420.25,-1084.07 432.5,-1074.14 444.17,-1064.68"/>
<polygon fill="grey" stroke="grey" stroke-width="2" points="446.59,-1067.22 452.16,-1058.21 442.19,-1061.78 446.59,-1067.22"/>
</g>
<!-- 13 -->
<g id="node14" class="node">
<title>13</title>
<text text-anchor="start" x="202" y="-683.6" font-family="sans" font-weight="bold" font-size="18.00">stellarscope_individual</text>
<text text-anchor="start" x="106.5" y="-659.8" font-family="sans" font-size="10.00"> </text>
<text text-anchor="start" x="110.5" y="-659.8" font-family="sans" font-weight="bold" font-size="14.00">↪ input</text>
<text text-anchor="start" x="168.5" y="-659.8" font-family="sans" font-size="10.00"> </text>
<text text-anchor="start" x="106.5" y="-640" font-family="monospace" font-size="10.00">resources/annotation/retro.gtf</text>
<text text-anchor="start" x="106.5" y="-622" font-family="monospace" font-size="10.00">results/starsolo_alignment/{s}/{s}.Aligned.sortedByCB.bam</text>
<text text-anchor="start" x="106.5" y="-604" font-family="monospace" font-size="10.00">results/starsolo_alignment/{s}/{s}.Solo.out/Gene/filtered/barcodes.tsv</text>
<text text-anchor="start" x="449.5" y="-583.8" font-family="sans" font-size="10.00"> </text>
<text text-anchor="start" x="453.5" y="-583.8" font-family="sans" font-weight="bold" font-size="14.00">output →</text>
<text text-anchor="start" x="523.5" y="-583.8" font-family="sans" font-size="10.00"> </text>
<text text-anchor="start" x="106.5" y="-564" font-family="monospace" font-size="10.00">results/telescope_individual/{s}</text>
<text text-anchor="start" x="106.5" y="-546" font-family="monospace" font-size="10.00">results/telescope_individual/{s}/{s}_individual&#45;TE_counts.mtx</text>
<polygon fill="#d0d957" stroke="#d0d957" points="100.5,-674 100.5,-674 534.5,-674 534.5,-674 100.5,-674"/>
<polygon fill="#d0d957" stroke="#d0d957" points="100.5,-598 100.5,-598 534.5,-598 534.5,-598 100.5,-598"/>
<polygon fill="none" stroke="#d0d957" stroke-width="2" points="100,-537 100,-703 533,-703 533,-537 100,-537"/>
</g>
<!-- 3&#45;&gt;13 -->
<g id="edge22" class="edge">
<title>3&#45;&gt;13</title>
<path fill="none" stroke="grey" stroke-width="2" d="M199.86,-1093.65C117.08,-1001.24 20.21,-856.45 90.5,-740 96.77,-729.62 104.27,-720.1 112.68,-711.37"/>
<polygon fill="grey" stroke="grey" stroke-width="2" points="115.27,-713.73 119.95,-704.23 110.36,-708.74 115.27,-713.73"/>
</g>
<!-- 14 -->
<g id="node15" class="node">
<title>14</title>
<text text-anchor="start" x="275" y="-869.6" font-family="sans" font-weight="bold" font-size="18.00">cell_sort</text>
<text text-anchor="start" x="106.5" y="-845.8" font-family="sans" font-size="10.00"> </text>
<text text-anchor="start" x="110.5" y="-845.8" font-family="sans" font-weight="bold" font-size="14.00">↪ input</text>
<text text-anchor="start" x="168.5" y="-845.8" font-family="sans" font-size="10.00"> </text>
<text text-anchor="start" x="106.5" y="-826" font-family="monospace" font-size="10.00">results/starsolo_alignment/{s}/{s}.Solo.out/Gene/filtered/barcodes.tsv</text>
<text text-anchor="start" x="106.5" y="-808" font-family="monospace" font-size="10.00">results/starsolo_alignment/{s}/{s}.collated.out.bam</text>
<text text-anchor="start" x="449.5" y="-787.8" font-family="sans" font-size="10.00"> </text>
<text text-anchor="start" x="453.5" y="-787.8" font-family="sans" font-weight="bold" font-size="14.00">output →</text>
<text text-anchor="start" x="523.5" y="-787.8" font-family="sans" font-size="10.00"> </text>
<text text-anchor="start" x="106.5" y="-768" font-family="monospace" font-size="10.00">results/starsolo_alignment/{s}/{s}.Aligned.sortedByCB.bam</text>
<polygon fill="#57d9ad" stroke="#57d9ad" points="100.5,-860 100.5,-860 534.5,-860 534.5,-860 100.5,-860"/>
<polygon fill="#57d9ad" stroke="#57d9ad" points="100.5,-802 100.5,-802 534.5,-802 534.5,-802 100.5,-802"/>
<polygon fill="none" stroke="#57d9ad" stroke-width="2" points="100,-759 100,-889 533,-889 533,-759 100,-759"/>
</g>
<!-- 3&#45;&gt;14 -->
<g id="edge23" class="edge">
<title>3&#45;&gt;14</title>
<path fill="none" stroke="grey" stroke-width="2" d="M300.11,-1093.97C303.76,-1033.99 308.47,-956.69 311.91,-900.37"/>
<polygon fill="grey" stroke="grey" stroke-width="2" points="315.42,-900.3 312.53,-890.1 308.43,-899.87 315.42,-900.3"/>
</g>
<!-- 4 -->
<g id="node5" class="node">
<title>4</title>
<text text-anchor="start" x="231.5" y="-1418.6" font-family="sans" font-weight="bold" font-size="18.00">untar_fastqs</text>
<text text-anchor="start" x="231.5" y="-1394.8" font-family="sans" font-size="10.00"> </text>
<text text-anchor="start" x="235.5" y="-1394.8" font-family="sans" font-weight="bold" font-size="14.00">↪ input</text>
<text text-anchor="start" x="293.5" y="-1394.8" font-family="sans" font-size="10.00"> </text>
<text text-anchor="start" x="231.5" y="-1375" font-family="monospace" font-size="10.00">data/{s}_fastqs.tar</text>
<text text-anchor="start" x="279.5" y="-1354.8" font-family="sans" font-size="10.00"> </text>
<text text-anchor="start" x="283.5" y="-1354.8" font-family="sans" font-weight="bold" font-size="14.00">output →</text>
<text text-anchor="start" x="353.5" y="-1354.8" font-family="sans" font-size="10.00"> </text>
<text text-anchor="start" x="231.5" y="-1335" font-family="monospace" font-size="10.00">data/{s}_fastqs</text>
<polygon fill="#57d968" stroke="#57d968" points="225.5,-1409 225.5,-1409 364.5,-1409 364.5,-1409 225.5,-1409"/>
<polygon fill="#57d968" stroke="#57d968" points="225.5,-1369 225.5,-1369 364.5,-1369 364.5,-1369 225.5,-1369"/>
<polygon fill="none" stroke="#57d968" stroke-width="2" points="225.5,-1326 225.5,-1438 363.5,-1438 363.5,-1326 225.5,-1326"/>
</g>
<!-- 4&#45;&gt;3 -->
<g id="edge7" class="edge">
<title>4&#45;&gt;3</title>
<path fill="none" stroke="grey" stroke-width="2" d="M294.5,-1324.92C294.5,-1313.96 294.5,-1302.16 294.5,-1290.24"/>
<polygon fill="grey" stroke="grey" stroke-width="2" points="298,-1290.21 294.5,-1280.21 291,-1290.21 298,-1290.21"/>
</g>
<!-- 5 -->
<g id="node6" class="node">
<title>5</title>
<text text-anchor="start" x="298.5" y="-1575.6" font-family="sans" font-weight="bold" font-size="18.00">download_fastqs</text>
<text text-anchor="start" x="298.5" y="-1554" font-family="sans" font-size="10.00"> &#160;</text>
<text text-anchor="start" x="388.5" y="-1533.8" font-family="sans" font-size="10.00"> </text>
<text text-anchor="start" x="392.5" y="-1533.8" font-family="sans" font-weight="bold" font-size="14.00">output →</text>
<text text-anchor="start" x="462.5" y="-1533.8" font-family="sans" font-size="10.00"> </text>
<text text-anchor="start" x="298.5" y="-1514" font-family="monospace" font-size="10.00">data/{s}_fastqs.tar</text>
<polygon fill="#d95757" stroke="#d95757" points="292.5,-1566 292.5,-1566 473.5,-1566 473.5,-1566 292.5,-1566"/>
<polygon fill="#d95757" stroke="#d95757" points="292.5,-1548 292.5,-1548 473.5,-1548 473.5,-1548 292.5,-1548"/>
<polygon fill="none" stroke="#d95757" stroke-width="2" points="292.5,-1505 292.5,-1595 472.5,-1595 472.5,-1505 292.5,-1505"/>
</g>
<!-- 5&#45;&gt;4 -->
<g id="edge9" class="edge">
<title>5&#45;&gt;4</title>
<path fill="none" stroke="grey" stroke-width="2" d="M358.45,-1503.64C349.4,-1486.56 338.92,-1466.79 329.09,-1448.25"/>
<polygon fill="grey" stroke="grey" stroke-width="2" points="332.11,-1446.47 324.33,-1439.27 325.92,-1449.75 332.11,-1446.47"/>
</g>
<!-- 6 -->
<g id="node7" class="node">
<title>6</title>
<text text-anchor="start" x="405.5" y="-1427.6" font-family="sans" font-weight="bold" font-size="18.00">index_genome_star</text>
<text text-anchor="start" x="390.5" y="-1403.8" font-family="sans" font-size="10.00"> </text>
<text text-anchor="start" x="394.5" y="-1403.8" font-family="sans" font-weight="bold" font-size="14.00">↪ input</text>
<text text-anchor="start" x="452.5" y="-1403.8" font-family="sans" font-size="10.00"> </text>
<text text-anchor="start" x="390.5" y="-1384" font-family="monospace" font-size="10.00">resources/downloads/gencode38.gtf.gz</text>
<text text-anchor="start" x="390.5" y="-1366" font-family="monospace" font-size="10.00">resources/sequences/GRCh38.fa.gz</text>
<text text-anchor="start" x="535.5" y="-1345.8" font-family="sans" font-size="10.00"> </text>
<text text-anchor="start" x="539.5" y="-1345.8" font-family="sans" font-weight="bold" font-size="14.00">output →</text>
<text text-anchor="start" x="609.5" y="-1345.8" font-family="sans" font-size="10.00"> </text>
<text text-anchor="start" x="390.5" y="-1326" font-family="monospace" font-size="10.00">resources/star_index/GRCh38_gencode38</text>
<polygon fill="#57bfd9" stroke="#57bfd9" points="384.5,-1418 384.5,-1418 620.5,-1418 620.5,-1418 384.5,-1418"/>
<polygon fill="#57bfd9" stroke="#57bfd9" points="384.5,-1360 384.5,-1360 620.5,-1360 620.5,-1360 384.5,-1360"/>
<polygon fill="none" stroke="#57bfd9" stroke-width="2" points="384,-1317 384,-1447 619,-1447 619,-1317 384,-1317"/>
</g>
<!-- 6&#45;&gt;3 -->
<g id="edge6" class="edge">
<title>6&#45;&gt;3</title>
<path fill="none" stroke="grey" stroke-width="2" d="M431.71,-1315.93C421.79,-1306.68 411.41,-1297 400.99,-1287.29"/>
<polygon fill="grey" stroke="grey" stroke-width="2" points="403.1,-1284.47 393.4,-1280.21 398.33,-1289.59 403.1,-1284.47"/>
</g>
<!-- 7 -->
<g id="node8" class="node">
<title>7</title>
<text text-anchor="start" x="573.5" y="-1595.6" font-family="sans" font-weight="bold" font-size="18.00">untar_genome</text>
<text text-anchor="start" x="537.5" y="-1571.8" font-family="sans" font-size="10.00"> </text>
<text text-anchor="start" x="541.5" y="-1571.8" font-family="sans" font-weight="bold" font-size="14.00">↪ input</text>
<text text-anchor="start" x="599.5" y="-1571.8" font-family="sans" font-size="10.00"> </text>
<text text-anchor="start" x="537.5" y="-1552" font-family="monospace" font-size="10.00">resources/downloads/GRCh38.fa.tar.gz</text>
<text text-anchor="start" x="676.5" y="-1531.8" font-family="sans" font-size="10.00"> </text>
<text text-anchor="start" x="680.5" y="-1531.8" font-family="sans" font-weight="bold" font-size="14.00">output →</text>
<text text-anchor="start" x="750.5" y="-1531.8" font-family="sans" font-size="10.00"> </text>
<text text-anchor="start" x="537.5" y="-1512" font-family="monospace" font-size="10.00">resources/sequences/GRCh38.fa.gz</text>
<text text-anchor="start" x="537.5" y="-1494" font-family="monospace" font-size="10.00">resources/sequences/GRCh38.fa.gz.fai</text>
<polygon fill="#5779d9" stroke="#5779d9" points="531.5,-1586 531.5,-1586 761.5,-1586 761.5,-1586 531.5,-1586"/>
<polygon fill="#5779d9" stroke="#5779d9" points="531.5,-1546 531.5,-1546 761.5,-1546 761.5,-1546 531.5,-1546"/>
<polygon fill="none" stroke="#5779d9" stroke-width="2" points="531,-1485 531,-1615 760,-1615 760,-1485 531,-1485"/>
</g>
<!-- 7&#45;&gt;6 -->
<g id="edge11" class="edge">
<title>7&#45;&gt;6</title>
<path fill="none" stroke="grey" stroke-width="2" d="M589,-1483.87C581.06,-1474.71 572.85,-1465.26 564.8,-1455.97"/>
<polygon fill="grey" stroke="grey" stroke-width="2" points="567.27,-1453.48 558.07,-1448.22 561.98,-1458.06 567.27,-1453.48"/>
</g>
<!-- 12 -->
<g id="node13" class="node">
<title>12</title>
<text text-anchor="start" x="682" y="-1232.6" font-family="sans" font-weight="bold" font-size="18.00">telescope_annotation</text>
<text text-anchor="start" x="677.5" y="-1208.8" font-family="sans" font-size="10.00"> </text>
<text text-anchor="start" x="681.5" y="-1208.8" font-family="sans" font-weight="bold" font-size="14.00">↪ input</text>
<text text-anchor="start" x="739.5" y="-1208.8" font-family="sans" font-size="10.00"> </text>
<text text-anchor="start" x="677.5" y="-1189" font-family="monospace" font-size="10.00">resources/downloads/retro.hg38.v1.gtf</text>
<text text-anchor="start" x="677.5" y="-1171" font-family="monospace" font-size="10.00">resources/sequences/GRCh38.fa.gz.fai</text>
<text text-anchor="start" x="822.5" y="-1150.8" font-family="sans" font-size="10.00"> </text>
<text text-anchor="start" x="826.5" y="-1150.8" font-family="sans" font-weight="bold" font-size="14.00">output →</text>
<text text-anchor="start" x="896.5" y="-1150.8" font-family="sans" font-size="10.00"> </text>
<text text-anchor="start" x="677.5" y="-1131" font-family="monospace" font-size="10.00">resources/annotation/retro.gtf</text>
<polygon fill="#d97957" stroke="#d97957" points="671.5,-1223 671.5,-1223 907.5,-1223 907.5,-1223 671.5,-1223"/>
<polygon fill="#d97957" stroke="#d97957" points="671.5,-1165 671.5,-1165 907.5,-1165 907.5,-1165 671.5,-1165"/>
<polygon fill="none" stroke="#d97957" stroke-width="2" points="671,-1122 671,-1252 906,-1252 906,-1122 671,-1122"/>
</g>
<!-- 7&#45;&gt;12 -->
<g id="edge19" class="edge">
<title>7&#45;&gt;12</title>
<path fill="none" stroke="grey" stroke-width="2" d="M671.4,-1483.63C696.06,-1421.36 733.15,-1327.74 758.95,-1262.59"/>
<polygon fill="grey" stroke="grey" stroke-width="2" points="762.25,-1263.78 762.68,-1253.19 755.74,-1261.2 762.25,-1263.78"/>
</g>
<!-- 8 -->
<g id="node9" class="node">
<title>8</title>
<text text-anchor="start" x="484.5" y="-1723.6" font-family="sans" font-weight="bold" font-size="18.00">download_remote</text>
<text text-anchor="start" x="484.5" y="-1702" font-family="sans" font-size="10.00"> &#160;</text>
<text text-anchor="start" x="584.5" y="-1681.8" font-family="sans" font-size="10.00"> </text>
<text text-anchor="start" x="588.5" y="-1681.8" font-family="sans" font-weight="bold" font-size="14.00">output →</text>
<text text-anchor="start" x="658.5" y="-1681.8" font-family="sans" font-size="10.00"> </text>
<text text-anchor="start" x="484.5" y="-1662" font-family="monospace" font-size="10.00">resources/downloads/{file}</text>
<polygon fill="#579cd9" stroke="#579cd9" points="478.5,-1714 478.5,-1714 669.5,-1714 669.5,-1714 478.5,-1714"/>
<polygon fill="#579cd9" stroke="#579cd9" points="478.5,-1696 478.5,-1696 669.5,-1696 669.5,-1696 478.5,-1696"/>
<polygon fill="none" stroke="#579cd9" stroke-width="2" points="478.5,-1653 478.5,-1743 668.5,-1743 668.5,-1653 478.5,-1653"/>
</g>
<!-- 8&#45;&gt;6 -->
<g id="edge10" class="edge">
<title>8&#45;&gt;6</title>
<path fill="none" stroke="grey" stroke-width="2" d="M539.13,-1651.87C532.17,-1640.68 525.7,-1628.34 521.5,-1616 504.22,-1565.24 499.44,-1504.85 498.87,-1458.27"/>
<polygon fill="grey" stroke="grey" stroke-width="2" points="502.37,-1458.23 498.81,-1448.25 495.37,-1458.27 502.37,-1458.23"/>
</g>
<!-- 8&#45;&gt;7 -->
<g id="edge12" class="edge">
<title>8&#45;&gt;7</title>
<path fill="none" stroke="grey" stroke-width="2" d="M595.89,-1651.61C600.04,-1643.19 604.47,-1634.21 608.91,-1625.2"/>
<polygon fill="grey" stroke="grey" stroke-width="2" points="612.06,-1626.71 613.35,-1616.2 605.79,-1623.62 612.06,-1626.71"/>
</g>
<!-- 9 -->
<g id="node10" class="node">
<title>9</title>
<text text-anchor="start" x="72.5" y="-1586.6" font-family="sans" font-weight="bold" font-size="18.00">get_whitelist</text>
<text text-anchor="start" x="7.5" y="-1562.8" font-family="sans" font-size="10.00"> </text>
<text text-anchor="start" x="11.5" y="-1562.8" font-family="sans" font-weight="bold" font-size="14.00">↪ input</text>
<text text-anchor="start" x="69.5" y="-1562.8" font-family="sans" font-size="10.00"> </text>
<text text-anchor="start" x="7.5" y="-1543" font-family="monospace" font-size="10.00">resources/downloads/whitelist.10x.v3.txt.gz</text>
<text text-anchor="start" x="188.5" y="-1522.8" font-family="sans" font-size="10.00"> </text>
<text text-anchor="start" x="192.5" y="-1522.8" font-family="sans" font-weight="bold" font-size="14.00">output →</text>
<text text-anchor="start" x="262.5" y="-1522.8" font-family="sans" font-size="10.00"> </text>
<text text-anchor="start" x="7.5" y="-1503" font-family="monospace" font-size="10.00">resources/whitelist/whitelist.10x.v3.txt</text>
<polygon fill="#d9bf57" stroke="#d9bf57" points="1.5,-1577 1.5,-1577 273.5,-1577 273.5,-1577 1.5,-1577"/>
<polygon fill="#d9bf57" stroke="#d9bf57" points="1.5,-1537 1.5,-1537 273.5,-1537 273.5,-1537 1.5,-1537"/>
<polygon fill="none" stroke="#d9bf57" stroke-width="2" points="1,-1494 1,-1606 272,-1606 272,-1494 1,-1494"/>
</g>
<!-- 8&#45;&gt;9 -->
<g id="edge13" class="edge">
<title>8&#45;&gt;9</title>
<path fill="none" stroke="grey" stroke-width="2" d="M477.37,-1674.04C420.12,-1659.44 346.41,-1638.98 282.5,-1616 277.93,-1614.36 273.3,-1612.63 268.64,-1610.85"/>
<polygon fill="grey" stroke="grey" stroke-width="2" points="269.63,-1607.48 259.04,-1607.11 267.09,-1614 269.63,-1607.48"/>
</g>
<!-- 8&#45;&gt;12 -->
<g id="edge18" class="edge">
<title>8&#45;&gt;12</title>
<path fill="none" stroke="grey" stroke-width="2" d="M669.6,-1680.59C707.32,-1669.04 747.1,-1649.39 770.5,-1616 843.71,-1511.56 826.91,-1354.96 807.84,-1262.97"/>
<polygon fill="grey" stroke="grey" stroke-width="2" points="811.26,-1262.23 805.75,-1253.18 804.41,-1263.69 811.26,-1262.23"/>
</g>
<!-- 9&#45;&gt;3 -->
<g id="edge8" class="edge">
<title>9&#45;&gt;3</title>
<path fill="none" stroke="grey" stroke-width="2" d="M151.74,-1492.54C165.63,-1444.47 188.12,-1374.16 215.5,-1316 219.67,-1307.14 224.31,-1298.13 229.2,-1289.2"/>
<polygon fill="grey" stroke="grey" stroke-width="2" points="232.35,-1290.75 234.17,-1280.31 226.24,-1287.34 232.35,-1290.75"/>
</g>
<!-- 10&#45;&gt;2 -->
<g id="edge4" class="edge">
<title>10&#45;&gt;2</title>
<path fill="none" stroke="grey" stroke-width="2" d="M719.82,-739.77C678.94,-677.04 616.08,-592.47 543.5,-536 529.07,-524.77 513.19,-514.49 496.74,-505.15"/>
<polygon fill="grey" stroke="grey" stroke-width="2" points="497.99,-501.84 487.54,-500.06 494.6,-507.97 497.99,-501.84"/>
</g>
<!-- 11&#45;&gt;10 -->
<g id="edge16" class="edge">
<title>11&#45;&gt;10</title>
<path fill="none" stroke="grey" stroke-width="2" d="M600.99,-943.91C614.49,-934.38 628.81,-924.28 643.16,-914.15"/>
<polygon fill="grey" stroke="grey" stroke-width="2" points="645.46,-916.81 651.61,-908.19 641.42,-911.09 645.46,-916.81"/>
</g>
<!-- 11&#45;&gt;14 -->
<g id="edge24" class="edge">
<title>11&#45;&gt;14</title>
<path fill="none" stroke="grey" stroke-width="2" d="M455.79,-943.91C438.27,-928.95 419.09,-912.58 400.72,-896.9"/>
<polygon fill="grey" stroke="grey" stroke-width="2" points="402.79,-894.06 392.91,-890.23 398.24,-899.38 402.79,-894.06"/>
</g>
<!-- 12&#45;&gt;10 -->
<g id="edge14" class="edge">
<title>12&#45;&gt;10</title>
<path fill="none" stroke="grey" stroke-width="2" d="M785.06,-1120.63C782.09,-1064.12 777.75,-981.77 774.41,-918.33"/>
<polygon fill="grey" stroke="grey" stroke-width="2" points="777.91,-918.12 773.88,-908.31 770.92,-918.48 777.91,-918.12"/>
</g>
<!-- 12&#45;&gt;13 -->
<g id="edge21" class="edge">
<title>12&#45;&gt;13</title>
<path fill="none" stroke="grey" stroke-width="2" d="M860.73,-1120.62C954.38,-1028.01 1094.74,-856.93 996.5,-740 939.16,-671.76 718.91,-642.64 544.4,-630.23"/>
<polygon fill="grey" stroke="grey" stroke-width="2" points="544.51,-626.73 534.29,-629.52 544.02,-633.71 544.51,-626.73"/>
</g>
<!-- 13&#45;&gt;2 -->
<g id="edge3" class="edge">
<title>13&#45;&gt;2</title>
<path fill="none" stroke="grey" stroke-width="2" d="M316.5,-535.88C316.5,-527.35 316.5,-518.72 316.5,-510.28"/>
<polygon fill="grey" stroke="grey" stroke-width="2" points="320,-510.1 316.5,-500.1 313,-510.1 320,-510.1"/>
</g>
<!-- 14&#45;&gt;13 -->
<g id="edge20" class="edge">
<title>14&#45;&gt;13</title>
<path fill="none" stroke="grey" stroke-width="2" d="M316.5,-757.97C316.5,-744.01 316.5,-728.99 316.5,-714.2"/>
<polygon fill="grey" stroke="grey" stroke-width="2" points="320,-714.01 316.5,-704.01 313,-714.01 320,-714.01"/>
</g>
</g>
</svg>
