<?xml version="1.0" encoding="UTF-8" standalone="no"?>
<!DOCTYPE svg PUBLIC "-//W3C//DTD SVG 1.1//EN"
 "http://www.w3.org/Graphics/SVG/1.1/DTD/svg11.dtd">
<!-- Generated by graphviz version 2.49.3 (20211104.1129)
 -->
<!-- Title: snakemake_dag Pages: 1 -->
<svg width="880pt" height="1326pt"
 viewBox="0.00 0.00 879.50 1326.00" xmlns="http://www.w3.org/2000/svg" xmlns:xlink="http://www.w3.org/1999/xlink">
<g id="graph0" class="graph" transform="scale(1 1) rotate(0) translate(4 1322)">
<title>snakemake_dag</title>
<polygon fill="white" stroke="transparent" points="-4,4 -4,-1322 875.5,-1322 875.5,4 -4,4"/>
<!-- 0 -->
<g id="node1" class="node">
<title>0</title>
<text text-anchor="start" x="304.5" y="-107.6" font-family="sans" font-weight="bold" font-size="18.00">all</text>
<text text-anchor="start" x="121.5" y="-83.8" font-family="sans" font-size="10.00"> </text>
<text text-anchor="start" x="125.5" y="-83.8" font-family="sans" font-weight="bold" font-size="14.00">↪ input</text>
<text text-anchor="start" x="183.5" y="-83.8" font-family="sans" font-size="10.00"> </text>
<text text-anchor="start" x="121.5" y="-64" font-family="monospace" font-size="10.00">results/completed/10k_PBMC_3p_nextgem_Chromium_X_completed.txt</text>
<text text-anchor="start" x="121.5" y="-46" font-family="monospace" font-size="10.00">results/completed/20k_PBMC_3p_HT_nextgem_Chromium_X_completed.txt</text>
<text text-anchor="start" x="121.5" y="-28" font-family="monospace" font-size="10.00">results/completed/500_PBMC_3p_LT_Chromium_X_completed.txt</text>
<text text-anchor="start" x="505.5" y="-10" font-family="sans" font-size="10.00"> &#160;</text>
<polygon fill="#57d957" stroke="#57d957" points="115.5,-98 115.5,-98 519.5,-98 519.5,-98 115.5,-98"/>
<polygon fill="#57d957" stroke="#57d957" points="115.5,-22 115.5,-22 519.5,-22 519.5,-22 115.5,-22"/>
<polygon fill="none" stroke="#57d957" stroke-width="2" points="115,-1 115,-127 518,-127 518,-1 115,-1"/>
</g>
<!-- 1 -->
<g id="node2" class="node">
<title>1</title>
<text text-anchor="start" x="230" y="-293.6" font-family="sans" font-weight="bold" font-size="18.00">sample_complete</text>
<text text-anchor="start" x="199.5" y="-269.8" font-family="sans" font-size="10.00"> </text>
<text text-anchor="start" x="203.5" y="-269.8" font-family="sans" font-weight="bold" font-size="14.00">↪ input</text>
<text text-anchor="start" x="261.5" y="-269.8" font-family="sans" font-size="10.00"> </text>
<text text-anchor="start" x="199.5" y="-250" font-family="monospace" font-size="10.00">results/telescope/{s}/{s}&#45;TE_counts.tsv</text>
<text text-anchor="start" x="199.5" y="-232" font-family="monospace" font-size="10.00">results/telescope/{s}/{s}&#45;other.bam</text>
<text text-anchor="start" x="199.5" y="-214" font-family="monospace" font-size="10.00">results/telescope/{s}/{s}&#45;updated.bam</text>
<text text-anchor="start" x="356.5" y="-193.8" font-family="sans" font-size="10.00"> </text>
<text text-anchor="start" x="360.5" y="-193.8" font-family="sans" font-weight="bold" font-size="14.00">output →</text>
<text text-anchor="start" x="430.5" y="-193.8" font-family="sans" font-size="10.00"> </text>
<text text-anchor="start" x="199.5" y="-174" font-family="monospace" font-size="10.00">results/completed/{s}_completed.txt</text>
<polygon fill="#57d9d9" stroke="#57d9d9" points="193.5,-284 193.5,-284 441.5,-284 441.5,-284 193.5,-284"/>
<polygon fill="#57d9d9" stroke="#57d9d9" points="193.5,-208 193.5,-208 441.5,-208 441.5,-208 193.5,-208"/>
<polygon fill="none" stroke="#57d9d9" stroke-width="2" points="193,-165 193,-313 440,-313 440,-165 193,-165"/>
</g>
<!-- 1&#45;&gt;0 -->
<g id="edge1" class="edge">
<title>1&#45;&gt;0</title>
<path fill="none" stroke="grey" stroke-width="2" d="M316.5,-163.88C316.5,-155.4 316.5,-146.77 316.5,-138.3"/>
<polygon fill="grey" stroke="grey" stroke-width="2" points="320,-138.08 316.5,-128.08 313,-138.08 320,-138.08"/>
</g>
<!-- 2 -->
<g id="node3" class="node">
<title>2</title>
<text text-anchor="start" x="256" y="-497.6" font-family="sans" font-weight="bold" font-size="18.00">stellarscope</text>
<text text-anchor="start" x="163.5" y="-473.8" font-family="sans" font-size="10.00"> </text>
<text text-anchor="start" x="167.5" y="-473.8" font-family="sans" font-weight="bold" font-size="14.00">↪ input</text>
<text text-anchor="start" x="225.5" y="-473.8" font-family="sans" font-size="10.00"> </text>
<text text-anchor="start" x="163.5" y="-454" font-family="monospace" font-size="10.00">resources/annotation/retro.gtf</text>
<text text-anchor="start" x="163.5" y="-436" font-family="monospace" font-size="10.00">results/starsolo_alignment/{s}/{s}.collated.out.bam</text>
<text text-anchor="start" x="392.5" y="-415.8" font-family="sans" font-size="10.00"> </text>
<text text-anchor="start" x="396.5" y="-415.8" font-family="sans" font-weight="bold" font-size="14.00">output →</text>
<text text-anchor="start" x="466.5" y="-415.8" font-family="sans" font-size="10.00"> </text>
<text text-anchor="start" x="163.5" y="-396" font-family="monospace" font-size="10.00">results/telescope/{s}/{s}&#45;TE_counts.tsv</text>
<text text-anchor="start" x="163.5" y="-378" font-family="monospace" font-size="10.00">results/telescope/{s}/{s}&#45;other.bam</text>
<text text-anchor="start" x="163.5" y="-360" font-family="monospace" font-size="10.00">results/telescope/{s}/{s}&#45;updated.bam</text>
<polygon fill="#82d957" stroke="#82d957" points="157.5,-488 157.5,-488 477.5,-488 477.5,-488 157.5,-488"/>
<polygon fill="#82d957" stroke="#82d957" points="157.5,-430 157.5,-430 477.5,-430 477.5,-430 157.5,-430"/>
<polygon fill="none" stroke="#82d957" stroke-width="2" points="157,-351 157,-517 476,-517 476,-351 157,-351"/>
</g>
<!-- 2&#45;&gt;1 -->
<g id="edge2" class="edge">
<title>2&#45;&gt;1</title>
<path fill="none" stroke="grey" stroke-width="2" d="M316.5,-349.75C316.5,-341.34 316.5,-332.79 316.5,-324.36"/>
<polygon fill="grey" stroke="grey" stroke-width="2" points="320,-324.16 316.5,-314.16 313,-324.16 320,-324.16"/>
</g>
<!-- 3 -->
<g id="node4" class="node">
<title>3</title>
<text text-anchor="start" x="362" y="-647.6" font-family="sans" font-weight="bold" font-size="18.00">samtools_collate</text>
<text text-anchor="start" x="252.5" y="-623.8" font-family="sans" font-size="10.00"> </text>
<text text-anchor="start" x="256.5" y="-623.8" font-family="sans" font-weight="bold" font-size="14.00">↪ input</text>
<text text-anchor="start" x="314.5" y="-623.8" font-family="sans" font-size="10.00"> </text>
<text text-anchor="start" x="252.5" y="-604" font-family="monospace" font-size="10.00">results/starsolo_alignment/{s}/{s}.Aligned.sortedByCoord.out.bam</text>
<text text-anchor="start" x="559.5" y="-583.8" font-family="sans" font-size="10.00"> </text>
<text text-anchor="start" x="563.5" y="-583.8" font-family="sans" font-weight="bold" font-size="14.00">output →</text>
<text text-anchor="start" x="633.5" y="-583.8" font-family="sans" font-size="10.00"> </text>
<text text-anchor="start" x="252.5" y="-564" font-family="monospace" font-size="10.00">results/starsolo_alignment/{s}/{s}.collated.out.bam</text>
<polygon fill="#5782d9" stroke="#5782d9" points="246.5,-638 246.5,-638 644.5,-638 644.5,-638 246.5,-638"/>
<polygon fill="#5782d9" stroke="#5782d9" points="246.5,-598 246.5,-598 644.5,-598 644.5,-598 246.5,-598"/>
<polygon fill="none" stroke="#5782d9" stroke-width="2" points="246,-555 246,-667 643,-667 643,-555 246,-555"/>
</g>
<!-- 3&#45;&gt;2 -->
<g id="edge4" class="edge">
<title>3&#45;&gt;2</title>
<path fill="none" stroke="grey" stroke-width="2" d="M403.3,-553.67C396.91,-544.93 390.17,-535.72 383.39,-526.46"/>
<polygon fill="grey" stroke="grey" stroke-width="2" points="386.16,-524.31 377.43,-518.31 380.51,-528.44 386.16,-524.31"/>
</g>
<!-- 4 -->
<g id="node5" class="node">
<title>4</title>
<text text-anchor="start" x="356.5" y="-833.6" font-family="sans" font-weight="bold" font-size="18.00">starsolo_alignment</text>
<text text-anchor="start" x="259.5" y="-809.8" font-family="sans" font-size="10.00"> </text>
<text text-anchor="start" x="263.5" y="-809.8" font-family="sans" font-weight="bold" font-size="14.00">↪ input</text>
<text text-anchor="start" x="321.5" y="-809.8" font-family="sans" font-size="10.00"> </text>
<text text-anchor="start" x="259.5" y="-790" font-family="monospace" font-size="10.00">data/{s}_fastqs</text>
<text text-anchor="start" x="259.5" y="-772" font-family="monospace" font-size="10.00">resources/star_index/GRCh38_gencode38</text>
<text text-anchor="start" x="259.5" y="-754" font-family="monospace" font-size="10.00">resources/whitelist/whitelist.10x.v3.txt</text>
<text text-anchor="start" x="566.5" y="-733.8" font-family="sans" font-size="10.00"> </text>
<text text-anchor="start" x="570.5" y="-733.8" font-family="sans" font-weight="bold" font-size="14.00">output →</text>
<text text-anchor="start" x="640.5" y="-733.8" font-family="sans" font-size="10.00"> </text>
<text text-anchor="start" x="259.5" y="-714" font-family="monospace" font-size="10.00">results/starsolo_alignment/{s}/{s}.Aligned.sortedByCoord.out.bam</text>
<polygon fill="#57d982" stroke="#57d982" points="253.5,-824 253.5,-824 651.5,-824 651.5,-824 253.5,-824"/>
<polygon fill="#57d982" stroke="#57d982" points="253.5,-748 253.5,-748 651.5,-748 651.5,-748 253.5,-748"/>
<polygon fill="none" stroke="#57d982" stroke-width="2" points="253,-705 253,-853 650,-853 650,-705 253,-705"/>
</g>
<!-- 4&#45;&gt;3 -->
<g id="edge5" class="edge">
<title>4&#45;&gt;3</title>
<path fill="none" stroke="grey" stroke-width="2" d="M448.37,-703.74C448.01,-695.27 447.65,-686.68 447.3,-678.32"/>
<polygon fill="grey" stroke="grey" stroke-width="2" points="450.79,-678.11 446.87,-668.27 443.8,-678.41 450.79,-678.11"/>
</g>
<!-- 5 -->
<g id="node6" class="node">
<title>5</title>
<text text-anchor="start" x="642.5" y="-992.6" font-family="sans" font-weight="bold" font-size="18.00">untar_fastqs</text>
<text text-anchor="start" x="642.5" y="-968.8" font-family="sans" font-size="10.00"> </text>
<text text-anchor="start" x="646.5" y="-968.8" font-family="sans" font-weight="bold" font-size="14.00">↪ input</text>
<text text-anchor="start" x="704.5" y="-968.8" font-family="sans" font-size="10.00"> </text>
<text text-anchor="start" x="642.5" y="-949" font-family="monospace" font-size="10.00">data/{s}_fastqs.tar</text>
<text text-anchor="start" x="690.5" y="-928.8" font-family="sans" font-size="10.00"> </text>
<text text-anchor="start" x="694.5" y="-928.8" font-family="sans" font-weight="bold" font-size="14.00">output →</text>
<text text-anchor="start" x="764.5" y="-928.8" font-family="sans" font-size="10.00"> </text>
<text text-anchor="start" x="642.5" y="-909" font-family="monospace" font-size="10.00">data/{s}_fastqs</text>
<polygon fill="#d98257" stroke="#d98257" points="636.5,-983 636.5,-983 775.5,-983 775.5,-983 636.5,-983"/>
<polygon fill="#d98257" stroke="#d98257" points="636.5,-943 636.5,-943 775.5,-943 775.5,-943 636.5,-943"/>
<polygon fill="none" stroke="#d98257" stroke-width="2" points="636.5,-900 636.5,-1012 774.5,-1012 774.5,-900 636.5,-900"/>
</g>
<!-- 5&#45;&gt;4 -->
<g id="edge7" class="edge">
<title>5&#45;&gt;4</title>
<path fill="none" stroke="grey" stroke-width="2" d="M635.42,-906.72C614.37,-892.21 590.68,-875.89 567.48,-859.91"/>
<polygon fill="grey" stroke="grey" stroke-width="2" points="569.19,-856.83 558.97,-854.04 565.22,-862.6 569.19,-856.83"/>
</g>
<!-- 6 -->
<g id="node7" class="node">
<title>6</title>
<text text-anchor="start" x="696.5" y="-1149.6" font-family="sans" font-weight="bold" font-size="18.00">download_fastqs</text>
<text text-anchor="start" x="696.5" y="-1128" font-family="sans" font-size="10.00"> &#160;</text>
<text text-anchor="start" x="786.5" y="-1107.8" font-family="sans" font-size="10.00"> </text>
<text text-anchor="start" x="790.5" y="-1107.8" font-family="sans" font-weight="bold" font-size="14.00">output →</text>
<text text-anchor="start" x="860.5" y="-1107.8" font-family="sans" font-size="10.00"> </text>
<text text-anchor="start" x="696.5" y="-1088" font-family="monospace" font-size="10.00">data/{s}_fastqs.tar</text>
<polygon fill="#d9ad57" stroke="#d9ad57" points="690.5,-1140 690.5,-1140 871.5,-1140 871.5,-1140 690.5,-1140"/>
<polygon fill="#d9ad57" stroke="#d9ad57" points="690.5,-1122 690.5,-1122 871.5,-1122 871.5,-1122 690.5,-1122"/>
<polygon fill="none" stroke="#d9ad57" stroke-width="2" points="690.5,-1079 690.5,-1169 870.5,-1169 870.5,-1079 690.5,-1079"/>
</g>
<!-- 6&#45;&gt;5 -->
<g id="edge9" class="edge">
<title>6&#45;&gt;5</title>
<path fill="none" stroke="grey" stroke-width="2" d="M760.01,-1077.64C752.33,-1060.64 743.44,-1040.97 735.1,-1022.51"/>
<polygon fill="grey" stroke="grey" stroke-width="2" points="738.23,-1020.94 730.92,-1013.27 731.85,-1023.83 738.23,-1020.94"/>
</g>
<!-- 7 -->
<g id="node8" class="node">
<title>7</title>
<text text-anchor="start" x="277.5" y="-1001.6" font-family="sans" font-weight="bold" font-size="18.00">index_genome_star</text>
<text text-anchor="start" x="262.5" y="-977.8" font-family="sans" font-size="10.00"> </text>
<text text-anchor="start" x="266.5" y="-977.8" font-family="sans" font-weight="bold" font-size="14.00">↪ input</text>
<text text-anchor="start" x="324.5" y="-977.8" font-family="sans" font-size="10.00"> </text>
<text text-anchor="start" x="262.5" y="-958" font-family="monospace" font-size="10.00">resources/downloads/gencode38.gtf.gz</text>
<text text-anchor="start" x="262.5" y="-940" font-family="monospace" font-size="10.00">resources/sequences/GRCh38.fa.gz</text>
<text text-anchor="start" x="407.5" y="-919.8" font-family="sans" font-size="10.00"> </text>
<text text-anchor="start" x="411.5" y="-919.8" font-family="sans" font-weight="bold" font-size="14.00">output →</text>
<text text-anchor="start" x="481.5" y="-919.8" font-family="sans" font-size="10.00"> </text>
<text text-anchor="start" x="262.5" y="-900" font-family="monospace" font-size="10.00">resources/star_index/GRCh38_gencode38</text>
<polygon fill="#add957" stroke="#add957" points="256.5,-992 256.5,-992 492.5,-992 492.5,-992 256.5,-992"/>
<polygon fill="#add957" stroke="#add957" points="256.5,-934 256.5,-934 492.5,-934 492.5,-934 256.5,-934"/>
<polygon fill="none" stroke="#add957" stroke-width="2" points="256,-891 256,-1021 491,-1021 491,-891 256,-891"/>
</g>
<!-- 7&#45;&gt;4 -->
<g id="edge6" class="edge">
<title>7&#45;&gt;4</title>
<path fill="none" stroke="grey" stroke-width="2" d="M402.54,-889.84C406.4,-881.18 410.4,-872.21 414.37,-863.3"/>
<polygon fill="grey" stroke="grey" stroke-width="2" points="417.62,-864.62 418.49,-854.06 411.22,-861.77 417.62,-864.62"/>
</g>
<!-- 8 -->
<g id="node9" class="node">
<title>8</title>
<text text-anchor="start" x="153.5" y="-1169.6" font-family="sans" font-weight="bold" font-size="18.00">untar_genome</text>
<text text-anchor="start" x="117.5" y="-1145.8" font-family="sans" font-size="10.00"> </text>
<text text-anchor="start" x="121.5" y="-1145.8" font-family="sans" font-weight="bold" font-size="14.00">↪ input</text>
<text text-anchor="start" x="179.5" y="-1145.8" font-family="sans" font-size="10.00"> </text>
<text text-anchor="start" x="117.5" y="-1126" font-family="monospace" font-size="10.00">resources/downloads/GRCh38.fa.tar.gz</text>
<text text-anchor="start" x="256.5" y="-1105.8" font-family="sans" font-size="10.00"> </text>
<text text-anchor="start" x="260.5" y="-1105.8" font-family="sans" font-weight="bold" font-size="14.00">output →</text>
<text text-anchor="start" x="330.5" y="-1105.8" font-family="sans" font-size="10.00"> </text>
<text text-anchor="start" x="117.5" y="-1086" font-family="monospace" font-size="10.00">resources/sequences/GRCh38.fa.gz</text>
<text text-anchor="start" x="117.5" y="-1068" font-family="monospace" font-size="10.00">resources/sequences/GRCh38.fa.gz.fai</text>
<polygon fill="#57add9" stroke="#57add9" points="111.5,-1160 111.5,-1160 341.5,-1160 341.5,-1160 111.5,-1160"/>
<polygon fill="#57add9" stroke="#57add9" points="111.5,-1120 111.5,-1120 341.5,-1120 341.5,-1120 111.5,-1120"/>
<polygon fill="none" stroke="#57add9" stroke-width="2" points="111,-1059 111,-1189 340,-1189 340,-1059 111,-1059"/>
</g>
<!-- 8&#45;&gt;7 -->
<g id="edge11" class="edge">
<title>8&#45;&gt;7</title>
<path fill="none" stroke="grey" stroke-width="2" d="M283.57,-1057.87C291.81,-1048.62 300.33,-1039.07 308.69,-1029.69"/>
<polygon fill="grey" stroke="grey" stroke-width="2" points="311.31,-1032.01 315.36,-1022.22 306.09,-1027.35 311.31,-1032.01"/>
</g>
<!-- 11 -->
<g id="node12" class="node">
<title>11</title>
<text text-anchor="start" x="12" y="-1001.6" font-family="sans" font-weight="bold" font-size="18.00">telescope_annotation</text>
<text text-anchor="start" x="7.5" y="-977.8" font-family="sans" font-size="10.00"> </text>
<text text-anchor="start" x="11.5" y="-977.8" font-family="sans" font-weight="bold" font-size="14.00">↪ input</text>
<text text-anchor="start" x="69.5" y="-977.8" font-family="sans" font-size="10.00"> </text>
<text text-anchor="start" x="7.5" y="-958" font-family="monospace" font-size="10.00">resources/downloads/retro.hg38.v1.gtf</text>
<text text-anchor="start" x="7.5" y="-940" font-family="monospace" font-size="10.00">resources/sequences/GRCh38.fa.gz.fai</text>
<text text-anchor="start" x="152.5" y="-919.8" font-family="sans" font-size="10.00"> </text>
<text text-anchor="start" x="156.5" y="-919.8" font-family="sans" font-weight="bold" font-size="14.00">output →</text>
<text text-anchor="start" x="226.5" y="-919.8" font-family="sans" font-size="10.00"> </text>
<text text-anchor="start" x="7.5" y="-900" font-family="monospace" font-size="10.00">resources/annotation/retro.gtf</text>
<polygon fill="#57d9ad" stroke="#57d9ad" points="1.5,-992 1.5,-992 237.5,-992 237.5,-992 1.5,-992"/>
<polygon fill="#57d9ad" stroke="#57d9ad" points="1.5,-934 1.5,-934 237.5,-934 237.5,-934 1.5,-934"/>
<polygon fill="none" stroke="#57d9ad" stroke-width="2" points="1,-891 1,-1021 236,-1021 236,-891 1,-891"/>
</g>
<!-- 8&#45;&gt;11 -->
<g id="edge15" class="edge">
<title>8&#45;&gt;11</title>
<path fill="none" stroke="grey" stroke-width="2" d="M183.52,-1057.87C177.79,-1048.99 171.89,-1039.82 166.07,-1030.8"/>
<polygon fill="grey" stroke="grey" stroke-width="2" points="168.9,-1028.72 160.54,-1022.22 163.01,-1032.52 168.9,-1028.72"/>
</g>
<!-- 9 -->
<g id="node10" class="node">
<title>9</title>
<text text-anchor="start" x="208.5" y="-1297.6" font-family="sans" font-weight="bold" font-size="18.00">download_remote</text>
<text text-anchor="start" x="208.5" y="-1276" font-family="sans" font-size="10.00"> &#160;</text>
<text text-anchor="start" x="308.5" y="-1255.8" font-family="sans" font-size="10.00"> </text>
<text text-anchor="start" x="312.5" y="-1255.8" font-family="sans" font-weight="bold" font-size="14.00">output →</text>
<text text-anchor="start" x="382.5" y="-1255.8" font-family="sans" font-size="10.00"> </text>
<text text-anchor="start" x="208.5" y="-1236" font-family="monospace" font-size="10.00">resources/downloads/{file}</text>
<polygon fill="#d95757" stroke="#d95757" points="202.5,-1288 202.5,-1288 393.5,-1288 393.5,-1288 202.5,-1288"/>
<polygon fill="#d95757" stroke="#d95757" points="202.5,-1270 202.5,-1270 393.5,-1270 393.5,-1270 202.5,-1270"/>
<polygon fill="none" stroke="#d95757" stroke-width="2" points="202.5,-1227 202.5,-1317 392.5,-1317 392.5,-1227 202.5,-1227"/>
</g>
<!-- 9&#45;&gt;7 -->
<g id="edge10" class="edge">
<title>9&#45;&gt;7</title>
<path fill="none" stroke="grey" stroke-width="2" d="M331.71,-1225.82C338.68,-1214.63 345.19,-1202.3 349.5,-1190 367.27,-1139.22 373.09,-1078.7 374.55,-1032.07"/>
<polygon fill="grey" stroke="grey" stroke-width="2" points="378.05,-1032.12 374.81,-1022.04 371.06,-1031.95 378.05,-1032.12"/>
</g>
<!-- 9&#45;&gt;8 -->
<g id="edge12" class="edge">
<title>9&#45;&gt;8</title>
<path fill="none" stroke="grey" stroke-width="2" d="M275.11,-1225.61C270.96,-1217.19 266.53,-1208.21 262.09,-1199.2"/>
<polygon fill="grey" stroke="grey" stroke-width="2" points="265.21,-1197.62 257.65,-1190.2 258.94,-1200.71 265.21,-1197.62"/>
</g>
<!-- 10 -->
<g id="node11" class="node">
<title>10</title>
<text text-anchor="start" x="470.5" y="-1160.6" font-family="sans" font-weight="bold" font-size="18.00">get_whitelist</text>
<text text-anchor="start" x="405.5" y="-1136.8" font-family="sans" font-size="10.00"> </text>
<text text-anchor="start" x="409.5" y="-1136.8" font-family="sans" font-weight="bold" font-size="14.00">↪ input</text>
<text text-anchor="start" x="467.5" y="-1136.8" font-family="sans" font-size="10.00"> </text>
<text text-anchor="start" x="405.5" y="-1117" font-family="monospace" font-size="10.00">resources/downloads/whitelist.10x.v3.txt.gz</text>
<text text-anchor="start" x="586.5" y="-1096.8" font-family="sans" font-size="10.00"> </text>
<text text-anchor="start" x="590.5" y="-1096.8" font-family="sans" font-weight="bold" font-size="14.00">output →</text>
<text text-anchor="start" x="660.5" y="-1096.8" font-family="sans" font-size="10.00"> </text>
<text text-anchor="start" x="405.5" y="-1077" font-family="monospace" font-size="10.00">resources/whitelist/whitelist.10x.v3.txt</text>
<polygon fill="#d9d957" stroke="#d9d957" points="399.5,-1151 399.5,-1151 671.5,-1151 671.5,-1151 399.5,-1151"/>
<polygon fill="#d9d957" stroke="#d9d957" points="399.5,-1111 399.5,-1111 671.5,-1111 671.5,-1111 399.5,-1111"/>
<polygon fill="none" stroke="#d9d957" stroke-width="2" points="399,-1068 399,-1180 670,-1180 670,-1068 399,-1068"/>
</g>
<!-- 9&#45;&gt;10 -->
<g id="edge13" class="edge">
<title>9&#45;&gt;10</title>
<path fill="none" stroke="grey" stroke-width="2" d="M370.87,-1225.8C391.06,-1213.37 413.31,-1199.66 434.72,-1186.47"/>
<polygon fill="grey" stroke="grey" stroke-width="2" points="436.84,-1189.28 443.51,-1181.05 433.16,-1183.32 436.84,-1189.28"/>
</g>
<!-- 9&#45;&gt;11 -->
<g id="edge14" class="edge">
<title>9&#45;&gt;11</title>
<path fill="none" stroke="grey" stroke-width="2" d="M201.48,-1255.3C163.42,-1243.86 123.35,-1224.1 100.5,-1190 69.7,-1144.04 76.82,-1080.94 90.2,-1031.99"/>
<polygon fill="grey" stroke="grey" stroke-width="2" points="93.65,-1032.67 93.04,-1022.09 86.92,-1030.73 93.65,-1032.67"/>
</g>
<!-- 10&#45;&gt;4 -->
<g id="edge8" class="edge">
<title>10&#45;&gt;4</title>
<path fill="none" stroke="grey" stroke-width="2" d="M530.62,-1066.53C526.3,-1018.77 517.56,-948.9 500.5,-890 497.98,-881.3 494.91,-872.39 491.55,-863.6"/>
<polygon fill="grey" stroke="grey" stroke-width="2" points="494.73,-862.13 487.79,-854.12 488.22,-864.7 494.73,-862.13"/>
</g>
<!-- 11&#45;&gt;2 -->
<g id="edge3" class="edge">
<title>11&#45;&gt;2</title>
<path fill="none" stroke="grey" stroke-width="2" d="M130.91,-889.9C147.86,-808.64 182.36,-666.65 235.5,-554 239.74,-545.02 244.61,-535.95 249.82,-527.05"/>
<polygon fill="grey" stroke="grey" stroke-width="2" points="252.99,-528.59 255.14,-518.21 246.99,-524.98 252.99,-528.59"/>
</g>
</g>
</svg>
