<?xml version="1.0" encoding="UTF-8" standalone="no"?>
<!DOCTYPE svg PUBLIC "-//W3C//DTD SVG 1.1//EN"
 "http://www.w3.org/Graphics/SVG/1.1/DTD/svg11.dtd">
<!-- Generated by graphviz version 2.50.0 (20211209.0339)
 -->
<!-- Title: snakemake_dag Pages: 1 -->
<svg width="407pt" height="692pt"
 viewBox="0.00 0.00 407.00 692.00" xmlns="http://www.w3.org/2000/svg" xmlns:xlink="http://www.w3.org/1999/xlink">
<g id="graph0" class="graph" transform="scale(1 1) rotate(0) translate(4 688)">
<title>snakemake_dag</title>
<polygon fill="white" stroke="transparent" points="-4,4 -4,-688 403,-688 403,4 -4,4"/>
<!-- 0 -->
<g id="node1" class="node">
<title>0</title>
<path fill="none" stroke="#ced856" stroke-width="2" d="M152,-36C152,-36 122,-36 122,-36 116,-36 110,-30 110,-24 110,-24 110,-12 110,-12 110,-6 116,0 122,0 122,0 152,0 152,0 158,0 164,-6 164,-12 164,-12 164,-24 164,-24 164,-30 158,-36 152,-36"/>
<text text-anchor="middle" x="137" y="-15.5" font-family="sans" font-size="10.00">all</text>
</g>
<!-- 1 -->
<g id="node2" class="node">
<title>1</title>
<path fill="none" stroke="#567bd8" stroke-width="2" d="M177,-108C177,-108 97,-108 97,-108 91,-108 85,-102 85,-96 85,-96 85,-84 85,-84 85,-78 91,-72 97,-72 97,-72 177,-72 177,-72 183,-72 189,-78 189,-84 189,-84 189,-96 189,-96 189,-102 183,-108 177,-108"/>
<text text-anchor="middle" x="137" y="-87.5" font-family="sans" font-size="10.00">sample_complete</text>
</g>
<!-- 1&#45;&gt;0 -->
<g id="edge1" class="edge">
<title>1&#45;&gt;0</title>
<path fill="none" stroke="grey" stroke-width="2" d="M137,-71.7C137,-63.98 137,-54.71 137,-46.11"/>
<polygon fill="grey" stroke="grey" stroke-width="2" points="140.5,-46.1 137,-36.1 133.5,-46.1 140.5,-46.1"/>
</g>
<!-- 2 -->
<g id="node3" class="node">
<title>2</title>
<path fill="none" stroke="#afd856" stroke-width="2" d="M173,-180C173,-180 101,-180 101,-180 95,-180 89,-174 89,-168 89,-168 89,-156 89,-156 89,-150 95,-144 101,-144 101,-144 173,-144 173,-144 179,-144 185,-150 185,-156 185,-156 185,-168 185,-168 185,-174 179,-180 173,-180"/>
<text text-anchor="middle" x="137" y="-159.5" font-family="sans" font-size="10.00">merge_matrices</text>
</g>
<!-- 2&#45;&gt;1 -->
<g id="edge2" class="edge">
<title>2&#45;&gt;1</title>
<path fill="none" stroke="grey" stroke-width="2" d="M137,-143.7C137,-135.98 137,-126.71 137,-118.11"/>
<polygon fill="grey" stroke="grey" stroke-width="2" points="140.5,-118.1 137,-108.1 133.5,-118.1 140.5,-118.1"/>
</g>
<!-- 3 -->
<g id="node4" class="node">
<title>3</title>
<path fill="none" stroke="#56d8d0" stroke-width="2" d="M161,-468C161,-468 75,-468 75,-468 69,-468 63,-462 63,-456 63,-456 63,-444 63,-444 63,-438 69,-432 75,-432 75,-432 161,-432 161,-432 167,-432 173,-438 173,-444 173,-444 173,-456 173,-456 173,-462 167,-468 161,-468"/>
<text text-anchor="middle" x="118" y="-447.5" font-family="sans" font-size="10.00">starsolo_alignment</text>
</g>
<!-- 3&#45;&gt;2 -->
<g id="edge5" class="edge">
<title>3&#45;&gt;2</title>
<path fill="none" stroke="grey" stroke-width="2" d="M106.53,-431.95C81.28,-392.09 26,-290.54 64,-216 70.23,-203.77 80.76,-193.7 91.9,-185.75"/>
<polygon fill="grey" stroke="grey" stroke-width="2" points="94.07,-188.51 100.49,-180.08 90.21,-182.67 94.07,-188.51"/>
</g>
<!-- 10 -->
<g id="node11" class="node">
<title>10</title>
<path fill="none" stroke="#d8bc56" stroke-width="2" d="M309.5,-324C309.5,-324 196.5,-324 196.5,-324 190.5,-324 184.5,-318 184.5,-312 184.5,-312 184.5,-300 184.5,-300 184.5,-294 190.5,-288 196.5,-288 196.5,-288 309.5,-288 309.5,-288 315.5,-288 321.5,-294 321.5,-300 321.5,-300 321.5,-312 321.5,-312 321.5,-318 315.5,-324 309.5,-324"/>
<text text-anchor="middle" x="253" y="-303.5" font-family="sans" font-size="10.00">stellarscope_pseudobulk</text>
</g>
<!-- 3&#45;&gt;10 -->
<g id="edge16" class="edge">
<title>3&#45;&gt;10</title>
<path fill="none" stroke="grey" stroke-width="2" d="M173.01,-442.62C202.56,-436.07 236.62,-422.82 255,-396 267.31,-378.04 265.46,-352.88 261.31,-333.9"/>
<polygon fill="grey" stroke="grey" stroke-width="2" points="264.68,-332.92 258.85,-324.07 257.89,-334.62 264.68,-332.92"/>
</g>
<!-- 11 -->
<g id="node12" class="node">
<title>11</title>
<path fill="none" stroke="#56d8a9" stroke-width="2" d="M234,-396C234,-396 158,-396 158,-396 152,-396 146,-390 146,-384 146,-384 146,-372 146,-372 146,-366 152,-360 158,-360 158,-360 234,-360 234,-360 240,-360 246,-366 246,-372 246,-372 246,-384 246,-384 246,-390 240,-396 234,-396"/>
<text text-anchor="middle" x="196" y="-375.5" font-family="sans" font-size="10.00">samtools_collate</text>
</g>
<!-- 3&#45;&gt;11 -->
<g id="edge17" class="edge">
<title>3&#45;&gt;11</title>
<path fill="none" stroke="grey" stroke-width="2" d="M137.28,-431.7C146.92,-423.05 158.73,-412.45 169.23,-403.03"/>
<polygon fill="grey" stroke="grey" stroke-width="2" points="171.84,-405.39 176.94,-396.1 167.16,-400.18 171.84,-405.39"/>
</g>
<!-- 13 -->
<g id="node14" class="node">
<title>13</title>
<path fill="none" stroke="#88d856" stroke-width="2" d="M189.5,-252C189.5,-252 84.5,-252 84.5,-252 78.5,-252 72.5,-246 72.5,-240 72.5,-240 72.5,-228 72.5,-228 72.5,-222 78.5,-216 84.5,-216 84.5,-216 189.5,-216 189.5,-216 195.5,-216 201.5,-222 201.5,-228 201.5,-228 201.5,-240 201.5,-240 201.5,-246 195.5,-252 189.5,-252"/>
<text text-anchor="middle" x="137" y="-231.5" font-family="sans" font-size="10.00">stellarscope_individual</text>
</g>
<!-- 3&#45;&gt;13 -->
<g id="edge21" class="edge">
<title>3&#45;&gt;13</title>
<path fill="none" stroke="grey" stroke-width="2" d="M111.26,-431.62C100.64,-401.59 82.81,-338.37 99,-288 102.19,-278.08 108,-268.44 114.13,-260.17"/>
<polygon fill="grey" stroke="grey" stroke-width="2" points="117.07,-262.09 120.54,-252.08 111.58,-257.74 117.07,-262.09"/>
</g>
<!-- 14 -->
<g id="node15" class="node">
<title>14</title>
<path fill="none" stroke="#569ad8" stroke-width="2" d="M154,-324C154,-324 120,-324 120,-324 114,-324 108,-318 108,-312 108,-312 108,-300 108,-300 108,-294 114,-288 120,-288 120,-288 154,-288 154,-288 160,-288 166,-294 166,-300 166,-300 166,-312 166,-312 166,-318 160,-324 154,-324"/>
<text text-anchor="middle" x="137" y="-303.5" font-family="sans" font-size="10.00">cell_sort</text>
</g>
<!-- 3&#45;&gt;14 -->
<g id="edge24" class="edge">
<title>3&#45;&gt;14</title>
<path fill="none" stroke="grey" stroke-width="2" d="M120.29,-431.87C123.53,-407.67 129.48,-363.21 133.33,-334.39"/>
<polygon fill="grey" stroke="grey" stroke-width="2" points="136.84,-334.57 134.7,-324.19 129.9,-333.64 136.84,-334.57"/>
</g>
<!-- 4 -->
<g id="node5" class="node">
<title>4</title>
<path fill="none" stroke="#56c1d8" stroke-width="2" d="M144.5,-540C144.5,-540 91.5,-540 91.5,-540 85.5,-540 79.5,-534 79.5,-528 79.5,-528 79.5,-516 79.5,-516 79.5,-510 85.5,-504 91.5,-504 91.5,-504 144.5,-504 144.5,-504 150.5,-504 156.5,-510 156.5,-516 156.5,-516 156.5,-528 156.5,-528 156.5,-534 150.5,-540 144.5,-540"/>
<text text-anchor="middle" x="118" y="-519.5" font-family="sans" font-size="10.00">untar_fastqs</text>
</g>
<!-- 4&#45;&gt;3 -->
<g id="edge6" class="edge">
<title>4&#45;&gt;3</title>
<path fill="none" stroke="grey" stroke-width="2" d="M118,-503.7C118,-495.98 118,-486.71 118,-478.11"/>
<polygon fill="grey" stroke="grey" stroke-width="2" points="121.5,-478.1 118,-468.1 114.5,-478.1 121.5,-478.1"/>
</g>
<!-- 5 -->
<g id="node6" class="node">
<title>5</title>
<path fill="none" stroke="#68d856" stroke-width="2" d="M185.5,-612C185.5,-612 110.5,-612 110.5,-612 104.5,-612 98.5,-606 98.5,-600 98.5,-600 98.5,-588 98.5,-588 98.5,-582 104.5,-576 110.5,-576 110.5,-576 185.5,-576 185.5,-576 191.5,-576 197.5,-582 197.5,-588 197.5,-588 197.5,-600 197.5,-600 197.5,-606 191.5,-612 185.5,-612"/>
<text text-anchor="middle" x="148" y="-591.5" font-family="sans" font-size="10.00">download_fastqs</text>
</g>
<!-- 5&#45;&gt;4 -->
<g id="edge9" class="edge">
<title>5&#45;&gt;4</title>
<path fill="none" stroke="grey" stroke-width="2" d="M140.58,-575.7C137.21,-567.81 133.13,-558.3 129.38,-549.55"/>
<polygon fill="grey" stroke="grey" stroke-width="2" points="132.49,-547.92 125.33,-540.1 126.05,-550.67 132.49,-547.92"/>
</g>
<!-- 6 -->
<g id="node7" class="node">
<title>6</title>
<path fill="none" stroke="#d89c56" stroke-width="2" d="M275.5,-540C275.5,-540 186.5,-540 186.5,-540 180.5,-540 174.5,-534 174.5,-528 174.5,-528 174.5,-516 174.5,-516 174.5,-510 180.5,-504 186.5,-504 186.5,-504 275.5,-504 275.5,-504 281.5,-504 287.5,-510 287.5,-516 287.5,-516 287.5,-528 287.5,-528 287.5,-534 281.5,-540 275.5,-540"/>
<text text-anchor="middle" x="231" y="-519.5" font-family="sans" font-size="10.00">index_genome_star</text>
</g>
<!-- 6&#45;&gt;3 -->
<g id="edge7" class="edge">
<title>6&#45;&gt;3</title>
<path fill="none" stroke="grey" stroke-width="2" d="M203.36,-503.88C188.58,-494.72 170.21,-483.34 154.3,-473.48"/>
<polygon fill="grey" stroke="grey" stroke-width="2" points="156.09,-470.48 145.75,-468.19 152.41,-476.43 156.09,-470.48"/>
</g>
<!-- 7 -->
<g id="node8" class="node">
<title>7</title>
<path fill="none" stroke="#d87556" stroke-width="2" d="M329.5,-612C329.5,-612 266.5,-612 266.5,-612 260.5,-612 254.5,-606 254.5,-600 254.5,-600 254.5,-588 254.5,-588 254.5,-582 260.5,-576 266.5,-576 266.5,-576 329.5,-576 329.5,-576 335.5,-576 341.5,-582 341.5,-588 341.5,-588 341.5,-600 341.5,-600 341.5,-606 335.5,-612 329.5,-612"/>
<text text-anchor="middle" x="298" y="-591.5" font-family="sans" font-size="10.00">untar_genome</text>
</g>
<!-- 7&#45;&gt;6 -->
<g id="edge10" class="edge">
<title>7&#45;&gt;6</title>
<path fill="none" stroke="grey" stroke-width="2" d="M281.44,-575.7C273.32,-567.22 263.41,-556.86 254.53,-547.58"/>
<polygon fill="grey" stroke="grey" stroke-width="2" points="256.81,-544.91 247.37,-540.1 251.76,-549.75 256.81,-544.91"/>
</g>
<!-- 12 -->
<g id="node13" class="node">
<title>12</title>
<path fill="none" stroke="#56d86b" stroke-width="2" d="M387,-468C387,-468 289,-468 289,-468 283,-468 277,-462 277,-456 277,-456 277,-444 277,-444 277,-438 283,-432 289,-432 289,-432 387,-432 387,-432 393,-432 399,-438 399,-444 399,-444 399,-456 399,-456 399,-462 393,-468 387,-468"/>
<text text-anchor="middle" x="338" y="-447.5" font-family="sans" font-size="10.00">telescope_annotation</text>
</g>
<!-- 7&#45;&gt;12 -->
<g id="edge19" class="edge">
<title>7&#45;&gt;12</title>
<path fill="none" stroke="grey" stroke-width="2" d="M302.82,-575.87C309.67,-551.56 322.28,-506.82 330.39,-478.01"/>
<polygon fill="grey" stroke="grey" stroke-width="2" points="333.82,-478.76 333.16,-468.19 327.08,-476.87 333.82,-478.76"/>
</g>
<!-- 8 -->
<g id="node9" class="node">
<title>8</title>
<path fill="none" stroke="#d85656" stroke-width="2" d="M302,-684C302,-684 222,-684 222,-684 216,-684 210,-678 210,-672 210,-672 210,-660 210,-660 210,-654 216,-648 222,-648 222,-648 302,-648 302,-648 308,-648 314,-654 314,-660 314,-660 314,-672 314,-672 314,-678 308,-684 302,-684"/>
<text text-anchor="middle" x="262" y="-663.5" font-family="sans" font-size="10.00">download_remote</text>
</g>
<!-- 8&#45;&gt;6 -->
<g id="edge11" class="edge">
<title>8&#45;&gt;6</title>
<path fill="none" stroke="grey" stroke-width="2" d="M256.26,-647.96C252.93,-637.64 248.85,-624.17 246,-612 241.21,-591.53 237.32,-568.08 234.7,-550.38"/>
<polygon fill="grey" stroke="grey" stroke-width="2" points="238.12,-549.59 233.24,-540.19 231.19,-550.59 238.12,-549.59"/>
</g>
<!-- 8&#45;&gt;7 -->
<g id="edge12" class="edge">
<title>8&#45;&gt;7</title>
<path fill="none" stroke="grey" stroke-width="2" d="M270.9,-647.7C275,-639.73 279.95,-630.1 284.49,-621.26"/>
<polygon fill="grey" stroke="grey" stroke-width="2" points="287.74,-622.6 289.2,-612.1 281.52,-619.4 287.74,-622.6"/>
</g>
<!-- 9 -->
<g id="node10" class="node">
<title>9</title>
<path fill="none" stroke="#56d88a" stroke-width="2" d="M68,-612C68,-612 12,-612 12,-612 6,-612 0,-606 0,-600 0,-600 0,-588 0,-588 0,-582 6,-576 12,-576 12,-576 68,-576 68,-576 74,-576 80,-582 80,-588 80,-588 80,-600 80,-600 80,-606 74,-612 68,-612"/>
<text text-anchor="middle" x="40" y="-591.5" font-family="sans" font-size="10.00">get_whitelist</text>
</g>
<!-- 8&#45;&gt;9 -->
<g id="edge13" class="edge">
<title>8&#45;&gt;9</title>
<path fill="none" stroke="grey" stroke-width="2" d="M209.94,-649.39C175.77,-639.03 130.13,-625 90,-612 89.9,-611.97 89.8,-611.93 89.7,-611.9"/>
<polygon fill="grey" stroke="grey" stroke-width="2" points="90.68,-608.54 80.08,-608.74 88.49,-615.19 90.68,-608.54"/>
</g>
<!-- 8&#45;&gt;12 -->
<g id="edge18" class="edge">
<title>8&#45;&gt;12</title>
<path fill="none" stroke="grey" stroke-width="2" d="M310.03,-647.85C325.97,-639.6 341.94,-627.95 351,-612 374.86,-570.02 360.74,-511.68 348.94,-477.97"/>
<polygon fill="grey" stroke="grey" stroke-width="2" points="352.14,-476.52 345.4,-468.35 345.57,-478.94 352.14,-476.52"/>
</g>
<!-- 9&#45;&gt;3 -->
<g id="edge8" class="edge">
<title>9&#45;&gt;3</title>
<path fill="none" stroke="grey" stroke-width="2" d="M43.87,-575.75C48.52,-557.16 57.43,-527.15 71,-504 76.91,-493.93 84.89,-484.04 92.61,-475.58"/>
<polygon fill="grey" stroke="grey" stroke-width="2" points="95.22,-477.92 99.55,-468.25 90.13,-473.1 95.22,-477.92"/>
</g>
<!-- 10&#45;&gt;2 -->
<g id="edge3" class="edge">
<title>10&#45;&gt;2</title>
<path fill="none" stroke="grey" stroke-width="2" d="M247.81,-287.81C241.43,-268.74 229.16,-237.78 211,-216 201.39,-204.48 188.73,-194.21 176.6,-185.85"/>
<polygon fill="grey" stroke="grey" stroke-width="2" points="178.19,-182.71 167.92,-180.11 174.33,-188.55 178.19,-182.71"/>
</g>
<!-- 11&#45;&gt;10 -->
<g id="edge15" class="edge">
<title>11&#45;&gt;10</title>
<path fill="none" stroke="grey" stroke-width="2" d="M210.09,-359.7C216.92,-351.3 225.26,-341.07 232.76,-331.86"/>
<polygon fill="grey" stroke="grey" stroke-width="2" points="235.47,-334.07 239.07,-324.1 230.04,-329.65 235.47,-334.07"/>
</g>
<!-- 11&#45;&gt;14 -->
<g id="edge23" class="edge">
<title>11&#45;&gt;14</title>
<path fill="none" stroke="grey" stroke-width="2" d="M181.42,-359.7C174.34,-351.3 165.72,-341.07 157.95,-331.86"/>
<polygon fill="grey" stroke="grey" stroke-width="2" points="160.54,-329.49 151.42,-324.1 155.19,-334.01 160.54,-329.49"/>
</g>
<!-- 12&#45;&gt;10 -->
<g id="edge14" class="edge">
<title>12&#45;&gt;10</title>
<path fill="none" stroke="grey" stroke-width="2" d="M328.77,-431.73C319,-413.64 302.95,-384.51 288,-360 282.54,-351.06 276.32,-341.45 270.64,-332.91"/>
<polygon fill="grey" stroke="grey" stroke-width="2" points="273.46,-330.82 264.99,-324.46 267.64,-334.72 273.46,-330.82"/>
</g>
<!-- 12&#45;&gt;13 -->
<g id="edge20" class="edge">
<title>12&#45;&gt;13</title>
<path fill="none" stroke="grey" stroke-width="2" d="M343.19,-431.71C351.7,-399.55 364.52,-329.98 331,-288 315.82,-268.99 259.69,-254.97 211.69,-246.15"/>
<polygon fill="grey" stroke="grey" stroke-width="2" points="212.05,-242.65 201.59,-244.34 210.81,-249.54 212.05,-242.65"/>
</g>
<!-- 13&#45;&gt;2 -->
<g id="edge4" class="edge">
<title>13&#45;&gt;2</title>
<path fill="none" stroke="grey" stroke-width="2" d="M137,-215.7C137,-207.98 137,-198.71 137,-190.11"/>
<polygon fill="grey" stroke="grey" stroke-width="2" points="140.5,-190.1 137,-180.1 133.5,-190.1 140.5,-190.1"/>
</g>
<!-- 14&#45;&gt;13 -->
<g id="edge22" class="edge">
<title>14&#45;&gt;13</title>
<path fill="none" stroke="grey" stroke-width="2" d="M137,-287.7C137,-279.98 137,-270.71 137,-262.11"/>
<polygon fill="grey" stroke="grey" stroke-width="2" points="140.5,-262.1 137,-252.1 133.5,-262.1 140.5,-262.1"/>
</g>
</g>
</svg>
