<?xml version="1.0" encoding="UTF-8" standalone="no"?>
<!DOCTYPE svg PUBLIC "-//W3C//DTD SVG 1.1//EN"
 "http://www.w3.org/Graphics/SVG/1.1/DTD/svg11.dtd">
<!-- Generated by graphviz version 2.49.3 (20211104.1129)
 -->
<!-- Title: snakemake_dag Pages: 1 -->
<svg width="401pt" height="620pt"
 viewBox="0.00 0.00 401.00 620.00" xmlns="http://www.w3.org/2000/svg" xmlns:xlink="http://www.w3.org/1999/xlink">
<g id="graph0" class="graph" transform="scale(1 1) rotate(0) translate(4 616)">
<title>snakemake_dag</title>
<polygon fill="white" stroke="transparent" points="-4,4 -4,-616 397,-616 397,4 -4,4"/>
<!-- 0 -->
<g id="node1" class="node">
<title>0</title>
<path fill="none" stroke="#c6d856" stroke-width="2" d="M197,-36C197,-36 167,-36 167,-36 161,-36 155,-30 155,-24 155,-24 155,-12 155,-12 155,-6 161,0 167,0 167,0 197,0 197,0 203,0 209,-6 209,-12 209,-12 209,-24 209,-24 209,-30 203,-36 197,-36"/>
<text text-anchor="middle" x="182" y="-15.5" font-family="sans" font-size="10.00">all</text>
</g>
<!-- 1 -->
<g id="node2" class="node">
<title>1</title>
<path fill="none" stroke="#9fd856" stroke-width="2" d="M222,-108C222,-108 142,-108 142,-108 136,-108 130,-102 130,-96 130,-96 130,-84 130,-84 130,-78 136,-72 142,-72 142,-72 222,-72 222,-72 228,-72 234,-78 234,-84 234,-84 234,-96 234,-96 234,-102 228,-108 222,-108"/>
<text text-anchor="middle" x="182" y="-87.5" font-family="sans" font-size="10.00">sample_complete</text>
</g>
<!-- 1&#45;&gt;0 -->
<g id="edge1" class="edge">
<title>1&#45;&gt;0</title>
<path fill="none" stroke="grey" stroke-width="2" d="M182,-71.7C182,-63.98 182,-54.71 182,-46.11"/>
<polygon fill="grey" stroke="grey" stroke-width="2" points="185.5,-46.1 182,-36.1 178.5,-46.1 185.5,-46.1"/>
</g>
<!-- 2 -->
<g id="node3" class="node">
<title>2</title>
<path fill="none" stroke="#78d856" stroke-width="2" d="M297.5,-252C297.5,-252 184.5,-252 184.5,-252 178.5,-252 172.5,-246 172.5,-240 172.5,-240 172.5,-228 172.5,-228 172.5,-222 178.5,-216 184.5,-216 184.5,-216 297.5,-216 297.5,-216 303.5,-216 309.5,-222 309.5,-228 309.5,-228 309.5,-240 309.5,-240 309.5,-246 303.5,-252 297.5,-252"/>
<text text-anchor="middle" x="241" y="-231.5" font-family="sans" font-size="10.00">stellarscope_pseudobulk</text>
</g>
<!-- 2&#45;&gt;1 -->
<g id="edge2" class="edge">
<title>2&#45;&gt;1</title>
<path fill="none" stroke="grey" stroke-width="2" d="M235.5,-215.69C229.57,-197.57 219.56,-168.41 209,-144 205.19,-135.19 200.58,-125.78 196.26,-117.38"/>
<polygon fill="grey" stroke="grey" stroke-width="2" points="199.3,-115.64 191.57,-108.4 193.1,-118.88 199.3,-115.64"/>
</g>
<!-- 3 -->
<g id="node4" class="node">
<title>3</title>
<path fill="none" stroke="#56a2d8" stroke-width="2" d="M222,-324C222,-324 146,-324 146,-324 140,-324 134,-318 134,-312 134,-312 134,-300 134,-300 134,-294 140,-288 146,-288 146,-288 222,-288 222,-288 228,-288 234,-294 234,-300 234,-300 234,-312 234,-312 234,-318 228,-324 222,-324"/>
<text text-anchor="middle" x="184" y="-303.5" font-family="sans" font-size="10.00">samtools_collate</text>
</g>
<!-- 3&#45;&gt;2 -->
<g id="edge5" class="edge">
<title>3&#45;&gt;2</title>
<path fill="none" stroke="grey" stroke-width="2" d="M198.09,-287.7C204.92,-279.3 213.26,-269.07 220.76,-259.86"/>
<polygon fill="grey" stroke="grey" stroke-width="2" points="223.47,-262.07 227.07,-252.1 218.04,-257.65 223.47,-262.07"/>
</g>
<!-- 13 -->
<g id="node14" class="node">
<title>13</title>
<path fill="none" stroke="#56d8a2" stroke-width="2" d="M142,-252C142,-252 108,-252 108,-252 102,-252 96,-246 96,-240 96,-240 96,-228 96,-228 96,-222 102,-216 108,-216 108,-216 142,-216 142,-216 148,-216 154,-222 154,-228 154,-228 154,-240 154,-240 154,-246 148,-252 142,-252"/>
<text text-anchor="middle" x="125" y="-231.5" font-family="sans" font-size="10.00">cell_sort</text>
</g>
<!-- 3&#45;&gt;13 -->
<g id="edge22" class="edge">
<title>3&#45;&gt;13</title>
<path fill="none" stroke="grey" stroke-width="2" d="M169.42,-287.7C162.34,-279.3 153.72,-269.07 145.95,-259.86"/>
<polygon fill="grey" stroke="grey" stroke-width="2" points="148.54,-257.49 139.42,-252.1 143.19,-262.01 148.54,-257.49"/>
</g>
<!-- 4 -->
<g id="node5" class="node">
<title>4</title>
<path fill="none" stroke="#d87d56" stroke-width="2" d="M161,-396C161,-396 75,-396 75,-396 69,-396 63,-390 63,-384 63,-384 63,-372 63,-372 63,-366 69,-360 75,-360 75,-360 161,-360 161,-360 167,-360 173,-366 173,-372 173,-372 173,-384 173,-384 173,-390 167,-396 161,-396"/>
<text text-anchor="middle" x="118" y="-375.5" font-family="sans" font-size="10.00">starsolo_alignment</text>
</g>
<!-- 4&#45;&gt;2 -->
<g id="edge6" class="edge">
<title>4&#45;&gt;2</title>
<path fill="none" stroke="grey" stroke-width="2" d="M173.13,-367.99C198.94,-360.7 227.38,-347.58 243,-324 254.95,-305.95 253.23,-281.01 249.21,-262.12"/>
<polygon fill="grey" stroke="grey" stroke-width="2" points="252.59,-261.22 246.82,-252.33 245.79,-262.88 252.59,-261.22"/>
</g>
<!-- 4&#45;&gt;3 -->
<g id="edge7" class="edge">
<title>4&#45;&gt;3</title>
<path fill="none" stroke="grey" stroke-width="2" d="M134.31,-359.7C142.31,-351.22 152.07,-340.86 160.82,-331.58"/>
<polygon fill="grey" stroke="grey" stroke-width="2" points="163.56,-333.78 167.87,-324.1 158.47,-328.98 163.56,-333.78"/>
</g>
<!-- 12 -->
<g id="node13" class="node">
<title>12</title>
<path fill="none" stroke="#56d8c9" stroke-width="2" d="M188.5,-180C188.5,-180 83.5,-180 83.5,-180 77.5,-180 71.5,-174 71.5,-168 71.5,-168 71.5,-156 71.5,-156 71.5,-150 77.5,-144 83.5,-144 83.5,-144 188.5,-144 188.5,-144 194.5,-144 200.5,-150 200.5,-156 200.5,-156 200.5,-168 200.5,-168 200.5,-174 194.5,-180 188.5,-180"/>
<text text-anchor="middle" x="136" y="-159.5" font-family="sans" font-size="10.00">stellarscope_individual</text>
</g>
<!-- 4&#45;&gt;12 -->
<g id="edge20" class="edge">
<title>4&#45;&gt;12</title>
<path fill="none" stroke="grey" stroke-width="2" d="M108.71,-359.98C93.63,-329.98 67.39,-266.1 87,-216 91.2,-205.28 98.69,-195.43 106.58,-187.2"/>
<polygon fill="grey" stroke="grey" stroke-width="2" points="109.12,-189.61 113.85,-180.13 104.24,-184.59 109.12,-189.61"/>
</g>
<!-- 4&#45;&gt;13 -->
<g id="edge21" class="edge">
<title>4&#45;&gt;13</title>
<path fill="none" stroke="grey" stroke-width="2" d="M118.84,-359.87C120.04,-335.67 122.23,-291.21 123.65,-262.39"/>
<polygon fill="grey" stroke="grey" stroke-width="2" points="127.16,-262.35 124.15,-252.19 120.16,-262 127.16,-262.35"/>
</g>
<!-- 5 -->
<g id="node6" class="node">
<title>5</title>
<path fill="none" stroke="#567bd8" stroke-width="2" d="M144.5,-468C144.5,-468 91.5,-468 91.5,-468 85.5,-468 79.5,-462 79.5,-456 79.5,-456 79.5,-444 79.5,-444 79.5,-438 85.5,-432 91.5,-432 91.5,-432 144.5,-432 144.5,-432 150.5,-432 156.5,-438 156.5,-444 156.5,-444 156.5,-456 156.5,-456 156.5,-462 150.5,-468 144.5,-468"/>
<text text-anchor="middle" x="118" y="-447.5" font-family="sans" font-size="10.00">untar_fastqs</text>
</g>
<!-- 5&#45;&gt;4 -->
<g id="edge10" class="edge">
<title>5&#45;&gt;4</title>
<path fill="none" stroke="grey" stroke-width="2" d="M118,-431.7C118,-423.98 118,-414.71 118,-406.11"/>
<polygon fill="grey" stroke="grey" stroke-width="2" points="121.5,-406.1 118,-396.1 114.5,-406.1 121.5,-406.1"/>
</g>
<!-- 6 -->
<g id="node7" class="node">
<title>6</title>
<path fill="none" stroke="#d85656" stroke-width="2" d="M185.5,-540C185.5,-540 110.5,-540 110.5,-540 104.5,-540 98.5,-534 98.5,-528 98.5,-528 98.5,-516 98.5,-516 98.5,-510 104.5,-504 110.5,-504 110.5,-504 185.5,-504 185.5,-504 191.5,-504 197.5,-510 197.5,-516 197.5,-516 197.5,-528 197.5,-528 197.5,-534 191.5,-540 185.5,-540"/>
<text text-anchor="middle" x="148" y="-519.5" font-family="sans" font-size="10.00">download_fastqs</text>
</g>
<!-- 6&#45;&gt;5 -->
<g id="edge11" class="edge">
<title>6&#45;&gt;5</title>
<path fill="none" stroke="grey" stroke-width="2" d="M140.58,-503.7C137.21,-495.81 133.13,-486.3 129.38,-477.55"/>
<polygon fill="grey" stroke="grey" stroke-width="2" points="132.49,-475.92 125.33,-468.1 126.05,-478.67 132.49,-475.92"/>
</g>
<!-- 7 -->
<g id="node8" class="node">
<title>7</title>
<path fill="none" stroke="#59d856" stroke-width="2" d="M275.5,-468C275.5,-468 186.5,-468 186.5,-468 180.5,-468 174.5,-462 174.5,-456 174.5,-456 174.5,-444 174.5,-444 174.5,-438 180.5,-432 186.5,-432 186.5,-432 275.5,-432 275.5,-432 281.5,-432 287.5,-438 287.5,-444 287.5,-444 287.5,-456 287.5,-456 287.5,-462 281.5,-468 275.5,-468"/>
<text text-anchor="middle" x="231" y="-447.5" font-family="sans" font-size="10.00">index_genome_star</text>
</g>
<!-- 7&#45;&gt;4 -->
<g id="edge8" class="edge">
<title>7&#45;&gt;4</title>
<path fill="none" stroke="grey" stroke-width="2" d="M203.36,-431.88C188.58,-422.72 170.21,-411.34 154.3,-401.48"/>
<polygon fill="grey" stroke="grey" stroke-width="2" points="156.09,-398.48 145.75,-396.19 152.41,-404.43 156.09,-398.48"/>
</g>
<!-- 8 -->
<g id="node9" class="node">
<title>8</title>
<path fill="none" stroke="#56c9d8" stroke-width="2" d="M329.5,-540C329.5,-540 266.5,-540 266.5,-540 260.5,-540 254.5,-534 254.5,-528 254.5,-528 254.5,-516 254.5,-516 254.5,-510 260.5,-504 266.5,-504 266.5,-504 329.5,-504 329.5,-504 335.5,-504 341.5,-510 341.5,-516 341.5,-516 341.5,-528 341.5,-528 341.5,-534 335.5,-540 329.5,-540"/>
<text text-anchor="middle" x="298" y="-519.5" font-family="sans" font-size="10.00">untar_genome</text>
</g>
<!-- 8&#45;&gt;7 -->
<g id="edge13" class="edge">
<title>8&#45;&gt;7</title>
<path fill="none" stroke="grey" stroke-width="2" d="M281.44,-503.7C273.32,-495.22 263.41,-484.86 254.53,-475.58"/>
<polygon fill="grey" stroke="grey" stroke-width="2" points="256.81,-472.91 247.37,-468.1 251.76,-477.75 256.81,-472.91"/>
</g>
<!-- 11 -->
<g id="node12" class="node">
<title>11</title>
<path fill="none" stroke="#d8c356" stroke-width="2" d="M381,-396C381,-396 283,-396 283,-396 277,-396 271,-390 271,-384 271,-384 271,-372 271,-372 271,-366 277,-360 283,-360 283,-360 381,-360 381,-360 387,-360 393,-366 393,-372 393,-372 393,-384 393,-384 393,-390 387,-396 381,-396"/>
<text text-anchor="middle" x="332" y="-375.5" font-family="sans" font-size="10.00">telescope_annotation</text>
</g>
<!-- 8&#45;&gt;11 -->
<g id="edge17" class="edge">
<title>8&#45;&gt;11</title>
<path fill="none" stroke="grey" stroke-width="2" d="M302.1,-503.87C307.92,-479.56 318.63,-434.82 325.53,-406.01"/>
<polygon fill="grey" stroke="grey" stroke-width="2" points="328.96,-406.73 327.88,-396.19 322.15,-405.1 328.96,-406.73"/>
</g>
<!-- 9 -->
<g id="node10" class="node">
<title>9</title>
<path fill="none" stroke="#d8a456" stroke-width="2" d="M302,-612C302,-612 222,-612 222,-612 216,-612 210,-606 210,-600 210,-600 210,-588 210,-588 210,-582 216,-576 222,-576 222,-576 302,-576 302,-576 308,-576 314,-582 314,-588 314,-588 314,-600 314,-600 314,-606 308,-612 302,-612"/>
<text text-anchor="middle" x="262" y="-591.5" font-family="sans" font-size="10.00">download_remote</text>
</g>
<!-- 9&#45;&gt;7 -->
<g id="edge12" class="edge">
<title>9&#45;&gt;7</title>
<path fill="none" stroke="grey" stroke-width="2" d="M256.26,-575.96C252.93,-565.64 248.85,-552.17 246,-540 241.21,-519.53 237.32,-496.08 234.7,-478.38"/>
<polygon fill="grey" stroke="grey" stroke-width="2" points="238.12,-477.59 233.24,-468.19 231.19,-478.59 238.12,-477.59"/>
</g>
<!-- 9&#45;&gt;8 -->
<g id="edge14" class="edge">
<title>9&#45;&gt;8</title>
<path fill="none" stroke="grey" stroke-width="2" d="M270.9,-575.7C275,-567.73 279.95,-558.1 284.49,-549.26"/>
<polygon fill="grey" stroke="grey" stroke-width="2" points="287.74,-550.6 289.2,-540.1 281.52,-547.4 287.74,-550.6"/>
</g>
<!-- 10 -->
<g id="node11" class="node">
<title>10</title>
<path fill="none" stroke="#56d87b" stroke-width="2" d="M68,-540C68,-540 12,-540 12,-540 6,-540 0,-534 0,-528 0,-528 0,-516 0,-516 0,-510 6,-504 12,-504 12,-504 68,-504 68,-504 74,-504 80,-510 80,-516 80,-516 80,-528 80,-528 80,-534 74,-540 68,-540"/>
<text text-anchor="middle" x="40" y="-519.5" font-family="sans" font-size="10.00">get_whitelist</text>
</g>
<!-- 9&#45;&gt;10 -->
<g id="edge15" class="edge">
<title>9&#45;&gt;10</title>
<path fill="none" stroke="grey" stroke-width="2" d="M209.99,-577.61C177.84,-567.97 135.53,-555.06 89.86,-540.23"/>
<polygon fill="grey" stroke="grey" stroke-width="2" points="90.66,-536.81 80.07,-537.04 88.49,-543.46 90.66,-536.81"/>
</g>
<!-- 9&#45;&gt;11 -->
<g id="edge16" class="edge">
<title>9&#45;&gt;11</title>
<path fill="none" stroke="grey" stroke-width="2" d="M310.03,-575.85C325.97,-567.6 341.94,-555.95 351,-540 374.95,-497.87 358.08,-439.58 344.48,-405.92"/>
<polygon fill="grey" stroke="grey" stroke-width="2" points="347.53,-404.16 340.41,-396.32 341.08,-406.89 347.53,-404.16"/>
</g>
<!-- 10&#45;&gt;4 -->
<g id="edge9" class="edge">
<title>10&#45;&gt;4</title>
<path fill="none" stroke="grey" stroke-width="2" d="M43.6,-503.72C47.96,-485.1 56.47,-455.07 70,-432 75.96,-421.83 84.11,-411.92 91.99,-403.47"/>
<polygon fill="grey" stroke="grey" stroke-width="2" points="94.64,-405.77 99.09,-396.15 89.61,-400.89 94.64,-405.77"/>
</g>
<!-- 11&#45;&gt;2 -->
<g id="edge4" class="edge">
<title>11&#45;&gt;2</title>
<path fill="none" stroke="grey" stroke-width="2" d="M321.38,-359.87C310.19,-341.89 292.02,-312.86 276,-288 270.24,-279.06 263.84,-269.33 258.12,-260.67"/>
<polygon fill="grey" stroke="grey" stroke-width="2" points="260.89,-258.52 252.45,-252.12 255.06,-262.39 260.89,-258.52"/>
</g>
<!-- 11&#45;&gt;12 -->
<g id="edge18" class="edge">
<title>11&#45;&gt;12</title>
<path fill="none" stroke="grey" stroke-width="2" d="M336.35,-359.66C343.34,-327.41 353.05,-257.7 319,-216 292.98,-184.13 249.04,-170.72 210.74,-165.35"/>
<polygon fill="grey" stroke="grey" stroke-width="2" points="210.98,-161.85 200.63,-164.1 210.12,-168.8 210.98,-161.85"/>
</g>
<!-- 12&#45;&gt;1 -->
<g id="edge3" class="edge">
<title>12&#45;&gt;1</title>
<path fill="none" stroke="grey" stroke-width="2" d="M147.37,-143.7C152.72,-135.56 159.2,-125.69 165.11,-116.7"/>
<polygon fill="grey" stroke="grey" stroke-width="2" points="168.19,-118.38 170.76,-108.1 162.34,-114.54 168.19,-118.38"/>
</g>
<!-- 13&#45;&gt;12 -->
<g id="edge19" class="edge">
<title>13&#45;&gt;12</title>
<path fill="none" stroke="grey" stroke-width="2" d="M127.72,-215.7C128.93,-207.98 130.39,-198.71 131.74,-190.11"/>
<polygon fill="grey" stroke="grey" stroke-width="2" points="135.22,-190.53 133.31,-180.1 128.3,-189.44 135.22,-190.53"/>
</g>
</g>
</svg>
