<?xml version="1.0" encoding="UTF-8" standalone="no"?>
<!DOCTYPE svg PUBLIC "-//W3C//DTD SVG 1.1//EN"
 "http://www.w3.org/Graphics/SVG/1.1/DTD/svg11.dtd">
<!-- Generated by graphviz version 2.49.3 (20211104.1129)
 -->
<!-- Title: snakemake_dag Pages: 1 -->
<svg width="435pt" height="548pt"
 viewBox="0.00 0.00 434.50 548.00" xmlns="http://www.w3.org/2000/svg" xmlns:xlink="http://www.w3.org/1999/xlink">
<g id="graph0" class="graph" transform="scale(1 1) rotate(0) translate(4 544)">
<title>snakemake_dag</title>
<polygon fill="white" stroke="transparent" points="-4,4 -4,-544 430.5,-544 430.5,4 -4,4"/>
<!-- 0 -->
<g id="node1" class="node">
<title>0</title>
<path fill="none" stroke="#56d8d8" stroke-width="2" d="M184,-36C184,-36 154,-36 154,-36 148,-36 142,-30 142,-24 142,-24 142,-12 142,-12 142,-6 148,0 154,0 154,0 184,0 184,0 190,0 196,-6 196,-12 196,-12 196,-24 196,-24 196,-30 190,-36 184,-36"/>
<text text-anchor="middle" x="169" y="-15.5" font-family="sans" font-size="10.00">all</text>
</g>
<!-- 1 -->
<g id="node2" class="node">
<title>1</title>
<path fill="none" stroke="#d8ac56" stroke-width="2" d="M209,-108C209,-108 129,-108 129,-108 123,-108 117,-102 117,-96 117,-96 117,-84 117,-84 117,-78 123,-72 129,-72 129,-72 209,-72 209,-72 215,-72 221,-78 221,-84 221,-84 221,-96 221,-96 221,-102 215,-108 209,-108"/>
<text text-anchor="middle" x="169" y="-87.5" font-family="sans" font-size="10.00">sample_complete</text>
</g>
<!-- 1&#45;&gt;0 -->
<g id="edge1" class="edge">
<title>1&#45;&gt;0</title>
<path fill="none" stroke="grey" stroke-width="2" d="M169,-71.7C169,-63.98 169,-54.71 169,-46.11"/>
<polygon fill="grey" stroke="grey" stroke-width="2" points="172.5,-46.1 169,-36.1 165.5,-46.1 172.5,-46.1"/>
</g>
<!-- 2 -->
<g id="node3" class="node">
<title>2</title>
<path fill="none" stroke="#d88556" stroke-width="2" d="M195,-180C195,-180 143,-180 143,-180 137,-180 131,-174 131,-168 131,-168 131,-156 131,-156 131,-150 137,-144 143,-144 143,-144 195,-144 195,-144 201,-144 207,-150 207,-156 207,-156 207,-168 207,-168 207,-174 201,-180 195,-180"/>
<text text-anchor="middle" x="169" y="-159.5" font-family="sans" font-size="10.00">stellarscope</text>
</g>
<!-- 2&#45;&gt;1 -->
<g id="edge2" class="edge">
<title>2&#45;&gt;1</title>
<path fill="none" stroke="grey" stroke-width="2" d="M169,-143.7C169,-135.98 169,-126.71 169,-118.11"/>
<polygon fill="grey" stroke="grey" stroke-width="2" points="172.5,-118.1 169,-108.1 165.5,-118.1 172.5,-118.1"/>
</g>
<!-- 3 -->
<g id="node4" class="node">
<title>3</title>
<path fill="none" stroke="#59d856" stroke-width="2" d="M248,-252C248,-252 172,-252 172,-252 166,-252 160,-246 160,-240 160,-240 160,-228 160,-228 160,-222 166,-216 172,-216 172,-216 248,-216 248,-216 254,-216 260,-222 260,-228 260,-228 260,-240 260,-240 260,-246 254,-252 248,-252"/>
<text text-anchor="middle" x="210" y="-231.5" font-family="sans" font-size="10.00">samtools_collate</text>
</g>
<!-- 3&#45;&gt;2 -->
<g id="edge3" class="edge">
<title>3&#45;&gt;2</title>
<path fill="none" stroke="grey" stroke-width="2" d="M199.87,-215.7C195.15,-207.64 189.44,-197.89 184.22,-188.98"/>
<polygon fill="grey" stroke="grey" stroke-width="2" points="187.09,-186.96 179.02,-180.1 181.05,-190.5 187.09,-186.96"/>
</g>
<!-- 4 -->
<g id="node5" class="node">
<title>4</title>
<path fill="none" stroke="#80d856" stroke-width="2" d="M282,-324C282,-324 196,-324 196,-324 190,-324 184,-318 184,-312 184,-312 184,-300 184,-300 184,-294 190,-288 196,-288 196,-288 282,-288 282,-288 288,-288 294,-294 294,-300 294,-300 294,-312 294,-312 294,-318 288,-324 282,-324"/>
<text text-anchor="middle" x="239" y="-303.5" font-family="sans" font-size="10.00">starsolo_alignment</text>
</g>
<!-- 4&#45;&gt;3 -->
<g id="edge5" class="edge">
<title>4&#45;&gt;3</title>
<path fill="none" stroke="grey" stroke-width="2" d="M231.83,-287.7C228.57,-279.81 224.63,-270.3 221,-261.55"/>
<polygon fill="grey" stroke="grey" stroke-width="2" points="224.15,-260 217.09,-252.1 217.68,-262.68 224.15,-260"/>
</g>
<!-- 5 -->
<g id="node6" class="node">
<title>5</title>
<path fill="none" stroke="#56d8a9" stroke-width="2" d="M389.5,-396C389.5,-396 336.5,-396 336.5,-396 330.5,-396 324.5,-390 324.5,-384 324.5,-384 324.5,-372 324.5,-372 324.5,-366 330.5,-360 336.5,-360 336.5,-360 389.5,-360 389.5,-360 395.5,-360 401.5,-366 401.5,-372 401.5,-372 401.5,-384 401.5,-384 401.5,-390 395.5,-396 389.5,-396"/>
<text text-anchor="middle" x="363" y="-375.5" font-family="sans" font-size="10.00">untar_fastqs</text>
</g>
<!-- 5&#45;&gt;4 -->
<g id="edge7" class="edge">
<title>5&#45;&gt;4</title>
<path fill="none" stroke="grey" stroke-width="2" d="M332.67,-359.88C316.3,-350.64 295.92,-339.13 278.35,-329.21"/>
<polygon fill="grey" stroke="grey" stroke-width="2" points="279.88,-326.06 269.45,-324.19 276.44,-332.15 279.88,-326.06"/>
</g>
<!-- 6 -->
<g id="node7" class="node">
<title>6</title>
<path fill="none" stroke="#5682d8" stroke-width="2" d="M414.5,-468C414.5,-468 339.5,-468 339.5,-468 333.5,-468 327.5,-462 327.5,-456 327.5,-456 327.5,-444 327.5,-444 327.5,-438 333.5,-432 339.5,-432 339.5,-432 414.5,-432 414.5,-432 420.5,-432 426.5,-438 426.5,-444 426.5,-444 426.5,-456 426.5,-456 426.5,-462 420.5,-468 414.5,-468"/>
<text text-anchor="middle" x="377" y="-447.5" font-family="sans" font-size="10.00">download_fastqs</text>
</g>
<!-- 6&#45;&gt;5 -->
<g id="edge9" class="edge">
<title>6&#45;&gt;5</title>
<path fill="none" stroke="grey" stroke-width="2" d="M373.54,-431.7C372,-423.98 370.14,-414.71 368.42,-406.11"/>
<polygon fill="grey" stroke="grey" stroke-width="2" points="371.81,-405.22 366.42,-396.1 364.95,-406.6 371.81,-405.22"/>
</g>
<!-- 7 -->
<g id="node8" class="node">
<title>7</title>
<path fill="none" stroke="#56a9d8" stroke-width="2" d="M241.5,-396C241.5,-396 152.5,-396 152.5,-396 146.5,-396 140.5,-390 140.5,-384 140.5,-384 140.5,-372 140.5,-372 140.5,-366 146.5,-360 152.5,-360 152.5,-360 241.5,-360 241.5,-360 247.5,-360 253.5,-366 253.5,-372 253.5,-372 253.5,-384 253.5,-384 253.5,-390 247.5,-396 241.5,-396"/>
<text text-anchor="middle" x="197" y="-375.5" font-family="sans" font-size="10.00">index_genome_star</text>
</g>
<!-- 7&#45;&gt;4 -->
<g id="edge8" class="edge">
<title>7&#45;&gt;4</title>
<path fill="none" stroke="grey" stroke-width="2" d="M207.38,-359.7C212.26,-351.56 218.19,-341.69 223.58,-332.7"/>
<polygon fill="grey" stroke="grey" stroke-width="2" points="226.59,-334.48 228.74,-324.1 220.59,-330.88 226.59,-334.48"/>
</g>
<!-- 8 -->
<g id="node9" class="node">
<title>8</title>
<path fill="none" stroke="#d6d856" stroke-width="2" d="M160.5,-468C160.5,-468 97.5,-468 97.5,-468 91.5,-468 85.5,-462 85.5,-456 85.5,-456 85.5,-444 85.5,-444 85.5,-438 91.5,-432 97.5,-432 97.5,-432 160.5,-432 160.5,-432 166.5,-432 172.5,-438 172.5,-444 172.5,-444 172.5,-456 172.5,-456 172.5,-462 166.5,-468 160.5,-468"/>
<text text-anchor="middle" x="129" y="-447.5" font-family="sans" font-size="10.00">untar_genome</text>
</g>
<!-- 8&#45;&gt;7 -->
<g id="edge10" class="edge">
<title>8&#45;&gt;7</title>
<path fill="none" stroke="grey" stroke-width="2" d="M145.81,-431.7C154.13,-423.14 164.31,-412.66 173.39,-403.3"/>
<polygon fill="grey" stroke="grey" stroke-width="2" points="175.93,-405.72 180.38,-396.1 170.91,-400.84 175.93,-405.72"/>
</g>
<!-- 11 -->
<g id="node12" class="node">
<title>11</title>
<path fill="none" stroke="#56d882" stroke-width="2" d="M110,-396C110,-396 12,-396 12,-396 6,-396 0,-390 0,-384 0,-384 0,-372 0,-372 0,-366 6,-360 12,-360 12,-360 110,-360 110,-360 116,-360 122,-366 122,-372 122,-372 122,-384 122,-384 122,-390 116,-396 110,-396"/>
<text text-anchor="middle" x="61" y="-375.5" font-family="sans" font-size="10.00">telescope_annotation</text>
</g>
<!-- 8&#45;&gt;11 -->
<g id="edge14" class="edge">
<title>8&#45;&gt;11</title>
<path fill="none" stroke="grey" stroke-width="2" d="M112.19,-431.7C103.87,-423.14 93.69,-412.66 84.61,-403.3"/>
<polygon fill="grey" stroke="grey" stroke-width="2" points="87.09,-400.84 77.62,-396.1 82.07,-405.72 87.09,-400.84"/>
</g>
<!-- 9 -->
<g id="node10" class="node">
<title>9</title>
<path fill="none" stroke="#afd856" stroke-width="2" d="M205,-540C205,-540 125,-540 125,-540 119,-540 113,-534 113,-528 113,-528 113,-516 113,-516 113,-510 119,-504 125,-504 125,-504 205,-504 205,-504 211,-504 217,-510 217,-516 217,-516 217,-528 217,-528 217,-534 211,-540 205,-540"/>
<text text-anchor="middle" x="165" y="-519.5" font-family="sans" font-size="10.00">download_remote</text>
</g>
<!-- 9&#45;&gt;7 -->
<g id="edge11" class="edge">
<title>9&#45;&gt;7</title>
<path fill="none" stroke="grey" stroke-width="2" d="M170.69,-503.95C174,-493.63 178.08,-480.15 181,-468 185.91,-447.52 190.07,-424.06 192.92,-406.37"/>
<polygon fill="grey" stroke="grey" stroke-width="2" points="196.42,-406.6 194.51,-396.18 189.51,-405.52 196.42,-406.6"/>
</g>
<!-- 9&#45;&gt;8 -->
<g id="edge12" class="edge">
<title>9&#45;&gt;8</title>
<path fill="none" stroke="grey" stroke-width="2" d="M156.1,-503.7C152,-495.73 147.05,-486.1 142.51,-477.26"/>
<polygon fill="grey" stroke="grey" stroke-width="2" points="145.48,-475.4 137.8,-468.1 139.26,-478.6 145.48,-475.4"/>
</g>
<!-- 10 -->
<g id="node11" class="node">
<title>10</title>
<path fill="none" stroke="#d85656" stroke-width="2" d="M297,-468C297,-468 241,-468 241,-468 235,-468 229,-462 229,-456 229,-456 229,-444 229,-444 229,-438 235,-432 241,-432 241,-432 297,-432 297,-432 303,-432 309,-438 309,-444 309,-444 309,-456 309,-456 309,-462 303,-468 297,-468"/>
<text text-anchor="middle" x="269" y="-447.5" font-family="sans" font-size="10.00">get_whitelist</text>
</g>
<!-- 9&#45;&gt;10 -->
<g id="edge13" class="edge">
<title>9&#45;&gt;10</title>
<path fill="none" stroke="grey" stroke-width="2" d="M190.44,-503.88C203.79,-494.89 220.32,-483.76 234.78,-474.03"/>
<polygon fill="grey" stroke="grey" stroke-width="2" points="237.12,-476.68 243.46,-468.19 233.21,-470.87 237.12,-476.68"/>
</g>
<!-- 9&#45;&gt;11 -->
<g id="edge15" class="edge">
<title>9&#45;&gt;11</title>
<path fill="none" stroke="grey" stroke-width="2" d="M120.23,-503.94C103.88,-495.52 86.77,-483.73 76,-468 63.66,-449.97 60.31,-425.19 59.82,-406.35"/>
<polygon fill="grey" stroke="grey" stroke-width="2" points="63.32,-406.3 59.81,-396.31 56.32,-406.31 63.32,-406.3"/>
</g>
<!-- 10&#45;&gt;4 -->
<g id="edge6" class="edge">
<title>10&#45;&gt;4</title>
<path fill="none" stroke="grey" stroke-width="2" d="M269.31,-431.67C269.26,-413.53 268.06,-384.37 262,-360 259.77,-351.05 256.17,-341.68 252.48,-333.36"/>
<polygon fill="grey" stroke="grey" stroke-width="2" points="255.58,-331.73 248.17,-324.16 249.24,-334.7 255.58,-331.73"/>
</g>
<!-- 11&#45;&gt;2 -->
<g id="edge4" class="edge">
<title>11&#45;&gt;2</title>
<path fill="none" stroke="grey" stroke-width="2" d="M69.66,-359.85C88.5,-322.52 133.32,-233.69 155.75,-189.26"/>
<polygon fill="grey" stroke="grey" stroke-width="2" points="158.92,-190.74 160.3,-180.23 152.67,-187.58 158.92,-190.74"/>
</g>
</g>
</svg>
